<svg version="1.1" preserveAspectRatio="none" xmlns="http://www.w3.org/2000/svg" width="500" height="500" viewBox="0 0 500 500"><rect width="100%" height="100%" fill="#070707" fill-opacity="1"/><svg viewBox="249.4715 886.2541 377.0077 349.1136" width="333" height="308.36194804509296" x="83.5px" y="95.819px" xmlns="http://www.w3.org/2000/svg" xmlns:xlink="http://www.w3.org/1999/xlink" preserveAspectRatio="none"><defs></defs><style>.companyName {fill:#F7DC5F;fill-opacity:1;}.icon1 {fill:#F7DC5F;fill-opacity:1;}.icon2 {fill:#8C7848;fill-opacity:1;}.icon3 {fill:#534538;fill-opacity:1;}.icon3-str {stroke:#534538;stroke-opacity:1;}.text {fill:#F7DC5F;fill-opacity:1;}</style><g opacity="1" transform="rotate(0 249.4715 1211.3677)">
<svg width="377.0077" height="24" x="249.4715" y="1211.3677" version="1.1" preserveAspectRatio="none" viewBox="-0.04 -27.28 552.88 35.2">
  <g transform="matrix(1 0 0 1 0 0)" class="text"><path id="id-6izo4zJp26" d="M14.08-10.48L14.08 0L11.08 0L11.08-10.48L-0.04-26.48L3.60-26.48L12.56-13.60L21.52-26.48L25.16-26.48L14.08-10.48Z M37.16-20.32L37.16-20.32Q41.64-20.32 44.44-17.32L44.44-17.32Q47.08-14.44 47.08-10L47.08-10Q47.08-5.56 44.44-2.68L44.44-2.68Q41.64 0.32 37.16 0.32L37.16 0.32Q32.68 0.32 29.88-2.68L29.88-2.68Q27.24-5.56 27.24-10L27.24-10Q27.24-14.44 29.88-17.32L29.88-17.32Q32.68-20.32 37.16-20.32ZM37.16-2.40L37.16-2.40Q40.40-2.40 42.28-4.64L42.28-4.64Q44.08-6.76 44.08-10L44.08-10Q44.08-13.24 42.28-15.36L42.28-15.36Q40.40-17.60 37.16-17.60L37.16-17.60Q33.92-17.60 32.04-15.36L32.04-15.36Q30.24-13.24 30.24-10L30.24-10Q30.24-6.76 32.04-4.64L32.04-4.64Q33.92-2.40 37.16-2.40Z M72.48 0L69.48 0L69.48-3.12Q68.40-1.68 66.84-0.68Q65.28 0.32 63.28 0.32Q61.28 0.32 59.84-0.24Q58.40-0.80 57.32-1.92L57.32-1.92Q54.84-4.36 54.84-8.36L54.84-8.36L54.84-20L57.84-20L57.84-8.44Q57.84-5.68 59.40-4.04Q60.96-2.40 63.44-2.40L63.44-2.40Q65.96-2.40 67.72-4.08L67.72-4.08Q69.48-5.80 69.48-8.48L69.48-8.48L69.48-20L72.48-20L72.48 0Z M92.04-20.32L92.24-20.32L92.24-17.32L91.88-17.32Q88.64-17.32 86.60-14.72L86.60-14.72Q84.68-12.24 84.68-8.80L84.68-8.80L84.68 0L81.68 0L81.68-20L84.68-20L84.68-15.08Q85.64-18.20 88.84-19.68L88.84-19.68Q90.16-20.32 92.04-20.32L92.04-20.32Z M131.12-26.48L134.40-26.48L123.68 0L120.24 0L109.52-26.48L112.80-26.48L121.96-3.40L131.12-26.48Z M141.12 0L141.12-20L144.12-20L144.12 0L141.12 0ZM141.00-27.28L144.24-27.28L144.24-23.36L141.00-23.36L141.00-27.28Z M168.12-14.64L165.08-14.64Q164.68-17.76 160.06-17.76Q155.44-17.76 155.44-14.88L155.44-14.88Q155.44-13.68 156.42-13.06Q157.40-12.44 158.88-12.04Q160.36-11.64 162.10-11.30Q163.84-10.96 165.32-10.34Q166.80-9.72 167.78-8.64Q168.76-7.56 168.76-5.68L168.76-5.68Q168.76-2.76 166.56-1.22Q164.36 0.32 160.60 0.32L160.60 0.32Q156.60 0.32 154.24-1.68L154.24-1.68Q152.08-3.44 151.92-6.28L151.92-6.28L155.04-6.28Q155.32-3.52 158.16-2.56L158.16-2.56Q159.20-2.24 160.22-2.24Q161.24-2.24 162.12-2.36Q163.00-2.48 163.84-2.80L163.84-2.80Q165.76-3.56 165.76-5.40L165.76-5.40Q165.76-6.64 164.78-7.30Q163.80-7.96 162.32-8.38Q160.84-8.80 159.10-9.14Q157.36-9.48 155.88-10.08Q154.40-10.68 153.42-11.72Q152.44-12.76 152.44-14.60L152.44-14.60Q152.44-17.32 154.42-18.82Q156.40-20.32 160.28-20.32L160.28-20.32Q163.96-20.32 166.08-18.56L166.08-18.56Q167.84-17.08 168.12-14.64L168.12-14.64Z M176.60 0L176.60-20L179.60-20L179.60 0L176.60 0ZM176.48-27.28L179.72-27.28L179.72-23.36L176.48-23.36L176.48-27.28Z M197.48-20.32L197.48-20.32Q201.96-20.32 204.76-17.32L204.76-17.32Q207.40-14.44 207.40-10L207.40-10Q207.40-5.56 204.76-2.68L204.76-2.68Q201.96 0.32 197.48 0.32L197.48 0.32Q193.00 0.32 190.20-2.68L190.20-2.68Q187.56-5.56 187.56-10L187.56-10Q187.56-14.44 190.20-17.32L190.20-17.32Q193.00-20.32 197.48-20.32ZM197.48-2.40L197.48-2.40Q200.72-2.40 202.60-4.64L202.60-4.64Q204.40-6.76 204.40-10L204.40-10Q204.40-13.24 202.60-15.36L202.60-15.36Q200.72-17.60 197.48-17.60L197.48-17.60Q194.24-17.60 192.36-15.36L192.36-15.36Q190.56-13.24 190.56-10L190.56-10Q190.56-6.76 192.36-4.64L192.36-4.64Q194.24-2.40 197.48-2.40Z M215.36-20L218.36-20L218.36-16.88Q219.44-18.32 221.00-19.32Q222.56-20.32 224.56-20.32Q226.56-20.32 228.00-19.76Q229.44-19.20 230.52-18.08L230.52-18.08Q233.00-15.64 233.00-11.64L233.00-11.64L233.00 0L230.00 0L230.00-11.56Q230.00-14.32 228.44-15.96Q226.88-17.60 224.40-17.60L224.40-17.60Q221.88-17.60 220.12-15.92L220.12-15.92Q218.36-14.20 218.36-11.52L218.36-11.52L218.36 0L215.36 0L215.36-20Z M239.84 5.32L242.16-3.20L246.08-3.20L242.56 5.32L239.84 5.32Z M279.72-26.80L279.72-26.80Q285.64-26.80 289.44-22.84L289.44-22.84Q293.16-19 293.16-13.24Q293.16-7.48 289.44-3.64L289.44-3.64Q285.64 0.32 279.72 0.32L279.72 0.32Q273.80 0.32 270.00-3.64L270.00-3.64Q266.28-7.48 266.28-13.24Q266.28-19 270.00-22.84L270.00-22.84Q273.80-26.80 279.72-26.80ZM279.72-2.60L279.72-2.60Q284.44-2.60 287.36-5.68L287.36-5.68Q290.16-8.64 290.16-13.24L290.16-13.24Q290.16-17.84 287.36-20.80L287.36-20.80Q284.44-23.88 279.72-23.88L279.72-23.88Q275.00-23.88 272.08-20.80L272.08-20.80Q269.28-17.84 269.28-13.24L269.28-13.24Q269.28-8.64 272.08-5.68L272.08-5.68Q275.00-2.60 279.72-2.60Z M318.76 0L315.76 0L315.76-3.12Q314.68-1.68 313.12-0.68Q311.56 0.32 309.56 0.32Q307.56 0.32 306.12-0.24Q304.68-0.80 303.60-1.92L303.60-1.92Q301.12-4.36 301.12-8.36L301.12-8.36L301.12-20L304.12-20L304.12-8.44Q304.12-5.68 305.68-4.04Q307.24-2.40 309.72-2.40L309.72-2.40Q312.24-2.40 314-4.08L314-4.08Q315.76-5.80 315.76-8.48L315.76-8.48L315.76-20L318.76-20L318.76 0Z M338.32-20.32L338.52-20.32L338.52-17.32L338.16-17.32Q334.92-17.32 332.88-14.72L332.88-14.72Q330.96-12.24 330.96-8.80L330.96-8.80L330.96 0L327.96 0L327.96-20L330.96-20L330.96-15.08Q331.92-18.20 335.12-19.68L335.12-19.68Q336.44-20.32 338.32-20.32L338.32-20.32Z M378.40-23.60L361.92-23.60L361.92-14.72L376.64-14.72L376.64-11.80L361.92-11.80L361.92-2.88L378.40-2.88L378.40 0L358.92 0L358.92-26.48L378.40-26.48L378.40-23.60Z M402.60-20L395.36-10.32L403.12 0L399.28 0L393.64-8.16L387.96 0L384.16 0L391.88-10.32L384.64-20L388.48-20L393.64-12.44L398.76-20L402.60-20Z M412.88-20L412.88-16.80Q415.28-20.32 420.04-20.32L420.04-20.32Q424.36-20.32 427.04-17.32L427.04-17.32Q429.72-14.36 429.72-10L429.72-10Q429.72-5.64 427.04-2.68L427.04-2.68Q424.36 0.32 419.84 0.32Q415.32 0.32 412.88-3.24L412.88-3.24L412.88 7.92L409.88 7.92L409.88-20L412.88-20ZM419.64-17.60L419.64-17.60Q416.40-17.60 414.52-15.36L414.52-15.36Q412.72-13.24 412.72-10L412.72-10Q412.72-6.76 414.52-4.64L414.52-4.64Q416.40-2.40 419.64-2.40L419.64-2.40Q422.84-2.40 424.84-4.64L424.84-4.64Q426.72-6.76 426.72-10L426.72-10Q426.72-13.24 424.84-15.36L424.84-15.36Q422.84-17.60 419.64-17.60Z M446.56-2.40L446.56-2.40Q450.60-2.40 452.36-5.76L452.36-5.76L455.64-5.76Q454.60-3.04 452.34-1.36Q450.08 0.32 446.52 0.32L446.52 0.32Q442.00 0.32 439.16-2.68L439.16-2.68Q436.40-5.60 436.40-10L436.40-10Q436.40-14.44 439.04-17.32L439.04-17.32Q441.84-20.32 446.32-20.32L446.32-20.32Q450.80-20.32 453.60-17.32L453.60-17.32Q456.24-14.44 456.24-10L456.24-10L456.24-8.80L439.48-8.80Q439.80-6.04 441.68-4.24L441.68-4.24Q443.60-2.40 446.56-2.40ZM446.32-17.60L446.32-17.60Q443.56-17.60 441.68-15.88L441.68-15.88Q439.92-14.24 439.52-11.60L439.52-11.60L453.12-11.60Q452.72-14.24 450.96-15.88L450.96-15.88Q449.08-17.60 446.32-17.60Z M474.28-20.32L474.48-20.32L474.48-17.32L474.12-17.32Q470.88-17.32 468.84-14.72L468.84-14.72Q466.92-12.24 466.92-8.80L466.92-8.80L466.92 0L463.92 0L463.92-20L466.92-20L466.92-15.08Q467.88-18.20 471.08-19.68L471.08-19.68Q472.40-20.32 474.28-20.32L474.28-20.32Z M486.88 0L483.88 0L483.88-17.36L479.80-17.36L479.80-20L483.88-20L483.88-27.16L486.88-27.16L486.88-20L491.48-20L491.48-17.36L486.88-17.36L486.88 0Z M498.76 0L498.76-20L501.76-20L501.76 0L498.76 0ZM498.64-27.28L501.88-27.28L501.88-23.36L498.64-23.36L498.64-27.28Z M525.76-14.64L522.72-14.64Q522.32-17.76 517.70-17.76Q513.08-17.76 513.08-14.88L513.08-14.88Q513.08-13.68 514.06-13.06Q515.04-12.44 516.52-12.04Q518-11.64 519.74-11.30Q521.48-10.96 522.96-10.34Q524.44-9.72 525.42-8.64Q526.40-7.56 526.40-5.68L526.40-5.68Q526.40-2.76 524.20-1.22Q522 0.32 518.24 0.32L518.24 0.32Q514.24 0.32 511.88-1.68L511.88-1.68Q509.72-3.44 509.56-6.28L509.56-6.28L512.68-6.28Q512.96-3.52 515.80-2.56L515.80-2.56Q516.84-2.24 517.86-2.24Q518.88-2.24 519.76-2.36Q520.64-2.48 521.48-2.80L521.48-2.80Q523.40-3.56 523.40-5.40L523.40-5.40Q523.40-6.64 522.42-7.30Q521.44-7.96 519.96-8.38Q518.48-8.80 516.74-9.14Q515-9.48 513.52-10.08Q512.04-10.68 511.06-11.72Q510.08-12.76 510.08-14.60L510.08-14.60Q510.08-17.32 512.06-18.82Q514.04-20.32 517.92-20.32L517.92-20.32Q521.60-20.32 523.72-18.56L523.72-18.56Q525.48-17.08 525.76-14.64L525.76-14.64Z M543.16-2.40L543.16-2.40Q547.20-2.40 548.96-5.76L548.96-5.76L552.24-5.76Q551.20-3.04 548.94-1.36Q546.68 0.32 543.12 0.32L543.12 0.32Q538.60 0.32 535.76-2.68L535.76-2.68Q533-5.60 533-10L533-10Q533-14.44 535.64-17.32L535.64-17.32Q538.44-20.32 542.92-20.32L542.92-20.32Q547.40-20.32 550.20-17.32L550.20-17.32Q552.84-14.44 552.84-10L552.84-10L552.84-8.80L536.08-8.80Q536.40-6.04 538.28-4.24L538.28-4.24Q540.20-2.40 543.16-2.40ZM542.92-17.60L542.92-17.60Q540.16-17.60 538.28-15.88L538.28-15.88Q536.52-14.24 536.12-11.60L536.12-11.60L549.72-11.60Q549.32-14.24 547.56-15.88L547.56-15.88Q545.68-17.60 542.92-17.60Z"/></g>
</svg>
</g><g opacity="1" transform="rotate(0 269.2413 1089.3677)">
<svg width="337.468" height="100" x="269.2413" y="1089.3677" version="1.1" preserveAspectRatio="none" viewBox="1.8 -31.2 106.64 31.6">
  <g transform="matrix(1 0 0 1 0 0)" class="companyName"><path id="id-D6z1nYkh4" d="M18.88-31.20L18.88-31.20Q22.48-31.20 25.60-29.96Q28.72-28.72 31.02-26.56Q33.32-24.40 34.64-21.48Q35.96-18.56 35.96-15.16L35.96-15.16Q35.96-11.92 34.62-9.08Q33.28-6.24 30.98-4.14Q28.68-2.04 25.56-0.82Q22.44 0.40 18.88 0.40L18.88 0.40Q15.32 0.40 12.20-0.82Q9.08-2.04 6.76-4.14Q4.44-6.24 3.12-9.08Q1.80-11.92 1.80-15.16L1.80-15.16Q1.80-18.56 3.12-21.48Q4.44-24.40 6.74-26.56Q9.04-28.72 12.16-29.96Q15.28-31.20 18.88-31.20ZM18.88-2.20L18.88-2.20Q21.20-2.20 23.08-3.10Q24.96-4 26.28-5.66Q27.60-7.32 28.30-9.70Q29-12.08 29-15.04L29-15.04Q29-18.16 28.30-20.66Q27.60-23.16 26.28-24.94Q24.96-26.72 23.08-27.66Q21.20-28.60 18.88-28.60L18.88-28.60Q16.52-28.60 14.66-27.66Q12.80-26.72 11.48-24.94Q10.16-23.16 9.46-20.66Q8.76-18.16 8.76-15.04L8.76-15.04Q8.76-12.08 9.46-9.70Q10.16-7.32 11.48-5.66Q12.80-4 14.66-3.10Q16.52-2.20 18.88-2.20Z M50.04-8.12L50.04-6.20Q50.04-4.64 50.18-3.74Q50.32-2.84 50.76-2.36Q51.20-1.88 52.04-1.74Q52.88-1.60 54.28-1.60L54.28-1.60L54.28 0L40.92 0L40.92-1.60Q42.12-1.68 42.84-1.84Q43.56-2 43.92-2.48Q44.28-2.96 44.38-3.86Q44.48-4.76 44.48-6.28L44.48-6.28L44.48-11.16Q44.48-13.64 44.36-15.12Q44.24-16.60 43.84-17.40Q43.44-18.20 42.70-18.46Q41.96-18.72 40.76-18.72L40.76-18.72L40.76-20.12L48.76-21.60L49.40-17L49.56-17Q50.64-19.12 52.40-20.36Q54.16-21.60 56.12-21.60L56.12-21.60Q57.64-21.60 58.60-20.84Q59.56-20.08 59.56-18.92L59.56-18.92Q59.56-17.64 58.82-16.76Q58.08-15.88 56.80-15.88L56.80-15.88Q56.20-15.88 55.72-16.12Q55.24-16.36 54.86-16.66Q54.48-16.96 54.10-17.22Q53.72-17.48 53.32-17.48L53.32-17.48Q52.56-17.48 51.88-16.48Q51.20-15.48 50.76-13.80L50.76-13.80Q50.44-12.60 50.24-11.10Q50.04-9.60 50.04-8.12L50.04-8.12Z M81.48-4.84L82.52-3.32Q81-1.64 78.74-0.72Q76.48 0.20 73.84 0.20L73.84 0.20Q71.40 0.20 69.40-0.58Q67.40-1.36 65.96-2.76Q64.52-4.16 63.74-6.14Q62.96-8.12 62.96-10.52L62.96-10.52Q62.96-13 63.80-15.04Q64.64-17.08 66.16-18.54Q67.68-20 69.80-20.80Q71.92-21.60 74.48-21.60L74.48-21.60Q76.28-21.60 77.82-21.24Q79.36-20.88 80.46-20.24Q81.56-19.60 82.20-18.74Q82.84-17.88 82.84-16.88L82.84-16.88Q82.84-15.72 82.18-15.04Q81.52-14.36 80.40-14.36L80.40-14.36Q79.48-14.36 78.78-14.84Q78.08-15.32 77.40-16.40L77.40-16.40Q76.80-17.36 76.38-17.92Q75.96-18.48 75.60-18.78Q75.24-19.08 74.88-19.18Q74.52-19.28 74-19.28L74-19.28Q71.68-19.28 70.40-17.12Q69.12-14.96 69.12-11.08L69.12-11.08Q69.12-6.92 70.66-4.68Q72.20-2.44 75.08-2.44L75.08-2.44Q76.72-2.44 78.36-3.06Q80-3.68 81.48-4.84L81.48-4.84Z M99.72-7.60L99.72-11.40Q96.36-9.88 94.66-8.58Q92.96-7.28 92.96-5.88L92.96-5.88Q92.96-4.72 93.60-4.04Q94.24-3.36 95.20-3.36L95.20-3.36Q96.16-3.36 97-3.70Q97.84-4.04 98.44-4.60Q99.04-5.16 99.38-5.94Q99.72-6.72 99.72-7.60L99.72-7.60ZM94.08-11.08L99.72-13.52L99.72-15.20Q99.72-17.52 98.90-18.58Q98.08-19.64 96.36-19.64L96.36-19.64Q95.20-19.64 94.60-19.02Q94-18.40 93.48-16.96L93.48-16.96Q93.12-15.96 92.46-15.40Q91.80-14.84 90.64-14.84L90.64-14.84Q89.52-14.84 88.92-15.52Q88.32-16.20 88.32-17.44L88.32-17.44Q88.32-19.36 90.42-20.48Q92.52-21.60 96.76-21.60L96.76-21.60Q101.24-21.60 103.16-19.98Q105.08-18.36 105.08-14.56L105.08-14.56L105.08-5.80Q105.08-2.40 106.44-2.40L106.44-2.40Q107.20-2.40 107.84-2.92L107.84-2.92L108.44-1.76Q107.88-0.76 106.70-0.18Q105.52 0.40 104.04 0.40L104.04 0.40Q102.20 0.40 101.24-0.72Q100.28-1.84 100.28-3.88L100.28-3.88L100.08-3.88Q98.92-1.80 97.08-0.72Q95.24 0.36 92.88 0.36L92.88 0.36Q90.36 0.36 88.84-1.06Q87.32-2.48 87.32-4.76L87.32-4.76Q87.32-6.52 88.88-8.06Q90.44-9.60 94.08-11.08L94.08-11.08Z"/></g>
</svg>
</g><g opacity="1" transform="rotate(0 353.6083 886.2541)">
<svg width="168.734" height="173.1136" x="353.6083" y="886.2541" version="1.1" preserveAspectRatio="none" viewBox="0 0 77.44 79.45">
  <g transform="matrix(1 0 0 1 0 0)" class="icon1"><title>tattoo</title><g data-name="Layer 2"><g><path d="M77.27,55.35a27,27,0,0,0-.85-10,.49.49,0,0,0,0-.11,134.27,134.27,0,0,0-4.86-14.9C68.21,21.44,66.6,14.2,67,9.88a.59.59,0,0,0-.3-.6.64.64,0,0,0-.74.13c-.89.73-3.81,5.8-1,15.69a1.31,1.31,0,0,0-.27.21c-1.14,1.14-.93,4.85.6,11a2.44,2.44,0,0,0-1.23.81c-.91,1.1-1.07,3-.48,5.71a1.75,1.75,0,0,0-1.15.3c-.71.5-1,1.52-.9,3.09a2.25,2.25,0,0,0-1.75.17,2.79,2.79,0,0,0-1.07,2.49,3.74,3.74,0,0,0-2.7,1.18,3.21,3.21,0,0,0-.69,2c-.3-.4-.54-.71-.68-.88-.79-1-6.45-6.81-9.35-7.63-1-2.74-9.39-27-7.24-43.06a.5.5,0,0,0-.4-.56.5.5,0,0,0-.58.38c0,.14-3.27,14.22-.47,33.57a.9.9,0,0,0-.27.11c-.57.33-.78,1.22-.65,2.81-1.66-1.67-6.79-8.12-21.42-33a.5.5,0,0,0-.89.45c.12.28,12,27.88,21.59,40.4a30.25,30.25,0,0,1,2.87,3.52A26.84,26.84,0,0,0,40,60.69a2.55,2.55,0,0,0-.79,1c-2.13-1-4.42.37-5.23,1a7.33,7.33,0,0,0-8.2-.14c-3.38-1.75-6.07-2.28-8-1.58a3.53,3.53,0,0,0-1.67,1.21C6.54,58.26.52,61.32.27,61.46a.5.5,0,0,0,.21.94c11.42.57,18,5,24.91,9.61a85.26,85.26,0,0,0,9.1,5.55,16.42,16.42,0,0,0,7.44,1.9,14.86,14.86,0,0,0,10.24-4.32c2,2.2,14.8,4,18.08,2.86,2.43-.83,5,1.21,5,1.23a.5.5,0,0,0,.77-.6L73.81,74a4.11,4.11,0,0,0,.32-1.93c-.14-2.89-3.44-6.31-6.49-8.22C70.13,62.84,76.7,59.65,77.27,55.35ZM65.95,11.21c0,4.49,1.6,11.31,4.65,19.46a144.62,144.62,0,0,1,4.62,14,1.63,1.63,0,0,0-1,.2,1.76,1.76,0,0,0-.67.72L66.09,25.3C63.84,17.8,65,13.15,65.95,11.21Zm-.61,14.93,7.81,21.2c0,.25,0,.51,0,.79A8.37,8.37,0,0,1,72,53l-5.6-16.35C64.45,28.88,65,26.73,65.34,26.14Zm-.49,11.67a1.41,1.41,0,0,1,.76-.5l5.69,16.61a4,4,0,0,1-.95.75c-.43.22-.83.45-1.2.69l-4.38-12C63.88,40,64.32,38.47,64.85,37.81ZM63,44a1,1,0,0,1,.86-.05l4.4,12a10.66,10.66,0,0,0-1.75,1.63L62.64,46.91C62.35,44.75,62.82,44.15,63,44Zm-2.7,3.29a1.68,1.68,0,0,1,1.41.1l4.1,11.17a7.37,7.37,0,0,0-1.2,3.82l-.29-.18-4.6-12.86C59.72,48.25,59.92,47.54,60.34,47.29Zm-3.52,3.45a2.83,2.83,0,0,1,2.08-.82l4,11.06a63.38,63.38,0,0,1-6.27-7.23A3.31,3.31,0,0,1,56.82,50.74Zm-18-1.08a31.54,31.54,0,0,1,1.79,3.2,28.19,28.19,0,0,0,4.25,6.58,2.7,2.7,0,0,0-1.37,1.28,4.35,4.35,0,0,0-2.61-.43A25.72,25.72,0,0,1,38.83,49.66Zm7.08,10.58a6.26,6.26,0,0,1,3.39,1.4h0l0,0c.06,0,6,3.16,7.8,5.95a14.11,14.11,0,0,0-3.24,1c-1.87-2.3-8-6.42-9.54-7.41a1.7,1.7,0,0,1,.91-.86,1.89,1.89,0,0,1,.59-.1Zm12.3,7.24c-1.49-2.78-6.61-5.72-8-6.5a.94.94,0,0,1,.45-.46c.42-.19,1.47-.29,3.8,1.29a33.51,33.51,0,0,1,6.46,5.69A12.76,12.76,0,0,0,58.21,67.49Zm-7.3,2.88c-2.09-2.84-9.24-7.22-10.86-8.2a1.49,1.49,0,0,1,.69-.78c.63-.32,1.59-.16,2.79.46.32.21,7.35,4.79,9.47,7.22A16.47,16.47,0,0,0,50.91,70.36ZM39.16,62.8h0l0,0C39.29,62.88,48,68,50.12,71c-.47.38-.93.79-1.4,1.25a5.11,5.11,0,0,1-1.21.88L34.8,63.24C35.7,62.65,37.6,61.7,39.16,62.8Zm-5.48.83,12.79,9.93a8.72,8.72,0,0,1-4.22.34L26.68,63.07A6.41,6.41,0,0,1,33.68,63.63ZM18.13,61.81c1.17-.41,3.4-.45,7.4,1.67L40.35,73.79a5.73,5.73,0,0,0-2.82.9C33.08,69.5,20,63.75,17,62.5A2.67,2.67,0,0,1,18.13,61.81ZM34.94,76.66a84.8,84.8,0,0,1-9-5.48C19.69,67,13.25,62.68,3,61.59c2.56-.57,7.14-.89,13.05,1.59h0c.16.07,15.88,6.59,20.66,12.13A5.32,5.32,0,0,0,35.58,77Zm1.57.71h0S37.73,74.2,42,74.87c4.92.78,7.37-1.86,7.45-2A16.32,16.32,0,0,1,54,69.66h0a13.09,13.09,0,0,1,3.86-1.13h0l.12,0a11.82,11.82,0,0,1,2.26,0c-2.24,1-6.18,2.88-8.22,5.29h0A13.43,13.43,0,0,1,36.5,77.36Zm37.85.15A5.85,5.85,0,0,0,69.92,77c-3,1-13.34-.52-16.4-2.14-.6-.32-.67-.51-.66-.51h0c2.54-3,8.57-5.33,9.37-5.62,4.33.13,5.93,1.21,6.51,2.09a2.05,2.05,0,0,1,.34,1.33,1.63,1.63,0,0,0-.86.17,1.35,1.35,0,0,0-.82,1.39,2.34,2.34,0,0,0,1.82,1.86,6.39,6.39,0,0,0,1.5.18,3.67,3.67,0,0,0,2.35-.73l.08-.08Zm-1.22-5.34a2.43,2.43,0,0,1-.71,2.11,3.58,3.58,0,0,1-3,.35,1.36,1.36,0,0,1-1.07-1,.36.36,0,0,1,.25-.39c.28-.13.4-.08.45-.06l0,0a1.22,1.22,0,0,1,.39.73.5.5,0,0,0,1-.16A2.52,2.52,0,0,0,70,72.7a3.07,3.07,0,0,0-.42-2.37c-1-1.56-3.44-2.41-7.18-2.55A33,33,0,0,0,55,61c-2.09-1.41-3.7-1.86-4.78-1.36a1.9,1.9,0,0,0-.88.84,6.72,6.72,0,0,0-3.26-1.22,25.46,25.46,0,0,1-4.54-6.82,33.42,33.42,0,0,0-5.75-8.35C29.55,35.93,22.28,21.22,18,12c6.85,11.38,15.13,24.51,17.9,26.19l.37,2.1a.5.5,0,0,0,.49.41h.09a.5.5,0,0,0,.4-.58l-.41-2.3h0c-.36-2.5,0-2.92,0-2.93l.07,0c1.73,1.91,3.61,4.31,3.65,4.91a.5.5,0,0,0,.5.46h0a.5.5,0,0,0,.46-.53c-.08-1.19-2.85-4.35-3.85-5.45a108.43,108.43,0,0,1-.87-24.71c.89,16.05,7.56,34.37,7.64,34.59a.5.5,0,0,0,.39.32c2.21.37,7.9,5.94,9,7.34.16.19.43.56.79,1l1,1.35h0c2.09,2.73,5.36,6.8,7.91,8.63l0,0a6.06,6.06,0,0,0,1.36.76C68.45,64.94,73,69.28,73.13,72.17Zm-6.6-8.9c-.3-.15-.59-.29-.87-.4-.08-1,0-4.64,5.13-7.3.14-.07,3.54-1.83,3.34-7.47-.06-1.82.38-2.29.58-2.4a.9.9,0,0,1,.78,0,24.75,24.75,0,0,1,.78,9.49C75.71,59.47,67.84,62.76,66.54,63.27Z"></path></g></g></g>
</svg>
</g></svg></svg>