<svg version="1.1" preserveAspectRatio="none" xmlns="http://www.w3.org/2000/svg" width="500" height="500" viewBox="0 0 500 500"><rect width="100%" height="100%" fill="#F3F3F3" fill-opacity="1"/><svg viewBox="553.6695 703.4661 392.6607 306.7129" width="333" height="260.1110722310636" x="83.5px" y="119.9445px" xmlns="http://www.w3.org/2000/svg" xmlns:xlink="http://www.w3.org/1999/xlink" preserveAspectRatio="none"><defs></defs><style>.companyName {fill:#333258;fill-opacity:1;}.icon1 {fill:#333258;fill-opacity:1;}.icon2 {fill:#F36958;fill-opacity:1;}.icon3 {fill:#8C94CC;fill-opacity:1;}.icon3-str {stroke:#8C94CC;stroke-opacity:1;}.text {fill:#333258;fill-opacity:1;}</style><g opacity="1" transform="rotate(0 553.9153 986.179)">
<svg width="392.1692" height="24" x="553.9153" y="986.179" version="1.1" preserveAspectRatio="none" viewBox="-0.16 -30.28 621.6 38.040000000000006">
  <g transform="matrix(1 0 0 1 0 0)" class="text"><path id="id-6izo4zJp26" d="M26.04-28L14.92-9.68L14.92 0L10.96 0L10.96-9.76L-0.16-28L4.12-28L13.08-13.24L22.08-28L26.04-28Z M40.20 0.24Q37.04 0.24 34.52-1.16Q32-2.56 30.58-5.02Q29.16-7.48 29.16-10.60L29.16-10.60Q29.16-13.72 30.58-16.18Q32-18.64 34.52-20.02Q37.04-21.40 40.20-21.40L40.20-21.40Q43.36-21.40 45.86-20.02Q48.36-18.64 49.78-16.18Q51.20-13.72 51.20-10.60L51.20-10.60Q51.20-7.48 49.78-5.02Q48.36-2.56 45.86-1.16Q43.36 0.24 40.20 0.24L40.20 0.24ZM40.20-3.12Q42.24-3.12 43.86-4.06Q45.48-5 46.40-6.70Q47.32-8.40 47.32-10.60L47.32-10.60Q47.32-12.80 46.40-14.50Q45.48-16.20 43.86-17.12Q42.24-18.04 40.20-18.04L40.20-18.04Q38.16-18.04 36.54-17.12Q34.92-16.20 33.98-14.50Q33.04-12.80 33.04-10.60L33.04-10.60Q33.04-8.40 33.98-6.70Q34.92-5 36.54-4.06Q38.16-3.12 40.20-3.12L40.20-3.12Z M76.44-21.20L80.28-21.20L80.28 0L76.64 0L76.64-3.20Q75.48-1.56 73.58-0.66Q71.68 0.24 69.44 0.24L69.44 0.24Q65.20 0.24 62.76-2.10Q60.32-4.44 60.32-9L60.32-9L60.32-21.20L64.16-21.20L64.16-9.44Q64.16-6.36 65.64-4.78Q67.12-3.20 69.88-3.20L69.88-3.20Q72.92-3.20 74.68-5.04Q76.44-6.88 76.44-10.24L76.44-10.24L76.44-21.20Z M95.28-17.64Q96.28-19.48 98.24-20.44Q100.20-21.40 103.00-21.40L103.00-21.40L103.00-17.68Q102.68-17.72 102.12-17.72L102.12-17.72Q99.00-17.72 97.22-15.86Q95.44-14 95.44-10.56L95.44-10.56L95.44 0L91.60 0L91.60-21.20L95.28-21.20L95.28-17.64Z M147.64-28L151.64-28L139.36 0L135.40 0L123.08-28L127.40-28L137.48-5L147.64-28Z M158.68 0L158.68-21.20L162.52-21.20L162.52 0L158.68 0ZM160.60-25.28Q159.48-25.28 158.74-26Q158.00-26.72 158.00-27.76L158.00-27.76Q158.00-28.80 158.74-29.54Q159.48-30.28 160.60-30.28L160.60-30.28Q161.72-30.28 162.46-29.58Q163.20-28.88 163.20-27.84L163.20-27.84Q163.20-26.76 162.46-26.02Q161.72-25.28 160.60-25.28L160.60-25.28Z M179.92 0.24Q177.32 0.24 174.92-0.46Q172.52-1.16 171.16-2.24L171.16-2.24L172.76-5.28Q174.16-4.28 176.16-3.68Q178.16-3.08 180.20-3.08L180.20-3.08Q185.24-3.08 185.24-5.96L185.24-5.96Q185.24-6.92 184.56-7.48Q183.88-8.04 182.86-8.30Q181.84-8.56 179.96-8.88L179.96-8.88Q177.40-9.28 175.78-9.80Q174.16-10.32 173.00-11.56Q171.84-12.80 171.84-15.04L171.84-15.04Q171.84-17.92 174.24-19.66Q176.64-21.40 180.68-21.40L180.68-21.40Q182.80-21.40 184.92-20.88Q187.04-20.36 188.40-19.48L188.40-19.48L186.76-16.44Q184.16-18.12 180.64-18.12L180.64-18.12Q178.20-18.12 176.92-17.32Q175.64-16.52 175.64-15.20L175.64-15.20Q175.64-14.16 176.36-13.56Q177.08-12.96 178.14-12.68Q179.20-12.40 181.12-12.04L181.12-12.04Q183.68-11.60 185.26-11.10Q186.84-10.60 187.96-9.40Q189.08-8.20 189.08-6.04L189.08-6.04Q189.08-3.16 186.62-1.46Q184.16 0.24 179.92 0.24L179.92 0.24Z M197.88 0L197.88-21.20L201.72-21.20L201.72 0L197.88 0ZM199.80-25.28Q198.68-25.28 197.94-26Q197.20-26.72 197.20-27.76L197.20-27.76Q197.20-28.80 197.94-29.54Q198.68-30.28 199.80-30.28L199.80-30.28Q200.92-30.28 201.66-29.58Q202.40-28.88 202.40-27.84L202.40-27.84Q202.40-26.76 201.66-26.02Q200.92-25.28 199.80-25.28L199.80-25.28Z M222.12 0.24Q218.96 0.24 216.44-1.16Q213.92-2.56 212.50-5.02Q211.08-7.48 211.08-10.60L211.08-10.60Q211.08-13.72 212.50-16.18Q213.92-18.64 216.44-20.02Q218.96-21.40 222.12-21.40L222.12-21.40Q225.28-21.40 227.78-20.02Q230.28-18.64 231.70-16.18Q233.12-13.72 233.12-10.60L233.12-10.60Q233.12-7.48 231.70-5.02Q230.28-2.56 227.78-1.16Q225.28 0.24 222.12 0.24L222.12 0.24ZM222.12-3.12Q224.16-3.12 225.78-4.06Q227.40-5 228.32-6.70Q229.24-8.40 229.24-10.60L229.24-10.60Q229.24-12.80 228.32-14.50Q227.40-16.20 225.78-17.12Q224.16-18.04 222.12-18.04L222.12-18.04Q220.08-18.04 218.46-17.12Q216.84-16.20 215.90-14.50Q214.96-12.80 214.96-10.60L214.96-10.60Q214.96-8.40 215.90-6.70Q216.84-5 218.46-4.06Q220.08-3.12 222.12-3.12L222.12-3.12Z M253.76-21.40Q257.80-21.40 260.18-19.06Q262.56-16.72 262.56-12.20L262.56-12.20L262.56 0L258.72 0L258.72-11.76Q258.72-14.84 257.24-16.40Q255.76-17.96 253-17.96L253-17.96Q249.88-17.96 248.08-16.14Q246.28-14.32 246.28-10.92L246.28-10.92L246.28 0L242.44 0L242.44-21.20L246.12-21.20L246.12-18Q247.28-19.64 249.26-20.52Q251.24-21.40 253.76-21.40L253.76-21.40Z M274.64-5.24Q275.76-5.24 276.50-4.46Q277.24-3.68 277.24-2.52L277.24-2.52Q277.24-1.92 277.10-1.36Q276.96-0.80 276.56 0.36L276.56 0.36L274.68 5.92L272.16 5.92L273.64-0.04Q272.88-0.32 272.42-0.98Q271.96-1.64 271.96-2.52L271.96-2.52Q271.96-3.72 272.72-4.48Q273.48-5.24 274.64-5.24L274.64-5.24Z M314.72 0.32Q310.48 0.32 307.08-1.54Q303.68-3.40 301.74-6.68Q299.80-9.96 299.80-14L299.80-14Q299.80-18.04 301.74-21.32Q303.68-24.60 307.08-26.46Q310.48-28.32 314.72-28.32L314.72-28.32Q318.92-28.32 322.32-26.46Q325.72-24.60 327.64-21.34Q329.56-18.08 329.56-14L329.56-14Q329.56-9.92 327.64-6.66Q325.72-3.40 322.32-1.54Q318.92 0.32 314.72 0.32L314.72 0.32ZM314.72-3.24Q317.80-3.24 320.26-4.64Q322.72-6.04 324.14-8.50Q325.56-10.96 325.56-14L325.56-14Q325.56-17.04 324.14-19.50Q322.72-21.96 320.26-23.36Q317.80-24.76 314.72-24.76L314.72-24.76Q311.64-24.76 309.14-23.36Q306.64-21.96 305.22-19.50Q303.80-17.04 303.80-14L303.80-14Q303.80-10.96 305.22-8.50Q306.64-6.04 309.14-4.64Q311.64-3.24 314.72-3.24L314.72-3.24Z M355.04-21.20L358.88-21.20L358.88 0L355.24 0L355.24-3.20Q354.08-1.56 352.18-0.66Q350.28 0.24 348.04 0.24L348.04 0.24Q343.80 0.24 341.36-2.10Q338.92-4.44 338.92-9L338.92-9L338.92-21.20L342.76-21.20L342.76-9.44Q342.76-6.36 344.24-4.78Q345.72-3.20 348.48-3.20L348.48-3.20Q351.52-3.20 353.28-5.04Q355.04-6.88 355.04-10.24L355.04-10.24L355.04-21.20Z M373.88-17.64Q374.88-19.48 376.84-20.44Q378.80-21.40 381.60-21.40L381.60-21.40L381.60-17.68Q381.28-17.72 380.72-17.72L380.72-17.72Q377.60-17.72 375.82-15.86Q374.04-14 374.04-10.56L374.04-10.56L374.04 0L370.20 0L370.20-21.20L373.88-21.20L373.88-17.64Z M409.92-3.48L426.24-3.48L426.24 0L405.92 0L405.92-28L425.68-28L425.68-24.52L409.92-24.52L409.92-15.92L423.96-15.92L423.96-12.52L409.92-12.52L409.92-3.48Z M453.56 0L449.20 0L443.08-8.12L436.88 0L432.60 0L440.96-10.84L433.00-21.20L437.28-21.20L443.12-13.56L448.92-21.20L453.12-21.20L445.12-10.84L453.56 0Z M473.00-21.40Q476.08-21.40 478.52-20.04Q480.96-18.68 482.34-16.24Q483.72-13.80 483.72-10.60L483.72-10.60Q483.72-7.40 482.34-4.94Q480.96-2.48 478.52-1.12Q476.08 0.24 473.00 0.24L473.00 0.24Q470.72 0.24 468.82-0.64Q466.92-1.52 465.60-3.20L465.60-3.20L465.60 7.76L461.76 7.76L461.76-21.20L465.44-21.20L465.44-17.84Q466.72-19.60 468.68-20.50Q470.64-21.40 473.00-21.40L473.00-21.40ZM472.68-3.12Q474.72-3.12 476.34-4.06Q477.96-5 478.90-6.70Q479.84-8.40 479.84-10.60L479.84-10.60Q479.84-12.80 478.90-14.50Q477.96-16.20 476.34-17.12Q474.72-18.04 472.68-18.04L472.68-18.04Q470.68-18.04 469.06-17.10Q467.44-16.16 466.50-14.48Q465.56-12.80 465.56-10.60L465.56-10.60Q465.56-8.40 466.48-6.70Q467.40-5 469.04-4.06Q470.68-3.12 472.68-3.12L472.68-3.12Z M512.20-10.48Q512.20-10.04 512.12-9.32L512.12-9.32L494.92-9.32Q495.28-6.52 497.38-4.82Q499.48-3.12 502.60-3.12L502.60-3.12Q506.40-3.12 508.72-5.68L508.72-5.68L510.84-3.20Q509.40-1.52 507.26-0.64Q505.12 0.24 502.48 0.24L502.48 0.24Q499.12 0.24 496.52-1.14Q493.92-2.52 492.50-5Q491.08-7.48 491.08-10.60L491.08-10.60Q491.08-13.68 492.46-16.16Q493.84-18.64 496.26-20.02Q498.68-21.40 501.72-21.40L501.72-21.40Q504.76-21.40 507.14-20.02Q509.52-18.64 510.86-16.16Q512.20-13.68 512.20-10.48L512.20-10.48ZM501.72-18.16Q498.96-18.16 497.10-16.48Q495.24-14.80 494.92-12.08L494.92-12.08L508.52-12.08Q508.20-14.76 506.34-16.46Q504.48-18.16 501.72-18.16L501.72-18.16Z M525.20-17.64Q526.20-19.48 528.16-20.44Q530.12-21.40 532.92-21.40L532.92-21.40L532.92-17.68Q532.60-17.72 532.04-17.72L532.04-17.72Q528.92-17.72 527.14-15.86Q525.36-14 525.36-10.56L525.36-10.56L525.36 0L521.52 0L521.52-21.20L525.20-21.20L525.20-17.64Z M553.24-4L554.44-1.24Q553.60-0.52 552.36-0.14Q551.12 0.24 549.80 0.24L549.80 0.24Q546.60 0.24 544.84-1.48Q543.08-3.20 543.08-6.40L543.08-6.40L543.08-18.04L539.48-18.04L539.48-21.20L543.08-21.20L543.08-25.84L546.92-25.84L546.92-21.20L553-21.20L553-18.04L546.92-18.04L546.92-6.56Q546.92-4.84 547.78-3.92Q548.64-3 550.24-3L550.24-3Q552-3 553.24-4L553.24-4Z M563.08 0L563.08-21.20L566.92-21.20L566.92 0L563.08 0ZM565.00-25.28Q563.88-25.28 563.14-26Q562.40-26.72 562.40-27.76L562.40-27.76Q562.40-28.80 563.14-29.54Q563.88-30.28 565.00-30.28L565.00-30.28Q566.12-30.28 566.86-29.58Q567.60-28.88 567.60-27.84L567.60-27.84Q567.60-26.76 566.86-26.02Q566.12-25.28 565.00-25.28L565.00-25.28Z M584.32 0.24Q581.72 0.24 579.32-0.46Q576.92-1.16 575.56-2.24L575.56-2.24L577.16-5.28Q578.56-4.28 580.56-3.68Q582.56-3.08 584.60-3.08L584.60-3.08Q589.64-3.08 589.64-5.96L589.64-5.96Q589.64-6.92 588.96-7.48Q588.28-8.04 587.26-8.30Q586.24-8.56 584.36-8.88L584.36-8.88Q581.80-9.28 580.18-9.80Q578.56-10.32 577.40-11.56Q576.24-12.80 576.24-15.04L576.24-15.04Q576.24-17.92 578.64-19.66Q581.04-21.40 585.08-21.40L585.08-21.40Q587.20-21.40 589.32-20.88Q591.44-20.36 592.80-19.48L592.80-19.48L591.16-16.44Q588.56-18.12 585.04-18.12L585.04-18.12Q582.60-18.12 581.32-17.32Q580.04-16.52 580.04-15.20L580.04-15.20Q580.04-14.16 580.76-13.56Q581.48-12.96 582.54-12.68Q583.60-12.40 585.52-12.04L585.52-12.04Q588.08-11.60 589.66-11.10Q591.24-10.60 592.36-9.40Q593.48-8.20 593.48-6.04L593.48-6.04Q593.48-3.16 591.02-1.46Q588.56 0.24 584.32 0.24L584.32 0.24Z M621.44-10.48Q621.44-10.04 621.36-9.32L621.36-9.32L604.16-9.32Q604.52-6.52 606.62-4.82Q608.72-3.12 611.84-3.12L611.84-3.12Q615.64-3.12 617.96-5.68L617.96-5.68L620.08-3.20Q618.64-1.52 616.50-0.64Q614.36 0.24 611.72 0.24L611.72 0.24Q608.36 0.24 605.76-1.14Q603.16-2.52 601.74-5Q600.32-7.48 600.32-10.60L600.32-10.60Q600.32-13.68 601.70-16.16Q603.08-18.64 605.50-20.02Q607.92-21.40 610.96-21.40L610.96-21.40Q614.00-21.40 616.38-20.02Q618.76-18.64 620.10-16.16Q621.44-13.68 621.44-10.48L621.44-10.48ZM610.96-18.16Q608.20-18.16 606.34-16.48Q604.48-14.80 604.16-12.08L604.16-12.08L617.76-12.08Q617.44-14.76 615.58-16.46Q613.72-18.16 610.96-18.16L610.96-18.16Z"/></g>
</svg>
</g><g opacity="1" transform="rotate(0 553.6695 844.179)">
<svg width="392.6607" height="120" x="553.6695" y="844.179" version="1.1" preserveAspectRatio="none" viewBox="2.4 -31.64 104.83999999999999 32.04">
  <g transform="matrix(1 0 0 1 0 0)" class="companyName"><path id="id-D6z1nYkh4" d="M18.44-31.64Q22.92-31.64 26.58-29.54Q30.24-27.44 32.34-23.78Q34.44-20.12 34.44-15.64L34.44-15.64Q34.44-11.12 32.34-7.46Q30.24-3.80 26.58-1.70Q22.92 0.40 18.44 0.40L18.44 0.40Q13.92 0.40 10.26-1.70Q6.60-3.80 4.50-7.46Q2.40-11.12 2.40-15.64L2.40-15.64Q2.40-20.12 4.50-23.78Q6.60-27.44 10.26-29.54Q13.92-31.64 18.44-31.64L18.44-31.64ZM18.44-29.24Q14.60-29.24 11.48-27.46Q8.36-25.68 6.58-22.56Q4.80-19.44 4.80-15.64L4.80-15.64Q4.80-11.80 6.58-8.68Q8.36-5.56 11.48-3.78Q14.60-2 18.44-2L18.44-2Q22.24-2 25.36-3.78Q28.48-5.56 30.26-8.68Q32.04-11.80 32.04-15.64L32.04-15.64Q32.04-19.44 30.26-22.56Q28.48-25.68 25.36-27.46Q22.24-29.24 18.44-29.24L18.44-29.24Z M51.72-22.12Q54.76-22.12 54.76-20.80L54.76-20.80Q54.76-20.60 54.72-20.48L54.72-20.48Q54.60-20.04 54.34-19.86Q54.08-19.68 53.64-19.68L53.64-19.68Q53.28-19.68 52.70-19.76Q52.12-19.84 51.72-19.84L51.72-19.84Q49.72-19.84 48.16-19Q46.60-18.16 45.72-16.68Q44.84-15.20 44.84-13.36L44.84-13.36L44.84-1.20Q44.84-0.68 44.52-0.34Q44.20 0 43.64 0L43.64 0Q43.12 0 42.78-0.34Q42.44-0.68 42.44-1.20L42.44-1.20L42.44-20.68Q42.44-21.24 42.78-21.56Q43.12-21.88 43.64-21.88L43.64-21.88Q44.20-21.88 44.52-21.56Q44.84-21.24 44.84-20.68L44.84-20.68L44.84-18.20Q46-20.04 47.80-21.08Q49.60-22.12 51.72-22.12L51.72-22.12Z M69.44-22.08Q72-22.08 74.12-21.08Q76.24-20.08 77.80-18.12L77.80-18.12Q78.08-17.72 78.08-17.44L78.08-17.44Q78.08-16.88 77.52-16.56L77.52-16.56Q77.24-16.32 76.88-16.32L76.88-16.32Q76.32-16.32 75.96-16.80L75.96-16.80Q73.40-19.84 69.44-19.84L69.44-19.84Q67.12-19.84 65.32-18.70Q63.52-17.56 62.54-15.52Q61.56-13.48 61.56-10.92L61.56-10.92Q61.56-8.40 62.64-6.36Q63.72-4.32 65.64-3.16Q67.56-2 70.04-2L70.04-2Q73.56-2 75.68-3.96L75.68-3.96Q76.04-4.32 76.52-4.32L76.52-4.32Q76.96-4.32 77.24-4.04L77.24-4.04Q77.64-3.68 77.64-3.16L77.64-3.16Q77.64-2.72 77.32-2.44L77.32-2.44Q75.92-1.16 74.04-0.46Q72.16 0.24 70.04 0.24L70.04 0.24Q66.96 0.24 64.48-1.22Q62-2.68 60.58-5.24Q59.16-7.80 59.16-10.92L59.16-10.92Q59.16-14.08 60.48-16.62Q61.80-19.16 64.16-20.62Q66.52-22.08 69.44-22.08L69.44-22.08Z M96.08-22.12Q99.20-22.12 101.76-20.66Q104.32-19.20 105.78-16.64Q107.24-14.08 107.24-10.92L107.24-10.92L107.24-1.20Q107.24-0.68 106.92-0.34Q106.60 0 106.04 0L106.04 0Q105.52 0 105.18-0.34Q104.84-0.68 104.84-1.20L104.84-1.20L104.84-4.32Q103.52-2.20 101.22-0.98Q98.92 0.24 96.08 0.24L96.08 0.24Q92.92 0.24 90.36-1.22Q87.80-2.68 86.34-5.24Q84.88-7.80 84.88-10.92L84.88-10.92Q84.88-14.08 86.34-16.64Q87.80-19.20 90.36-20.66Q92.92-22.12 96.08-22.12L96.08-22.12ZM96.08-2Q98.56-2 100.56-3.16Q102.56-4.32 103.70-6.36Q104.84-8.40 104.84-10.92L104.84-10.92Q104.84-13.44 103.70-15.48Q102.56-17.52 100.56-18.70Q98.56-19.88 96.08-19.88L96.08-19.88Q93.60-19.88 91.60-18.70Q89.60-17.52 88.44-15.48Q87.28-13.44 87.28-10.92L87.28-10.92Q87.28-8.40 88.44-6.36Q89.60-4.32 91.60-3.16Q93.60-2 96.08-2L96.08-2Z"/></g>
</svg>
</g><g opacity="1" transform="rotate(0 710.7337 703.4661)">
<svg width="78.5323" height="100.7129" x="710.7337" y="703.4661" version="1.1" preserveAspectRatio="none" viewBox="34.5 16 131 168">
  <g transform="matrix(1 0 0 1 0 0)"><g><path d="M100 130.8c-24.5 0-36.9-8.7-48.9-17.2-5.1-3.6-10.3-7.2-16.6-10.2v1.9c6.6 3.1 12.1 6.9 17.5 10.7 11.8 8.3 24 16.9 48 16.9s36.2-8.6 48-16.9c5.4-3.8 10.9-7.6 17.5-10.7v-1.9c-6.2 3-11.4 6.6-16.6 10.2-12 8.5-24.4 17.2-48.9 17.2z" data-color="1" class="icon1"></path><path d="M100 127.2c-24.5 0-37-8.7-49-17.2-5.3-3.7-10.5-7.3-16.5-10.3v1.9c6.6 3.1 12.1 6.9 17.5 10.7 11.8 8.3 24 16.8 48 16.8s36.2-8.6 48-16.8c5.4-3.8 10.9-7.6 17.5-10.7v-1.9c-6.1 2.9-11.2 6.6-16.5 10.3-12 8.4-24.5 17.2-49 17.2z" data-color="1" class="icon1"></path><path d="M100 119.8c-24.5 0-37-8.7-49-17.2-5.3-3.7-10.4-7.3-16.5-10.2V94c6.6 3.1 12.1 6.9 17.6 10.7 12.3 8.7 24 16.8 47.9 16.8s35.6-8.2 47.9-16.8c5.4-3.8 10.9-7.7 17.6-10.7v-1.6c-6 2.9-11.2 6.5-16.5 10.2-12 8.5-24.5 17.2-49 17.2z" data-color="1" class="icon1"></path><path d="M100 138.2c-24.5 0-36.9-8.7-48.9-17.1-5.1-3.6-10.4-7.3-16.6-10.3v2.1c6.6 3.1 12 6.9 17.4 10.7 11.8 8.3 24.1 16.9 48.1 16.9s36.2-8.6 48.1-16.9c5.4-3.8 10.8-7.6 17.4-10.7v-2.1c-6.2 3-11.5 6.6-16.6 10.3-12 8.4-24.4 17.1-48.9 17.1z" data-color="1" class="icon1"></path><path d="M100 123.5c-24.5 0-37-8.7-49-17.2-5.3-3.7-10.4-7.3-16.5-10.2v1.7c6.6 3.1 12.1 6.9 17.5 10.7 12.3 8.7 24 16.8 48 16.8s35.6-8.2 48-16.8c5.4-3.8 10.9-7.6 17.5-10.7v-1.7c-6.1 2.9-11.2 6.5-16.5 10.2-12 8.5-24.5 17.2-49 17.2z" data-color="1" class="icon1"></path><path d="M100 152.8c-24.4 0-36.8-8.7-48.8-17.1-5.2-3.6-10.4-7.3-16.7-10.3v2.6c6.5 3.1 12 6.9 17.3 10.6 11.9 8.3 24.1 16.9 48.2 16.9s36.3-8.6 48.2-16.9c5.3-3.7 10.8-7.6 17.3-10.6v-2.6c-6.3 3-11.5 6.7-16.7 10.3-12 8.4-24.4 17.1-48.8 17.1z" data-color="1" class="icon1"></path><path d="M100 141.8c-24.5 0-36.9-8.7-48.9-17.1-5.2-3.6-10.4-7.3-16.6-10.3v2.2c6.6 3.1 12 6.9 17.4 10.7 11.8 8.3 24.1 16.9 48.1 16.9s36.3-8.6 48.1-16.9c5.4-3.8 10.8-7.6 17.4-10.7v-2.2c-6.2 3-11.5 6.7-16.6 10.3-12 8.4-24.4 17.1-48.9 17.1z" data-color="1" class="icon1"></path><path d="M100 149.2c-24.4 0-36.8-8.7-48.8-17.1-5.2-3.6-10.4-7.3-16.7-10.3v2.4c6.6 3.1 12 6.9 17.3 10.6 11.8 8.3 24.1 16.9 48.2 16.9s36.3-8.6 48.2-16.9c5.4-3.8 10.8-7.6 17.3-10.6v-2.4c-6.3 3-11.5 6.7-16.7 10.3-12 8.4-24.4 17.1-48.8 17.1z" data-color="1" class="icon1"></path><path d="M34.5 16v32.9c6.8 3.1 12.4 7 17.9 10.9 12.3 8.6 23.8 16.7 47.6 16.7s35.3-8.1 47.6-16.7c5.5-3.9 11.1-7.8 17.9-10.9V16h-131z" data-color="1" class="icon1"></path><path d="M100 116.2c-24.6 0-37-8.7-49.1-17.2-5.3-3.7-10.4-7.3-16.4-10.2v1.5c6.7 3.1 12.2 7 17.6 10.8 12.3 8.7 24 16.8 47.9 16.8s35.6-8.2 47.9-16.8c5.4-3.8 10.9-7.7 17.6-10.8v-1.5c-6 2.9-11.2 6.5-16.4 10.2-12.1 8.4-24.5 17.2-49.1 17.2z" data-color="1" class="icon1"></path><path d="M100 145.5c-24.4 0-36.8-8.7-48.8-17.1-5.2-3.6-10.4-7.3-16.7-10.3v2.3c6.6 3.1 12 6.9 17.4 10.6 11.8 8.4 24.1 17 48.1 17s36.3-8.6 48.1-16.9c5.4-3.8 10.8-7.6 17.4-10.6v-2.3c-6.3 3-11.5 6.7-16.7 10.3-12 8.3-24.4 17-48.8 17z" data-color="1" class="icon1"></path><path d="M100 134.5c-24.5 0-36.9-8.7-48.9-17.1-5.1-3.6-10.4-7.3-16.6-10.2v2c6.6 3.1 12.1 6.9 17.5 10.7 11.8 8.3 24 16.9 48 16.9s36.2-8.6 48-16.9c5.4-3.8 10.9-7.6 17.5-10.7v-2c-6.2 3-11.4 6.6-16.6 10.2-12 8.4-24.4 17.1-48.9 17.1z" data-color="1" class="icon1"></path><path d="M100 90.5c-24.7 0-37.2-8.8-49.3-17.2-5.2-3.7-10.3-7.2-16.2-10.1v.8c6.7 3.1 12.3 7 17.8 10.9 12.3 8.6 23.9 16.8 47.7 16.8s35.4-8.1 47.7-16.8c5.5-3.8 11-7.7 17.8-10.9v-.8c-5.9 2.9-11 6.5-16.2 10.1-12.1 8.4-24.6 17.2-49.3 17.2z" data-color="1" class="icon1"></path><path d="M100 86.8c-24.7 0-37.2-8.8-49.3-17.3-5.2-3.6-10.3-7.2-16.2-10.1v.7c6.8 3.1 12.3 7 17.8 10.9 12.3 8.6 23.9 16.8 47.7 16.8s35.4-8.1 47.7-16.8c5.5-3.8 11.1-7.8 17.8-10.9v-.7c-5.9 2.9-11 6.5-16.2 10.1-12.1 8.6-24.6 17.3-49.3 17.3z" data-color="1" class="icon1"></path><path d="M100 83.2c-24.7 0-37.2-8.8-49.3-17.3-5.2-3.6-10.3-7.2-16.2-10.1v.6c6.8 3.1 12.3 7 17.8 10.9C64.6 75.9 76.2 84 100 84s35.4-8.1 47.7-16.7c5.5-3.9 11.1-7.8 17.8-10.9v-.6c-5.9 2.9-11 6.4-16.2 10.1-12.1 8.5-24.6 17.3-49.3 17.3z" data-color="1" class="icon1"></path><path d="M100 156.5c-24.4 0-36.8-8.7-48.8-17.1-5.2-3.6-10.4-7.3-16.7-10.3V184h131v-54.9c-6.3 3-11.6 6.7-16.7 10.3-12 8.4-24.4 17.1-48.8 17.1z" data-color="1" class="icon1"></path><path d="M100 79.5c-24.7 0-37.2-8.8-49.3-17.3-5.2-3.6-10.3-7.2-16.2-10.1v.5c6.8 3.1 12.4 7 17.9 10.9 12.3 8.6 23.9 16.7 47.6 16.7s35.4-8.1 47.6-16.7c5.5-3.9 11.1-7.8 17.9-10.9v-.5c-5.9 2.9-11 6.4-16.2 10.1-12.1 8.5-24.6 17.3-49.3 17.3z" data-color="1" class="icon1"></path><path d="M100 112.5c-24.6 0-37-8.7-49.1-17.2-5.3-3.7-10.4-7.3-16.4-10.2v1.4c6.7 3.1 12.2 7 17.6 10.8 12.3 8.6 24 16.8 47.9 16.8s35.6-8.2 47.9-16.8c5.4-3.8 10.9-7.7 17.6-10.8v-1.4c-6 2.9-11.2 6.5-16.4 10.2-12.1 8.5-24.5 17.2-49.1 17.2z" data-color="1" class="icon1"></path><path d="M100 105.2c-24.6 0-37.1-8.7-49.1-17.2-5.2-3.7-10.4-7.3-16.4-10.2V79c6.7 3.1 12.2 7 17.7 10.8 12.3 8.6 23.9 16.8 47.8 16.8s35.5-8.2 47.8-16.8c5.4-3.8 11-7.7 17.7-10.8v-1.2c-6 2.9-11.1 6.5-16.4 10.2-12 8.4-24.5 17.2-49.1 17.2z" data-color="1" class="icon1"></path><path d="M100 108.8c-24.6 0-37.1-8.7-49.1-17.2-5.3-3.7-10.4-7.3-16.4-10.2v1.3c6.7 3.1 12.2 7 17.6 10.8 12.3 8.6 24 16.8 47.9 16.8s35.5-8.2 47.9-16.8c5.4-3.8 11-7.7 17.6-10.8v-1.3c-6 2.9-11.1 6.5-16.4 10.2-12 8.5-24.5 17.2-49.1 17.2z" data-color="1" class="icon1"></path><path d="M100 97.8c-24.6 0-37.1-8.8-49.2-17.2-5.2-3.7-10.3-7.2-16.3-10.1v1c6.7 3.1 12.3 7 17.7 10.8 12.3 8.6 23.9 16.8 47.8 16.8s35.5-8.2 47.8-16.8c5.5-3.8 11-7.7 17.7-10.8v-1c-6 2.9-11.1 6.5-16.3 10.1-12.1 8.5-24.6 17.2-49.2 17.2z" data-color="1" class="icon1"></path><path d="M100 94.2c-24.6 0-37.1-8.8-49.2-17.2-5.2-3.7-10.3-7.2-16.3-10.1v.9c6.7 3.1 12.3 7 17.8 10.8 12.3 8.6 23.9 16.8 47.7 16.8s35.5-8.1 47.7-16.8c5.5-3.8 11-7.7 17.8-10.8v-.9c-6 2.9-11.1 6.5-16.3 10.1-12.1 8.4-24.6 17.2-49.2 17.2z" data-color="1" class="icon1"></path><path d="M100 101.5c-24.6 0-37.1-8.8-49.2-17.2-5.2-3.7-10.3-7.3-16.3-10.2v1.1c6.7 3.1 12.2 7 17.7 10.8 12.3 8.6 23.9 16.8 47.8 16.8s35.5-8.2 47.8-16.8c5.5-3.8 11-7.7 17.7-10.8v-1.1c-6 2.9-11.1 6.5-16.3 10.2-12.1 8.4-24.6 17.2-49.2 17.2z" data-color="1" class="icon1"></path></g></g>
</svg>
</g></svg></svg>