<svg version="1.1" preserveAspectRatio="none" xmlns="http://www.w3.org/2000/svg" width="500" height="500" viewBox="0 0 500 500"><rect width="100%" height="100%" fill="#FFFFFF" fill-opacity="1"/><svg viewBox="262.5346 238.5266 269.9317 176.5387" width="333" height="217.78615516443608" x="83.5px" y="141.1069px" xmlns="http://www.w3.org/2000/svg" xmlns:xlink="http://www.w3.org/1999/xlink" preserveAspectRatio="none"><defs></defs><style>.companyName {fill:#1e1e1e;fill-opacity:1;}.icon1 {fill:#1e1e1e;fill-opacity:1;}.icon3-str {stroke:#848383;stroke-opacity:1;}</style><g opacity="1" transform="rotate(0 262.5346 394.6472)">
<svg width="269.9317" height="20.4181" x="262.5346" y="394.6472" version="1.1" preserveAspectRatio="none" viewBox="1.12 -29.24 491.72 37.2">
  <g transform="matrix(1 0 0 1 0 0)" class="icon1"><path id="id-6izo4zJp26" d="M21.80-28.92L26.56-28.92L15.72-9.64L15.72 0L11.84 0L11.84-9.64L1.12-28.92L5.92-28.92L13.88-14.04L21.80-28.92Z M26-8.44Q26-10.88 27.18-12.90Q28.36-14.92 30.46-16.08Q32.56-17.24 35.20-17.24L35.20-17.24Q37.84-17.24 39.90-16.08Q41.96-14.92 43.10-12.92Q44.24-10.92 44.24-8.44L44.24-8.44Q44.24-5.96 43.10-3.94Q41.96-1.92 39.88-0.76Q37.80 0.40 35.12 0.40L35.12 0.40Q32.52 0.40 30.44-0.70Q28.36-1.80 27.18-3.80Q26-5.80 26-8.44L26-8.44ZM29.76-8.40Q29.76-6.84 30.46-5.52Q31.16-4.20 32.38-3.44Q33.60-2.68 35.08-2.68L35.08-2.68Q37.40-2.68 38.92-4.32Q40.44-5.96 40.44-8.40L40.44-8.40Q40.44-10.84 38.92-12.50Q37.40-14.16 35.08-14.16L35.08-14.16Q33.56-14.16 32.36-13.38Q31.16-12.60 30.46-11.28Q29.76-9.96 29.76-8.40L29.76-8.40Z M61.72-16.56L65.44-16.56L65.44 0L62.08 0L61.84-3.16Q61-1.48 59.24-0.42Q57.48 0.64 55.32 0.64L55.32 0.64Q53.04 0.64 51.58-0.74Q50.12-2.12 50.04-4.32L50.04-4.32L50.04-16.56L53.76-16.56L53.76-5.64Q53.84-4.24 54.58-3.42Q55.32-2.60 56.80-2.56L56.80-2.56Q58.16-2.56 59.28-3.38Q60.40-4.20 61.06-5.64Q61.72-7.08 61.72-8.84L61.72-8.84L61.72-16.56Z M76.32-12.64Q76.96-14 78.14-15.04Q79.32-16.08 80.64-16.64Q81.96-17.20 82.96-17.24L82.96-17.24L82.80-13.52Q81.00-13.60 79.54-12.80Q78.08-12 77.26-10.58Q76.44-9.16 76.44-7.56L76.44-7.56L76.44 0L72.72 0L72.72-16.56L76.04-16.56L76.32-12.64Z M121.36-28.92L125.92-28.92L113.16 1.36L100.40-28.92L105.00-28.92L113.32-8.08L121.36-28.92Z M131-16.56L134.72-16.56L134.72 0L131 0L131-16.56ZM130.72-22.52Q130.72-23.40 131.40-24Q132.08-24.60 132.96-24.60L132.96-24.60Q133.84-24.60 134.50-24Q135.16-23.40 135.16-22.52L135.16-22.52Q135.16-21.64 134.50-21.04Q133.84-20.44 132.96-20.44L132.96-20.44Q132.08-20.44 131.40-21.04Q130.72-21.64 130.72-22.52L130.72-22.52Z M146.68 0.36Q144.84 0.36 143.18-0.28Q141.52-0.92 140.48-2.16L140.48-2.16L142.08-4.32Q143.08-3.36 144.18-2.84Q145.28-2.32 146.36-2.32L146.36-2.32Q147.68-2.32 148.52-2.84Q149.36-3.36 149.36-4.44L149.36-4.44Q149.36-5.28 148.84-5.80Q148.32-6.32 147.66-6.56Q147-6.80 145.44-7.28L145.44-7.28Q141.20-8.64 141.20-12.12L141.20-12.12Q141.20-14.20 142.74-15.68Q144.28-17.16 147.04-17.16L147.04-17.16Q148.80-17.16 150.16-16.72Q151.52-16.28 152.68-15.32L152.68-15.32L151.20-13.04Q150.56-13.72 149.58-14.12Q148.60-14.52 147.72-14.56L147.72-14.56Q146.60-14.56 145.80-14.02Q145-13.48 145-12.56L145-12.56Q145-11.80 145.52-11.30Q146.04-10.80 146.60-10.58Q147.16-10.36 148.80-9.84L148.80-9.84Q150.84-9.16 151.98-8.08Q153.12-7 153.12-5.16L153.12-5.16Q153.12-2.76 151.44-1.20Q149.76 0.36 146.68 0.36L146.68 0.36Z M159.12-16.56L162.84-16.56L162.84 0L159.12 0L159.12-16.56ZM158.84-22.52Q158.84-23.40 159.52-24Q160.20-24.60 161.08-24.60L161.08-24.60Q161.96-24.60 162.62-24Q163.28-23.40 163.28-22.52L163.28-22.52Q163.28-21.64 162.62-21.04Q161.96-20.44 161.08-20.44L161.08-20.44Q160.20-20.44 159.52-21.04Q158.84-21.64 158.84-22.52L158.84-22.52Z M168.68-8.44Q168.68-10.88 169.86-12.90Q171.04-14.92 173.14-16.08Q175.24-17.24 177.88-17.24L177.88-17.24Q180.52-17.24 182.58-16.08Q184.64-14.92 185.78-12.92Q186.92-10.92 186.92-8.44L186.92-8.44Q186.92-5.96 185.78-3.94Q184.64-1.92 182.56-0.76Q180.48 0.40 177.80 0.40L177.80 0.40Q175.20 0.40 173.12-0.70Q171.04-1.80 169.86-3.80Q168.68-5.80 168.68-8.44L168.68-8.44ZM172.44-8.40Q172.44-6.84 173.14-5.52Q173.84-4.20 175.06-3.44Q176.28-2.68 177.76-2.68L177.76-2.68Q180.08-2.68 181.60-4.32Q183.12-5.96 183.12-8.40L183.12-8.40Q183.12-10.84 181.60-12.50Q180.08-14.16 177.76-14.16L177.76-14.16Q176.24-14.16 175.04-13.38Q173.84-12.60 173.14-11.28Q172.44-9.96 172.44-8.40L172.44-8.40Z M203.00-17.20Q205.32-17.20 206.84-15.82Q208.36-14.44 208.40-12.24L208.40-12.24L208.40 0L204.64 0L204.64-10.96Q204.56-12.36 203.80-13.16Q203.04-13.96 201.52-14L201.52-14Q199.32-14 197.88-12.24Q196.44-10.48 196.44-7.76L196.44-7.76L196.44 0L192.72 0L192.72-16.56L196.08-16.56L196.32-13.36Q197.20-15.16 198.96-16.18Q200.72-17.20 203.00-17.20L203.00-17.20Z M219.04-3.52L216.72 2.08L215.56 4.88L212.52 4.88L213.56 2.08Q215.36-2.76 215.64-3.52L215.64-3.52L219.04-3.52Z M237.12-14.44Q237.12-18.40 239.12-21.80Q241.12-25.20 244.50-27.22Q247.88-29.24 251.88-29.24L251.88-29.24Q255.84-29.24 259.24-27.22Q262.64-25.20 264.66-21.80Q266.68-18.40 266.68-14.44L266.68-14.44Q266.68-10.44 264.68-7.04Q262.68-3.64 259.26-1.66Q255.84 0.32 251.88 0.32L251.88 0.32Q247.88 0.32 244.48-1.64Q241.08-3.60 239.10-6.98Q237.12-10.36 237.12-14.44L237.12-14.44ZM241.12-14.40Q241.12-11.44 242.56-8.92Q244.00-6.40 246.50-4.92Q249.00-3.44 251.96-3.44L251.96-3.44Q254.92-3.44 257.38-4.90Q259.84-6.36 261.26-8.90Q262.68-11.44 262.68-14.44L262.68-14.44Q262.68-17.44 261.24-20Q259.80-22.56 257.32-24.04Q254.84-25.52 251.88-25.52L251.88-25.52Q248.92-25.52 246.44-24.02Q243.96-22.52 242.54-19.96Q241.12-17.40 241.12-14.40L241.12-14.40Z M284.76-16.56L288.48-16.56L288.48 0L285.12 0L284.88-3.16Q284.04-1.48 282.28-0.42Q280.52 0.64 278.36 0.64L278.36 0.64Q276.08 0.64 274.62-0.74Q273.16-2.12 273.08-4.32L273.08-4.32L273.08-16.56L276.80-16.56L276.80-5.64Q276.88-4.24 277.62-3.42Q278.36-2.60 279.84-2.56L279.84-2.56Q281.20-2.56 282.32-3.38Q283.44-4.20 284.10-5.64Q284.76-7.08 284.76-8.84L284.76-8.84L284.76-16.56Z M299.36-12.64Q300.00-14 301.18-15.04Q302.36-16.08 303.68-16.64Q305.00-17.20 306.00-17.24L306.00-17.24L305.84-13.52Q304.04-13.60 302.58-12.80Q301.12-12 300.30-10.58Q299.48-9.16 299.48-7.56L299.48-7.56L299.48 0L295.76 0L295.76-16.56L299.08-16.56L299.36-12.64Z M325.96-28.92L344.76-28.92L344.76-25.20L329.84-25.20L329.84-16.40L343.16-16.40L343.16-12.68L329.84-12.68L329.84-3.76L345.32-3.76L345.32 0L325.96 0L325.96-28.92Z M366.60 0L362.08 0L357.64-5.84L353.48 0L349.68 0L355.76-8.32L349.48-16.56L354.12-16.56L358.48-10.80L362.20-16.56L365.96-16.56L360.20-8.52L366.60 0Z M381.88-17.24Q384.20-17.24 386.08-16.12Q387.96-15 389.04-12.98Q390.12-10.96 390.12-8.32L390.12-8.32Q390.12-5.72 388.96-3.74Q387.80-1.76 385.76-0.68Q383.72 0.40 381.20 0.40L381.20 0.40Q379.40 0.40 377.76-0.38Q376.12-1.16 375.12-2.48L375.12-2.48L375.12 7.96L371.40 7.96L371.40-16.84L374.64-16.84L374.96-14.04Q376.24-15.48 378.02-16.36Q379.80-17.24 381.88-17.24L381.88-17.24ZM380.48-2.60Q382.04-2.60 383.38-3.34Q384.72-4.08 385.52-5.38Q386.32-6.68 386.32-8.28L386.32-8.28Q386.32-9.92 385.58-11.24Q384.84-12.56 383.56-13.32Q382.28-14.08 380.72-14.08L380.72-14.08Q378.60-14.08 377.10-12.90Q375.60-11.72 375.12-9.72L375.12-9.72L375.12-6.96Q375.44-5.04 376.94-3.82Q378.44-2.60 380.48-2.60L380.48-2.60Z M403.68-2.80Q405.76-2.80 407.72-4.24L407.72-4.24L409.44-1.48Q408.12-0.60 406.58-0.10Q405.04 0.40 403.60 0.40L403.60 0.40Q400.84 0.40 398.78-0.74Q396.72-1.88 395.60-3.88Q394.48-5.88 394.48-8.40L394.48-8.40Q394.48-10.84 395.70-12.86Q396.92-14.88 399.04-16.06Q401.16-17.24 403.68-17.24L403.68-17.24Q406.92-17.24 409.10-15.34Q411.28-13.44 412.08-10.04L412.08-10.04L398.96-5.44Q399.68-4.20 400.90-3.50Q402.12-2.80 403.68-2.80L403.68-2.80ZM403.40-14.28Q401.12-14.28 399.64-12.68Q398.16-11.08 398.16-8.60L398.16-8.60Q398.16-8 398.20-7.68L398.20-7.68L407.84-11.24Q407.24-12.60 406.14-13.44Q405.04-14.28 403.40-14.28L403.40-14.28Z M421.12-12.64Q421.76-14 422.94-15.04Q424.12-16.08 425.44-16.64Q426.76-17.20 427.76-17.24L427.76-17.24L427.60-13.52Q425.80-13.60 424.34-12.80Q422.88-12 422.06-10.58Q421.24-9.16 421.24-7.56L421.24-7.56L421.24 0L417.52 0L417.52-16.56L420.84-16.56L421.12-12.64Z M434.96-23.84L438.72-23.84L438.72-16.52L443.24-16.52L443.24-13.56L438.72-13.56L438.72 0L434.96 0L434.96-13.56L431.92-13.56L431.92-16.52L434.96-16.52L434.96-23.84Z M448.56-16.56L452.28-16.56L452.28 0L448.56 0L448.56-16.56ZM448.28-22.52Q448.28-23.40 448.96-24Q449.64-24.60 450.52-24.60L450.52-24.60Q451.40-24.60 452.06-24Q452.72-23.40 452.72-22.52L452.72-22.52Q452.72-21.64 452.06-21.04Q451.40-20.44 450.52-20.44L450.52-20.44Q449.64-20.44 448.96-21.04Q448.28-21.64 448.28-22.52L448.28-22.52Z M464.24 0.36Q462.40 0.36 460.74-0.28Q459.08-0.92 458.04-2.16L458.04-2.16L459.64-4.32Q460.64-3.36 461.74-2.84Q462.84-2.32 463.92-2.32L463.92-2.32Q465.24-2.32 466.08-2.84Q466.92-3.36 466.92-4.44L466.92-4.44Q466.92-5.28 466.40-5.80Q465.88-6.32 465.22-6.56Q464.56-6.80 463.00-7.28L463.00-7.28Q458.76-8.64 458.76-12.12L458.76-12.12Q458.76-14.20 460.30-15.68Q461.84-17.16 464.60-17.16L464.60-17.16Q466.36-17.16 467.72-16.72Q469.08-16.28 470.24-15.32L470.24-15.32L468.76-13.04Q468.12-13.72 467.14-14.12Q466.16-14.52 465.28-14.56L465.28-14.56Q464.16-14.56 463.36-14.02Q462.56-13.48 462.56-12.56L462.56-12.56Q462.56-11.80 463.08-11.30Q463.60-10.80 464.16-10.58Q464.72-10.36 466.36-9.84L466.36-9.84Q468.40-9.16 469.54-8.08Q470.68-7 470.68-5.16L470.68-5.16Q470.68-2.76 469.00-1.20Q467.32 0.36 464.24 0.36L464.24 0.36Z M484.44-2.80Q486.52-2.80 488.48-4.24L488.48-4.24L490.20-1.48Q488.88-0.60 487.34-0.10Q485.80 0.40 484.36 0.40L484.36 0.40Q481.60 0.40 479.54-0.74Q477.48-1.88 476.36-3.88Q475.24-5.88 475.24-8.40L475.24-8.40Q475.24-10.84 476.46-12.86Q477.68-14.88 479.80-16.06Q481.92-17.24 484.44-17.24L484.44-17.24Q487.68-17.24 489.86-15.34Q492.04-13.44 492.84-10.04L492.84-10.04L479.72-5.44Q480.44-4.20 481.66-3.50Q482.88-2.80 484.44-2.80L484.44-2.80ZM484.16-14.28Q481.88-14.28 480.40-12.68Q478.92-11.08 478.92-8.60L478.92-8.60Q478.92-8 478.96-7.68L478.96-7.68L488.60-11.24Q488.00-12.60 486.90-13.44Q485.80-14.28 484.16-14.28L484.16-14.28Z"/></g>
</svg>
</g><g opacity="1" transform="rotate(-10 290.1111 273.2452)">
<svg width="199.9363" height="102.9663" x="290.1111" y="273.2452" version="1.1" preserveAspectRatio="none" viewBox="1.96 -30.96 64.84 33.4">
  <g transform="matrix(1 0 0 1 0 0)" class="companyName"><path id="id-D6z1nYkh4" d="M21.52-0.96L21.52-0.96Q17.08 2.44 12.52 2.44L12.52 2.44Q7.72 2.44 5.52-1.12L5.52-1.12Q3.96-3.72 3.96-6.90Q3.96-10.08 5.12-13.24L5.12-13.24Q2.32-15.12 2.04-18.28L2.04-18.28Q1.96-18.88 1.96-19.48L1.96-19.48Q1.96-24.28 6.08-27.52L6.08-27.52Q10.48-30.96 16.48-30.96Q22.48-30.96 26.42-27.62Q30.36-24.28 30.36-18.08L30.36-18.08Q30.36-17.68 30.36-17.28L30.36-17.28Q34.36-19.92 35.56-22.32L35.56-22.32Q35.76-22.76 36.08-22.70Q36.40-22.64 36.40-22.44Q36.40-22.24 36.16-21.88L36.16-21.88Q33.80-18.16 30.20-15.88L30.20-15.88Q30.04-14 29.18-11.36Q28.32-8.72 26.28-5.90Q24.24-3.08 21.52-0.96ZM28-18.12L28-18.12Q28-24.88 23.68-28.12L23.68-28.12Q20.80-30.28 16.96-30.28L16.96-30.28Q15.84-30.28 14.68-30.08L14.68-30.08Q9.80-29.36 6.72-26.04L6.72-26.04Q4.12-23.16 4.12-19.52L4.12-19.52Q4.12-16.36 5.84-14.88L5.84-14.88Q7.40-18.20 10.44-21.60L10.44-21.60Q13.76-25.32 17.44-26.16L17.44-26.16Q18.04-26.28 18.98-26.28Q19.92-26.28 21.16-25.52L21.16-25.52Q21.44-25.36 21.46-25.20Q21.48-25.04 21.28-24.96Q21.08-24.88 20.68-25.02Q20.28-25.16 19.34-25.16Q18.40-25.16 16.64-24.20Q14.88-23.24 13.08-21.20L13.08-21.20Q9.52-17.16 7.88-13.52L7.88-13.52Q10.40-12.36 13.92-12.36L13.92-12.36Q15.48-12.36 17.24-12.56L17.24-12.56Q22.96-13.32 27.92-16L27.92-16Q28-17.08 28-18.12ZM27.68-14.60L27.68-14.60Q21-11.04 13.60-11.04L13.60-11.04Q10-11.04 7.28-12.12L7.28-12.12Q6.04-8.88 6.04-6.52L6.04-6.52Q6.04-1 9.36 0.64L9.36 0.64Q11.16 1.48 12.94 1.48Q14.72 1.48 16.40 0.72L16.40 0.72Q19.92-0.88 22.72-4.28Q25.52-7.68 26.96-11.76L26.96-11.76Q27.52-13.36 27.68-14.60Z M36.68-16.04L36.68-16.04Q36.68-14.24 34.40-12.64L34.40-12.64Q35.20-12.60 36.54-12.60Q37.88-12.60 39.92-12.80L39.92-12.80Q40-12.68 40-12.16Q40-11.64 39.52-10.62Q39.04-9.60 38.66-8.86Q38.28-8.12 37.94-7.46Q37.60-6.80 37.18-5.84Q36.76-4.88 36.48-4.08L36.48-4.08Q35.48-1.04 36.80-1.04L36.80-1.04Q38.48-1.04 41.76-7.72L41.76-7.72Q42.04-8.24 42.22-8.12Q42.40-8 42.40-7.82Q42.40-7.64 41.88-6.58Q41.36-5.52 40.76-4.40Q40.16-3.28 38.88-1.80L38.88-1.80Q37.36 0.04 35.96 0.04L35.96 0.04Q34.40 0.04 33.80-1.84L33.80-1.84Q33.68-2.20 33.68-2.92Q33.68-3.64 34.14-4.84Q34.60-6.04 35.60-7.76Q36.60-9.48 36.72-9.78Q36.84-10.08 36.84-10.36L36.84-10.36Q36.84-11.60 33.64-11.68L33.64-11.68L33.16-10.40Q30.64-3.80 28.32-1.56L28.32-1.56Q27.92-1.20 27.92-1.80L27.92-1.80Q27.92-1.92 28-2.08L28-2.08Q30.24-5.04 31.88-9.08Q33.52-13.12 34.16-16.76L34.16-16.76Q34.40-18 35.28-18Q36.16-18 36.56-16.88L36.56-16.88Q36.68-16.52 36.68-16.04Z M49.08-9.20L49.08-9.20Q50.48-10.88 50.48-12.04Q50.48-13.20 49.52-13.20L49.52-13.20Q47.64-13.20 45.24-9.76L45.24-9.76Q44.48-8.68 43.76-6.92Q43.04-5.16 43.04-3.74Q43.04-2.32 43.62-1.44Q44.20-0.56 45.42-0.56Q46.64-0.56 47.68-1.14Q48.72-1.72 49.66-2.98Q50.60-4.24 51.08-5.08Q51.56-5.92 52.40-7.60L52.40-7.60Q52.68-8.16 52.88-8.06Q53.08-7.96 53.08-7.78Q53.08-7.60 52.54-6.46Q52-5.32 51.46-4.32Q50.92-3.32 49.92-2.08L49.92-2.08Q48.12 0.16 45 0.16L45 0.16Q42.76 0.16 41.78-0.94Q40.80-2.04 40.80-3.48L40.80-3.48Q40.80-5.24 41.66-7.32Q42.52-9.40 43.64-10.92L43.64-10.92Q45.96-14.08 49-14.08L49-14.08Q50.48-14.08 51.14-13.38Q51.80-12.68 51.80-11.76L51.80-11.76Q51.80-10.40 50.68-9.44L50.68-9.44Q50.12-8.92 49.74-8.92Q49.36-8.92 49.08-9.20Z M64.28-10.84Q63.56-10.12 62.24-7.58Q60.92-5.04 60.66-3.78Q60.40-2.52 60.40-1.74Q60.40-0.96 61-0.96L61-0.96Q61.76-0.96 62.88-2.36L62.88-2.36Q64.52-4.40 66.12-7.68L66.12-7.68Q66.28-8.04 66.48-8.08L66.48-8.08Q66.80-8.20 66.80-7.84L66.80-7.84Q66.80-7.64 66.68-7.36L66.68-7.36Q63 0.08 60.48 0.08L60.48 0.08Q59.32 0.08 58.60-1.04L58.60-1.04Q58.24-1.64 58.24-2.64Q58.24-3.64 58.64-5.08L58.64-5.08Q55.44 0.08 53.12 0.08L53.12 0.08Q52.48 0.08 51.96-0.32L51.96-0.32Q50.76-1.16 50.76-3.20L50.76-3.20Q50.76-7.12 54.16-11.16L54.16-11.16Q56.08-13.40 58.88-14.08L58.88-14.08Q59.64-14.28 60.32-14.28L60.32-14.28Q62.16-14.28 63.44-13L63.44-13Q63.84-12.56 63.68-12.16Q63.52-11.76 63-11.84L63-11.84Q62.56-13.28 61.08-13.28L61.08-13.28Q59.36-13.28 56.84-10.56L56.84-10.56Q55.40-8.96 54.16-6.80L54.16-6.80Q52.60-4.20 52.60-2.64Q52.60-1.08 53.60-1.08L53.60-1.08Q56-1.08 59.88-8.44L59.88-8.44Q60.64-9.92 61.16-10.46Q61.68-11 62.48-11L62.48-11Q62.64-11 63.30-10.88Q63.96-10.76 64.28-10.84L64.28-10.84Z"/></g>
</svg>
</g></svg></svg>