<svg version="1.1" preserveAspectRatio="none" xmlns="http://www.w3.org/2000/svg" width="500" height="500" viewBox="0 0 500 500"><rect width="100%" height="100%" fill="#FFFFFF" fill-opacity="1"/><svg viewBox="50.847 143.4 398.3062 212" width="333" height="177.24052500312575" x="83.5px" y="161.3797px" xmlns="http://www.w3.org/2000/svg" xmlns:xlink="http://www.w3.org/1999/xlink" preserveAspectRatio="none"><defs></defs><style>.icon1 {fill:#0C0C0C;fill-opacity:1;}.icon2 {fill:#DFDFDF;fill-opacity:1;}.icon3 {fill:#929292;fill-opacity:1;}.icon3-str {stroke:#929292;stroke-opacity:1;}</style><g opacity="1" transform="rotate(0 50.847 337.4)">
<svg width="398.3062" height="18" x="50.847" y="337.4" version="1.1" preserveAspectRatio="none" viewBox="-0.1172 -30.5078 823.7500000000001 37.2265">
  <g transform="matrix(1 0 0 1 0 0)" class="icon3"><path id="id-6izo4zJp26" d="M10.39-12.19L-0.12-29.80L4.34-29.80L9.30-20.82Q10.90-17.85 12.19-15.43L12.19-15.43L12.30-15.43Q12.81-16.37 13.81-18.22Q14.80-20.08 15.23-20.82L15.23-20.82L20.16-29.80L24.61-29.80L14.18-12.19L14.18 0L10.39 0L10.39-12.19Z M35.27-14.88L35.27-14.88Q35.27-21.91 38.69-26.21Q42.11-30.51 47.81-30.51L47.81-30.51Q53.55-30.51 56.93-26.21Q60.31-21.91 60.31-14.84L60.31-14.84Q60.31-7.73 56.89-3.52Q53.48 0.70 47.81 0.70L47.81 0.70Q42.11 0.70 38.69-3.54Q35.27-7.77 35.27-14.88ZM39.18-14.88L39.18-14.88Q39.18-9.22 41.50-5.90Q43.83-2.58 47.81-2.58L47.81-2.58Q51.76-2.58 54.08-5.84Q56.41-9.10 56.41-14.84L56.41-14.84Q56.41-20.51 54.14-23.89Q51.88-27.27 47.81-27.27L47.81-27.27Q43.83-27.27 41.50-23.91Q39.18-20.55 39.18-14.88Z M75.94-10.90L75.94-10.90L75.94-29.80L79.77-29.80L79.77-10.98Q79.77-6.72 81.66-4.65Q83.55-2.58 86.64-2.58L86.64-2.58Q89.80-2.58 91.68-4.73Q93.55-6.88 93.55-10.98L93.55-10.98L93.55-29.80L97.38-29.80L97.38-10.90Q97.38-5.39 94.63-2.34Q91.88 0.70 86.64 0.70L86.64 0.70Q81.56 0.70 78.75-2.29Q75.94-5.27 75.94-10.90Z M118.75-26.56L118.75-15.78L126.17-15.78Q129.02-15.78 130.55-17.25Q132.07-18.71 132.07-21.25L132.07-21.25Q132.07-23.63 130.47-25.10Q128.87-26.56 125.94-26.56L125.94-26.56L118.75-26.56ZM118.75 0L114.96 0L114.96-29.80L126.72-29.80Q131.17-29.80 133.57-27.42Q135.98-25.04 135.98-21.52L135.98-21.52Q135.98-18.40 134.47-16.45Q132.97-14.49 131.09-13.95L131.09-13.95Q132.66-13.05 133.36-11.84Q134.06-10.63 134.53-8.36L134.53-8.36Q134.96-6.52 135.21-5.53Q135.47-4.53 136.07-3.03Q136.68-1.52 137.58 0L137.58 0L133.32 0Q131.72-2.85 130.55-8.09L130.55-8.09Q130.04-10.23 129.08-11.39Q128.13-12.54 126.02-12.54L126.02-12.54L118.75-12.54L118.75 0Z M177.66 0L167.77-29.80L171.91-29.80L177.89-10.43Q178.20-9.30 178.85-7.19Q179.49-5.08 179.80-3.87L179.80-3.87L179.96-3.83Q180.31-5.04 180.90-7.13Q181.48-9.22 181.84-10.43L181.84-10.43L187.85-29.80L192.03-29.80L182.15 0L177.66 0Z M209.57 0L205.78 0L205.78-29.80L209.57-29.80L209.57 0Z M224.80-5.86L224.80-5.86L228.24-7.07Q229.41-5 231.46-3.79Q233.52-2.58 236.21-2.58L236.21-2.58Q239.10-2.58 240.90-3.98Q242.70-5.39 242.70-7.77L242.70-7.77Q242.70-9.02 242.17-9.98Q241.64-10.94 240.51-11.64Q239.38-12.34 238.38-12.77Q237.38-13.20 235.70-13.75L235.70-13.75Q231.05-15.27 229.34-16.37L229.34-16.37Q225.82-18.63 225.82-22.58L225.82-22.58Q225.82-26.17 228.61-28.34Q231.41-30.51 235.98-30.51L235.98-30.51Q239.57-30.51 242.19-28.85Q244.80-27.19 245.98-24.65L245.98-24.65L242.73-23.55Q240.35-27.27 235.90-27.27L235.90-27.27Q233.05-27.27 231.39-25.98Q229.73-24.69 229.73-22.58L229.73-22.58Q229.73-21.37 230.31-20.43Q230.90-19.49 232.11-18.81Q233.32-18.13 234.41-17.70Q235.51-17.27 237.30-16.68L237.30-16.68Q237.81-16.52 238.05-16.45L238.05-16.45Q239.92-15.82 241.23-15.21Q242.54-14.61 243.89-13.61Q245.23-12.62 245.92-11.19Q246.60-9.77 246.60-7.89L246.60-7.89Q246.60-3.83 243.73-1.56Q240.86 0.70 236.13 0.70L236.13 0.70Q232.07 0.70 229.16-1.07Q226.25-2.85 224.80-5.86Z M265.74 0L261.95 0L261.95-29.80L265.74-29.80L265.74 0Z M281.48-14.88L281.48-14.88Q281.48-21.91 284.90-26.21Q288.32-30.51 294.02-30.51L294.02-30.51Q299.77-30.51 303.14-26.21Q306.52-21.91 306.52-14.84L306.52-14.84Q306.52-7.73 303.11-3.52Q299.69 0.70 294.02 0.70L294.02 0.70Q288.32 0.70 284.90-3.54Q281.48-7.77 281.48-14.88ZM285.39-14.88L285.39-14.88Q285.39-9.22 287.71-5.90Q290.04-2.58 294.02-2.58L294.02-2.58Q297.97-2.58 300.29-5.84Q302.62-9.10 302.62-14.84L302.62-14.84Q302.62-20.51 300.35-23.89Q298.09-27.27 294.02-27.27L294.02-27.27Q290.04-27.27 287.71-23.91Q285.39-20.55 285.39-14.88Z M326.05 0L322.27 0L322.27-29.80L326.45-29.80L336.76-11.68L340.23-5.51L340.47-5.51Q339.96-9.14 339.96-13.98L339.96-13.98L339.96-29.80L343.75-29.80L343.75 0L339.57 0L329.26-18.09L325.78-24.26L325.63-24.26Q326.05-20.20 326.05-15.78L326.05-15.78L326.05 0Z M362.50 6.72L359.49 6.72L362.89-5.12L367.70-5.12L362.50 6.72Z M403.40-14.88L403.40-14.88Q403.40-21.91 406.82-26.21Q410.23-30.51 415.94-30.51L415.94-30.51Q421.68-30.51 425.06-26.21Q428.44-21.91 428.44-14.84L428.44-14.84Q428.44-7.73 425.02-3.52Q421.60 0.70 415.94 0.70L415.94 0.70Q410.23 0.70 406.82-3.54Q403.40-7.77 403.40-14.88ZM407.30-14.88L407.30-14.88Q407.30-9.22 409.63-5.90Q411.95-2.58 415.94-2.58L415.94-2.58Q419.88-2.58 422.21-5.84Q424.53-9.10 424.53-14.84L424.53-14.84Q424.53-20.51 422.27-23.89Q420-27.27 415.94-27.27L415.94-27.27Q411.95-27.27 409.63-23.91Q407.30-20.55 407.30-14.88Z M444.06-10.90L444.06-10.90L444.06-29.80L447.89-29.80L447.89-10.98Q447.89-6.72 449.79-4.65Q451.68-2.58 454.77-2.58L454.77-2.58Q457.93-2.58 459.80-4.73Q461.68-6.88 461.68-10.98L461.68-10.98L461.68-29.80L465.51-29.80L465.51-10.90Q465.51-5.39 462.75-2.34Q460 0.70 454.77 0.70L454.77 0.70Q449.69 0.70 446.88-2.29Q444.06-5.27 444.06-10.90Z M486.88-26.56L486.88-15.78L494.30-15.78Q497.15-15.78 498.67-17.25Q500.20-18.71 500.20-21.25L500.20-21.25Q500.20-23.63 498.59-25.10Q496.99-26.56 494.06-26.56L494.06-26.56L486.88-26.56ZM486.88 0L483.09 0L483.09-29.80L494.84-29.80Q499.30-29.80 501.70-27.42Q504.10-25.04 504.10-21.52L504.10-21.52Q504.10-18.40 502.60-16.45Q501.09-14.49 499.22-13.95L499.22-13.95Q500.78-13.05 501.48-11.84Q502.19-10.63 502.66-8.36L502.66-8.36Q503.09-6.52 503.34-5.53Q503.59-4.53 504.20-3.03Q504.80-1.52 505.70 0L505.70 0L501.45 0Q499.84-2.85 498.67-8.09L498.67-8.09Q498.16-10.23 497.21-11.39Q496.25-12.54 494.14-12.54L494.14-12.54L486.88-12.54L486.88 0Z M559.10 0L539.80 0L539.80-29.80L558.75-29.80L558.75-26.56L543.59-26.56L543.59-16.99L557.27-16.99L557.27-13.83L543.59-13.83L543.59-3.24L559.10-3.24L559.10 0Z M575.04 0L570.47 0L580.20-15.31L570.98-29.80L575.59-29.80L579.73-22.85Q580.04-22.34 580.57-21.41Q581.09-20.47 581.54-19.69Q581.99-18.91 582.42-18.16L582.42-18.16L582.58-18.16Q583.09-19.10 584.06-20.70Q585.04-22.30 585.35-22.85L585.35-22.85L589.45-29.80L594.10-29.80L584.80-15.31L594.57 0L590.04 0L585.55-7.30Q584.49-9.06 582.58-12.34L582.58-12.34L582.42-12.34Q580.78-9.45 579.49-7.30L579.49-7.30L575.04 0Z M612.11 0L608.32 0L608.32-29.80L619.69-29.80Q624.14-29.80 626.70-27.38Q629.26-24.96 629.26-20.94L629.26-20.94Q629.26-16.84 626.64-14.45Q624.02-12.07 619.73-12.07L619.73-12.07L612.11-12.07L612.11 0ZM612.11-26.56L612.11-15.27L619.18-15.27Q622.11-15.27 623.73-16.70Q625.35-18.13 625.35-20.94L625.35-20.94Q625.35-23.67 623.75-25.12Q622.15-26.56 619.10-26.56L619.10-26.56L612.11-26.56Z M663.91 0L644.61 0L644.61-29.80L663.55-29.80L663.55-26.56L648.40-26.56L648.40-16.99L662.07-16.99L662.07-13.83L648.40-13.83L648.40-3.24L663.91-3.24L663.91 0Z M682.97-26.56L682.97-15.78L690.39-15.78Q693.24-15.78 694.77-17.25Q696.29-18.71 696.29-21.25L696.29-21.25Q696.29-23.63 694.69-25.10Q693.09-26.56 690.16-26.56L690.16-26.56L682.97-26.56ZM682.97 0L679.18 0L679.18-29.80L690.94-29.80Q695.39-29.80 697.79-27.42Q700.20-25.04 700.20-21.52L700.20-21.52Q700.20-18.40 698.69-16.45Q697.19-14.49 695.31-13.95L695.31-13.95Q696.88-13.05 697.58-11.84Q698.28-10.63 698.75-8.36L698.75-8.36Q699.18-6.52 699.43-5.53Q699.69-4.53 700.29-3.03Q700.90-1.52 701.80 0L701.80 0L697.54 0Q695.94-2.85 694.77-8.09L694.77-8.09Q694.26-10.23 693.30-11.39Q692.34-12.54 690.23-12.54L690.23-12.54L682.97-12.54L682.97 0Z M721.25-26.56L712.34-26.56L712.34-29.80L733.95-29.80L733.95-26.56L725.04-26.56L725.04 0L721.25 0L721.25-26.56Z M751.95 0L748.16 0L748.16-29.80L751.95-29.80L751.95 0Z M767.19-5.86L767.19-5.86L770.63-7.07Q771.80-5 773.85-3.79Q775.90-2.58 778.59-2.58L778.59-2.58Q781.48-2.58 783.28-3.98Q785.08-5.39 785.08-7.77L785.08-7.77Q785.08-9.02 784.55-9.98Q784.02-10.94 782.89-11.64Q781.76-12.34 780.76-12.77Q779.77-13.20 778.09-13.75L778.09-13.75Q773.44-15.27 771.72-16.37L771.72-16.37Q768.20-18.63 768.20-22.58L768.20-22.58Q768.20-26.17 771.00-28.34Q773.79-30.51 778.36-30.51L778.36-30.51Q781.95-30.51 784.57-28.85Q787.19-27.19 788.36-24.65L788.36-24.65L785.12-23.55Q782.73-27.27 778.28-27.27L778.28-27.27Q775.43-27.27 773.77-25.98Q772.11-24.69 772.11-22.58L772.11-22.58Q772.11-21.37 772.70-20.43Q773.28-19.49 774.49-18.81Q775.70-18.13 776.80-17.70Q777.89-17.27 779.69-16.68L779.69-16.68Q780.20-16.52 780.43-16.45L780.43-16.45Q782.30-15.82 783.61-15.21Q784.92-14.61 786.27-13.61Q787.62-12.62 788.30-11.19Q788.98-9.77 788.98-7.89L788.98-7.89Q788.98-3.83 786.11-1.56Q783.24 0.70 778.52 0.70L778.52 0.70Q774.45 0.70 771.54-1.07Q768.63-2.85 767.19-5.86Z M823.63 0L804.34 0L804.34-29.80L823.28-29.80L823.28-26.56L808.13-26.56L808.13-16.99L821.80-16.99L821.80-13.83L808.13-13.83L808.13-3.24L823.63-3.24L823.63 0Z"/></g>
</svg>
</g><g opacity="1" transform="rotate(0 221.4257 143.4)">
<svg width="57.1487" height="84" x="221.4257" y="143.4" version="1.1" preserveAspectRatio="none" viewBox="13259.69140625 5395.4404296875 33478.9921875 49208.9921875">
  <g transform="matrix(-1 0 0 1 59998.375 0)" class="icon1"><defs></defs><g><path class="fil0" d="M44750 54476c-2643,-2420 -4749,-5013 -6470,-7713 -3760,4204 -7837,5291 -11739,4882 -3918,-410 -7630,-2332 -10663,-4100 -191,-110 -256,-355 -145,-545 28,-49 66,-90 108,-121 1838,-1488 3840,-2620 5866,-3428 3251,-1297 6567,-1760 9375,-1525 2195,184 4092,798 5427,1779 -165,-314 -326,-630 -483,-946 -493,-994 -946,-1998 -1367,-3007 -38,17 -80,29 -124,33 -7102,753 -11792,-1700 -15029,-5397 -3208,-3663 -4962,-8533 -6229,-12692 -64,-211 55,-433 266,-497 47,-14 94,-19 141,-16l0 -1c1917,127 3771,453 5533,936 1427,392 2792,886 4079,1462 -365,-725 -658,-1477 -891,-2247 -1138,-3768 -803,-7936 -346,-11419 28,-218 229,-372 447,-344 55,7 106,25 151,52 2086,1120 3905,2527 5433,4081 909,924 1715,1900 2415,2900 491,-2239 1560,-4204 2885,-5961 1459,-1934 3232,-3617 4878,-5141 161,-149 413,-139 563,22 34,36 59,77 77,121l1 -1c891,2199 1392,4450 1573,6628 291,3484 -235,6791 -1282,9411 -1065,2666 -2679,4635 -4537,5388 -345,140 -697,238 -1056,292 -118,521 -292,1003 -525,1438 -222,415 -496,786 -823,1108 -10,10 -21,20 -32,29 1234,3472 2605,6970 4395,10338 33,-635 128,-1284 275,-1943 -49,-45 -87,-102 -109,-169 -7,-22 -13,-45 -16,-68 -213,-211 -391,-455 -537,-726 -618,-1154 -610,-2804 -38,-4567 557,-1716 1651,-3556 3219,-5151 975,-991 2135,-1889 3465,-2604 45,-27 96,-45 151,-52 218,-28 418,125 447,344 291,2217 504,4873 -224,7281 -733,2427 -2403,4581 -5858,5760 -219,967 -325,1907 -278,2807 123,220 248,439 375,658 2244,3866 5121,7530 9082,10754 121,99 173,233 161,394 -8,117 -63,279 -153,449 -74,140 -181,303 -309,461 -314,386 -766,734 -1260,699 -105,-7 -198,-55 -265,-127zm-27393 -7749c3479,-580 6709,-976 9902,-1131 3356,-163 6666,-60 10173,375 -129,-273 -294,-531 -491,-774 -1123,-1385 -3277,-2251 -5924,-2474 -2698,-227 -5886,220 -9016,1468 -1587,633 -3159,1473 -4644,2536zm20105 -250c-3512,-441 -6823,-546 -10180,-383 -3290,160 -6629,579 -10250,1195 2812,1595 6139,3202 9590,3563 3592,376 7346,-603 10840,-4375zm5353 -19969c-466,926 -973,1878 -1487,2842 -1435,2691 -2918,5473 -3686,8094 2823,-1109 4219,-2972 4848,-5053 574,-1901 522,-3998 325,-5882zm-5659 10821c780,-2678 2281,-5492 3733,-8214 514,-963 1021,-1915 1489,-2847 -893,572 -1693,1232 -2393,1944 -1478,1502 -2507,3231 -3028,4838 -506,1560 -532,2987 -18,3945 64,119 136,231 218,335zm-22766 -15290c2906,3292 5797,5907 8940,8306 3125,2385 6497,4557 10378,6968 -856,-2337 -1568,-4694 -2221,-7035 -3637,-1248 -5997,-3191 -7494,-5487 -1546,-769 -3218,-1419 -4984,-1904 -1476,-405 -3021,-696 -4618,-847zm19602 16037c-4127,-2557 -7683,-4829 -10965,-7334 -2996,-2287 -5766,-4769 -8537,-7841 1206,3727 2866,7822 5616,10962 3064,3499 7509,5825 14247,5138 -123,-308 -243,-616 -361,-925zm4523 -31220c-570,1988 -1337,3807 -2111,5642 -1291,3061 -2600,6167 -3017,10157 358,1384 481,2701 358,3870 209,-47 416,-112 619,-194 1654,-670 3112,-2477 4096,-4941 1003,-2511 1506,-5690 1226,-9052 -150,-1802 -526,-3654 -1171,-5480zm-5482 14625c530,-3527 1729,-6370 2913,-9176 752,-1783 1497,-3551 2056,-5466 -1372,1292 -2781,2704 -3973,4284 -1407,1866 -2509,3968 -2879,6389 -2,16 -6,32 -10,48 815,1305 1450,2633 1894,3921zm-9713 -10560c1763,2940 3450,5838 4867,8768 1545,3196 2766,6426 3407,9782l15 5c20,-50 50,-97 91,-137 270,-266 496,-572 679,-914 842,-1572 807,-3894 -13,-6420 -835,-2574 -2481,-5340 -4845,-7743 -1216,-1237 -2621,-2376 -4202,-3342zm7726 18348c-646,-3201 -1825,-6296 -3308,-9363 -1447,-2993 -3186,-5965 -5001,-8986 -379,3199 -566,6871 434,10182 325,1077 778,2117 1393,3093 68,55 115,129 136,211 1315,1989 3328,3694 6346,4864zm4865 11369c264,592 541,1182 832,1768 1997,4026 4652,7891 8439,11385 157,-50 331,-214 475,-390 90,-111 166,-228 222,-333l3 -6c-3947,-3254 -6826,-6937 -9078,-10816 -309,-533 -606,-1069 -893,-1608z"></path></g></g>
</svg>
</g><g opacity="1" transform="rotate(0 139.6176 253.4)">
<svg width="220.7649" height="60" x="139.6176" y="253.4" version="1.1" preserveAspectRatio="none" viewBox="2.3047 -28.9062 108.975 29.6094">
  <g transform="matrix(1 0 0 1 0 0)" class="icon1"><path id="id-D6z1nYkh4" d="M2.30-14.10L2.30-14.10Q2.30-20.78 5.35-24.84Q8.40-28.91 13.55-28.91L13.55-28.91Q18.75-28.91 21.74-24.84Q24.73-20.78 24.73-14.06L24.73-14.06Q24.73-7.38 21.72-3.34Q18.71 0.70 13.55 0.70L13.55 0.70Q8.36 0.70 5.33-3.36Q2.30-7.42 2.30-14.10ZM4.18-14.10L4.18-14.10Q4.18-8.16 6.66-4.51Q9.14-0.86 13.55-0.86L13.55-0.86Q17.89-0.86 20.39-4.45Q22.89-8.05 22.89-14.06L22.89-14.06Q22.89-20.12 20.39-23.71Q17.89-27.30 13.55-27.30L13.55-27.30Q9.26-27.30 6.72-23.73Q4.18-20.16 4.18-14.10Z M36.60-26.60L36.60-14.30L45.27-14.30Q48.43-14.30 50.19-16.00Q51.95-17.70 51.95-20.51L51.95-20.51Q51.95-23.16 50.17-24.88Q48.40-26.60 44.92-26.60L44.92-26.60L36.60-26.60ZM36.60 0L34.80 0L34.80-28.16L45.43-28.16Q49.45-28.16 51.62-26.00Q53.79-23.83 53.79-20.59L53.79-20.59Q53.79-17.38 52.09-15.59Q50.39-13.79 48.40-13.36L48.40-13.36Q50.08-12.62 50.99-11.25Q51.91-9.88 52.42-7.70L52.42-7.70Q52.50-7.34 52.71-6.45Q52.93-5.55 53.00-5.29Q53.08-5.04 53.26-4.36Q53.43-3.67 53.53-3.42Q53.63-3.16 53.81-2.62Q53.98-2.07 54.14-1.74Q54.29-1.41 54.53-0.94Q54.76-0.47 55.04 0L55.04 0L52.97 0Q52.38-1.09 51.93-2.38Q51.48-3.67 51.27-4.49Q51.05-5.31 50.50-7.58L50.50-7.58Q50.23-8.59 49.90-9.39Q49.57-10.20 48.96-11.02Q48.36-11.84 47.36-12.29Q46.36-12.73 45.04-12.73L45.04-12.73L36.60-12.73L36.60 0Z M61.32-14.10L61.32-14.10Q61.32-21.05 64.53-24.98Q67.73-28.91 72.92-28.91L72.92-28.91Q76.13-28.91 78.28-27.17Q80.42-25.43 81.40-23.16L81.40-23.16L79.84-22.54Q77.57-27.30 72.88-27.30L72.88-27.30Q68.47-27.30 65.83-23.71Q63.20-20.12 63.20-14.10L63.20-14.10Q63.20-7.97 65.89-4.41Q68.59-0.86 72.88-0.86L72.88-0.86Q75.62-0.86 77.57-2.30Q79.53-3.75 80.54-5.94L80.54-5.94L82.18-5.39Q79.25 0.70 72.92 0.70L72.92 0.70Q67.73 0.70 64.53-3.24Q61.32-7.19 61.32-14.10Z M97.57-21.95L93.19-10.39L105.34-10.39L101.01-21.95Q99.76-25.35 99.37-26.48L99.37-26.48L99.21-26.48Q99.05-26.05 97.57-21.95L97.57-21.95ZM89.33 0L87.30 0L98.12-28.16L100.42-28.16L111.28 0L109.21 0L105.89-8.91L92.65-8.91L89.33 0Z"/></g>
</svg>
</g></svg></svg>