<svg version="1.1" preserveAspectRatio="none" xmlns="http://www.w3.org/2000/svg" width="500" height="500" viewBox="0 0 500 500"><rect width="100%" height="100%" fill="#F7F7F7" fill-opacity="1"/><svg viewBox="1547.2164 1135.8364 373.5135 306.9259" width="333" height="273.6348878956182" x="83.5px" y="113.1826px" xmlns="http://www.w3.org/2000/svg" xmlns:xlink="http://www.w3.org/1999/xlink" preserveAspectRatio="none"><defs></defs><style>.companyName {fill:#2B2B2B;fill-opacity:1;}.icon1 {fill:#2B2B2B;fill-opacity:1;}.icon2 {fill:#59C65B;fill-opacity:1;}.icon3 {fill:#6D6D6D;fill-opacity:1;}.icon3-str {stroke:#6D6D6D;stroke-opacity:1;}</style><g opacity="1" transform="rotate(0 1645.011 1135.8364)">
<svg width="177.9244" height="100.1259" x="1645.011" y="1135.8364" version="1.1" preserveAspectRatio="none" viewBox="23.5 57 153.00001525878906 86.10000610351562">
  <g transform="matrix(1 0 0 1 0 0)"><g><path d="M176.1 57.4c-.2-.2-.6-.4-.9-.4h-41.8c-.1 0-.3 0-.4.1-.1 0-.2.1-.3.1L99.6 77.9H58.2c-.2 0-.5.1-.7.2L24.2 98.9l-.2.1c-.2.1-.3.3-.4.5-.1.1-.1.2-.1.3v42c0 .7.6 1.3 1.3 1.3h41.8c.1 0 .3 0 .4-.1.1 0 .2-.1.3-.1l33.1-20.7h41.4c.2 0 .5-.1.7-.2l33.3-20.8.1-.1c.4-.2.6-.6.6-1.1V58.3c0-.4-.1-.7-.4-.9zM65.3 101.3v39.2H26v-39.2h39.3zm30.3-20.9L66.2 98.7h-37l29.4-18.3h37zm75.2 20.9l-29.4 18.3h-37l29.4-18.3h37zm-38.6-40.8v38.8l-64.4 40.2v-38.8l64.4-40.2zm41.8-1v39.2h-39.3V59.5H174z" data-color="1" class="icon1"></path></g></g>
</svg>
</g><g opacity="1" transform="rotate(0 1547.2164 1413.9623)">
<svg width="373.5135" height="28.8" x="1547.2164" y="1413.9623" version="1.1" preserveAspectRatio="none" viewBox="0.0391 -29.5117 488.0273 37.636700000000005">
  <g transform="matrix(1 0 0 1 0 0)" class="companyName"><path id="id-6izo4zJp26" d="M6.46-28.44L12.34-15.63L18.26-28.44L24.67-28.44L15.33-10.31L15.33 0L9.38 0L9.38-10.31L0.04-28.44L6.46-28.44Z M25.55-10.51L25.55-10.76Q25.55-13.91 26.76-16.37Q27.97-18.83 30.24-20.18Q32.52-21.52 35.53-21.52L35.53-21.52Q39.80-21.52 42.51-18.91Q45.21-16.29 45.53-11.80L45.53-11.80L45.57-10.35Q45.57-5.49 42.85-2.55Q40.14 0.39 35.57 0.39Q31.00 0.39 28.27-2.54Q25.55-5.47 25.55-10.51L25.55-10.51ZM31.19-10.35L31.19-10.35Q31.19-7.34 32.32-5.75Q33.46-4.16 35.57-4.16L35.57-4.16Q37.62-4.16 38.77-5.73Q39.92-7.30 39.92-10.76L39.92-10.76Q39.92-13.71 38.77-15.33Q37.62-16.95 35.53-16.95L35.53-16.95Q33.46-16.95 32.32-15.34Q31.19-13.73 31.19-10.35Z M62.65 0L62.50-2.15Q60.41 0.39 56.72 0.39L56.72 0.39Q53.32 0.39 51.53-1.56Q49.74-3.52 49.71-7.29L49.71-7.29L49.71-21.13L55.35-21.13L55.35-7.48Q55.35-4.18 58.36-4.18L58.36-4.18Q61.23-4.18 62.30-6.17L62.30-6.17L62.30-21.13L67.97-21.13L67.97 0L62.65 0Z M84.98-21.27L84.90-15.84Q83.75-16.00 82.87-16.00L82.87-16.00Q79.67-16.00 78.67-13.83L78.67-13.83L78.67 0L73.02 0L73.02-21.13L78.36-21.13L78.51-18.61Q80.21-21.52 83.22-21.52L83.22-21.52Q84.16-21.52 84.98-21.27L84.98-21.27Z M103.65-28.44L110.05-7.05L116.50-28.44L123.02-28.44L113.12 0L107.01 0L97.14-28.44L103.65-28.44Z M132.09-21.13L132.09 0L126.42 0L126.42-21.13L132.09-21.13ZM126.09-26.60L126.09-26.60Q126.09-27.87 126.94-28.69Q127.79-29.51 129.25-29.51L129.25-29.51Q130.70-29.51 131.56-28.69Q132.42-27.87 132.42-26.60L132.42-26.60Q132.42-25.31 131.55-24.49Q130.68-23.67 129.25-23.67Q127.83-23.67 126.96-24.49Q126.09-25.31 126.09-26.60Z M148.98-5.84L148.98-5.84Q148.98-6.88 147.95-7.47Q146.93-8.07 144.66-8.54L144.66-8.54Q137.12-10.12 137.12-14.94L137.12-14.94Q137.12-17.75 139.46-19.64Q141.79-21.52 145.56-21.52L145.56-21.52Q149.58-21.52 152.00-19.63Q154.41-17.73 154.41-14.71L154.41-14.71L148.76-14.71Q148.76-15.92 147.98-16.71Q147.20-17.50 145.54-17.50L145.54-17.50Q144.12-17.50 143.33-16.86Q142.55-16.21 142.55-15.21L142.55-15.21Q142.55-14.28 143.44-13.70Q144.33-13.13 146.44-12.71Q148.55-12.29 149.99-11.76L149.99-11.76Q154.47-10.12 154.47-6.07L154.47-6.07Q154.47-3.18 151.99-1.40Q149.51 0.39 145.58 0.39L145.58 0.39Q142.92 0.39 140.86-0.56Q138.80-1.50 137.63-3.15Q136.46-4.80 136.46-6.72L136.46-6.72L141.81-6.72Q141.89-5.21 142.92-4.41Q143.96-3.61 145.70-3.61L145.70-3.61Q147.32-3.61 148.15-4.23Q148.98-4.84 148.98-5.84Z M164.86-21.13L164.86 0L159.19 0L159.19-21.13L164.86-21.13ZM158.86-26.60L158.86-26.60Q158.86-27.87 159.71-28.69Q160.56-29.51 162.03-29.51L162.03-29.51Q163.47-29.51 164.33-28.69Q165.19-27.87 165.19-26.60L165.19-26.60Q165.19-25.31 164.32-24.49Q163.45-23.67 162.03-23.67Q160.60-23.67 159.73-24.49Q158.86-25.31 158.86-26.60Z M169.43-10.51L169.43-10.76Q169.43-13.91 170.64-16.37Q171.85-18.83 174.12-20.18Q176.40-21.52 179.41-21.52L179.41-21.52Q183.68-21.52 186.39-18.91Q189.09-16.29 189.41-11.80L189.41-11.80L189.45-10.35Q189.45-5.49 186.73-2.55Q184.02 0.39 179.45 0.39Q174.88 0.39 172.15-2.54Q169.43-5.47 169.43-10.51L169.43-10.51ZM175.07-10.35L175.07-10.35Q175.07-7.34 176.20-5.75Q177.34-4.16 179.45-4.16L179.45-4.16Q181.50-4.16 182.65-5.73Q183.80-7.30 183.80-10.76L183.80-10.76Q183.80-13.71 182.65-15.33Q181.50-16.95 179.41-16.95L179.41-16.95Q177.34-16.95 176.20-15.34Q175.07-13.73 175.07-10.35Z M193.61-21.13L198.92-21.13L199.09-18.69Q201.36-21.52 205.17-21.52L205.17-21.52Q208.53-21.52 210.17-19.55Q211.81-17.58 211.85-13.65L211.85-13.65L211.85 0L206.20 0L206.20-13.52Q206.20-15.31 205.42-16.12Q204.64-16.93 202.82-16.93L202.82-16.93Q200.44-16.93 199.25-14.90L199.25-14.90L199.25 0L193.61 0L193.61-21.13Z M218.39 7.13L218.39 7.13L215.44 5.59L216.14 4.32Q217.45 1.93 217.49-0.43L217.49-0.43L217.49-4.80L222.26-4.80L222.24-0.90Q222.22 1.27 221.14 3.48Q220.07 5.68 218.39 7.13Z M261.98-14.84L261.98-13.57Q261.98-9.38 260.50-6.21Q259.01-3.05 256.25-1.33Q253.49 0.39 249.91 0.39L249.91 0.39Q246.38 0.39 243.60-1.31Q240.83-3.01 239.31-6.16Q237.78-9.32 237.76-13.42L237.76-13.42L237.76-14.82Q237.76-19.02 239.28-22.22Q240.79-25.41 243.55-27.12Q246.32-28.83 249.87-28.83Q253.43-28.83 256.19-27.12Q258.95-25.41 260.47-22.22Q261.98-19.02 261.98-14.84L261.98-14.84ZM256.04-13.48L256.04-14.86Q256.04-19.34 254.44-21.66Q252.84-23.98 249.87-23.98L249.87-23.98Q246.92-23.98 245.32-21.69Q243.72-19.39 243.70-14.96L243.70-14.96L243.70-13.57Q243.70-9.22 245.30-6.82Q246.90-4.41 249.91-4.41L249.91-4.41Q252.86-4.41 254.44-6.73Q256.03-9.04 256.04-13.48L256.04-13.48Z M279.48 0L279.33-2.15Q277.24 0.39 273.54 0.39L273.54 0.39Q270.15 0.39 268.36-1.56Q266.57-3.52 266.53-7.29L266.53-7.29L266.53-21.13L272.18-21.13L272.18-7.48Q272.18-4.18 275.18-4.18L275.18-4.18Q278.06-4.18 279.13-6.17L279.13-6.17L279.13-21.13L284.79-21.13L284.79 0L279.48 0Z M301.80-21.27L301.73-15.84Q300.57-16.00 299.70-16.00L299.70-16.00Q296.49-16.00 295.50-13.83L295.50-13.83L295.50 0L289.85 0L289.85-21.13L295.18-21.13L295.34-18.61Q297.04-21.52 300.05-21.52L300.05-21.52Q300.98-21.52 301.80-21.27L301.80-21.27Z M333.48-16.91L333.48-12.32L322.23-12.32L322.23-4.71L335.44-4.71L335.44 0L316.37 0L316.37-28.44L335.40-28.44L335.40-23.69L322.23-23.69L322.23-16.91L333.48-16.91Z M343.87-21.13L347.35-14.82L350.90-21.13L356.94-21.13L350.92-10.78L357.19 0L351.14 0L347.37-6.64L343.62 0L337.54 0L343.81-10.78L337.82-21.13L343.87-21.13Z M379.48-10.66L379.48-10.37Q379.48-5.49 377.26-2.55Q375.04 0.39 371.27 0.39L371.27 0.39Q368.07 0.39 366.10-1.84L366.10-1.84L366.10 8.13L360.45 8.13L360.45-21.13L365.69-21.13L365.88-19.06Q367.93-21.52 371.24-21.52L371.24-21.52Q375.14-21.52 377.31-18.63Q379.48-15.74 379.48-10.66L379.48-10.66ZM373.83-10.78L373.83-10.78Q373.83-13.73 372.79-15.33Q371.74-16.93 369.75-16.93L369.75-16.93Q367.09-16.93 366.10-14.90L366.10-14.90L366.10-6.25Q367.13-4.16 369.79-4.16L369.79-4.16Q373.83-4.16 373.83-10.78Z M393.50 0.39L393.50 0.39Q388.85 0.39 385.93-2.46Q383.01-5.31 383.01-10.06L383.01-10.06L383.01-10.61Q383.01-13.79 384.24-16.30Q385.47-18.81 387.73-20.17Q389.98-21.52 392.88-21.52L392.88-21.52Q397.21-21.52 399.70-18.79Q402.19-16.05 402.19-11.04L402.19-11.04L402.19-8.73L388.73-8.73Q389.01-6.66 390.38-5.41Q391.76-4.16 393.87-4.16L393.87-4.16Q397.13-4.16 398.97-6.52L398.97-6.52L401.74-3.42Q400.47-1.62 398.30-0.62Q396.14 0.39 393.50 0.39ZM392.86-16.95L392.86-16.95Q391.18-16.95 390.13-15.82Q389.09-14.69 388.79-12.58L388.79-12.58L396.64-12.58L396.64-13.03Q396.61-14.90 395.63-15.93Q394.65-16.95 392.86-16.95Z M418.15-21.27L418.07-15.84Q416.92-16.00 416.04-16.00L416.04-16.00Q412.84-16.00 411.84-13.83L411.84-13.83L411.84 0L406.19 0L406.19-21.13L411.53-21.13L411.68-18.61Q413.38-21.52 416.39-21.52L416.39-21.52Q417.33-21.52 418.15-21.27L418.15-21.27Z M423.67-26.33L429.32-26.33L429.32-21.13L432.93-21.13L432.93-16.99L429.32-16.99L429.32-6.45Q429.32-5.27 429.77-4.77Q430.22-4.26 431.49-4.26L431.49-4.26Q432.42-4.26 433.15-4.39L433.15-4.39L433.15-0.12Q431.49 0.39 429.73 0.39L429.73 0.39Q423.79 0.39 423.67-5.61L423.67-5.61L423.67-16.99L420.59-16.99L420.59-21.13L423.67-21.13L423.67-26.33Z M442.83-21.13L442.83 0L437.17 0L437.17-21.13L442.83-21.13ZM436.84-26.60L436.84-26.60Q436.84-27.87 437.69-28.69Q438.54-29.51 440.00-29.51L440.00-29.51Q441.45-29.51 442.31-28.69Q443.17-27.87 443.17-26.60L443.17-26.60Q443.17-25.31 442.30-24.49Q441.43-23.67 440.00-23.67Q438.58-23.67 437.71-24.49Q436.84-25.31 436.84-26.60Z M459.73-5.84L459.73-5.84Q459.73-6.88 458.70-7.47Q457.68-8.07 455.41-8.54L455.41-8.54Q447.87-10.12 447.87-14.94L447.87-14.94Q447.87-17.75 450.21-19.64Q452.54-21.52 456.31-21.52L456.31-21.52Q460.33-21.52 462.74-19.63Q465.16-17.73 465.16-14.71L465.16-14.71L459.51-14.71Q459.51-15.92 458.73-16.71Q457.95-17.50 456.29-17.50L456.29-17.50Q454.86-17.50 454.08-16.86Q453.30-16.21 453.30-15.21L453.30-15.21Q453.30-14.28 454.19-13.70Q455.08-13.13 457.19-12.71Q459.30-12.29 460.74-11.76L460.74-11.76Q465.22-10.12 465.22-6.07L465.22-6.07Q465.22-3.18 462.74-1.40Q460.25 0.39 456.33 0.39L456.33 0.39Q453.67 0.39 451.61-0.56Q449.55-1.50 448.38-3.15Q447.21-4.80 447.21-6.72L447.21-6.72L452.56-6.72Q452.64-5.21 453.67-4.41Q454.71-3.61 456.45-3.61L456.45-3.61Q458.07-3.61 458.90-4.23Q459.73-4.84 459.73-5.84Z M479.38 0.39L479.38 0.39Q474.73 0.39 471.81-2.46Q468.89-5.31 468.89-10.06L468.89-10.06L468.89-10.61Q468.89-13.79 470.12-16.30Q471.35-18.81 473.60-20.17Q475.86-21.52 478.75-21.52L478.75-21.52Q483.09-21.52 485.58-18.79Q488.07-16.05 488.07-11.04L488.07-11.04L488.07-8.73L474.61-8.73Q474.88-6.66 476.26-5.41Q477.64-4.16 479.75-4.16L479.75-4.16Q483.01-4.16 484.84-6.52L484.84-6.52L487.62-3.42Q486.35-1.62 484.18-0.62Q482.01 0.39 479.38 0.39ZM478.73-16.95L478.73-16.95Q477.05-16.95 476.01-15.82Q474.96-14.69 474.67-12.58L474.67-12.58L482.52-12.58L482.52-13.03Q482.48-14.90 481.50-15.93Q480.53-16.95 478.73-16.95Z"/></g>
</svg>
</g><g opacity="1" transform="rotate(0 1556.0488 1275.9623)">
<svg width="355.8487" height="120" x="1556.0488" y="1275.9623" version="1.1" preserveAspectRatio="none" viewBox="1.64 -25.44 75.44 25.44">
  <g transform="matrix(1 0 0 1 0 0)" class="companyName"><path id="id-D6z1nYkh4" d="M6.72-25.44L6.72-25.44L12.08-25.44Q17.12-25.44 17.12-21.04L17.12-21.04L17.12-4.44Q17.12 0 12.08 0L12.08 0L6.72 0Q1.64 0 1.64-4.44L1.64-4.44L1.64-21.04Q1.64-25.44 6.72-25.44ZM11.40-5.20L11.40-5.20L11.40-20.24Q11.40-21.24 10.36-21.24L10.36-21.24L8.44-21.24Q7.36-21.24 7.36-20.24L7.36-20.24L7.36-5.20Q7.36-4.20 8.44-4.20L8.44-4.20L10.36-4.20Q11.40-4.20 11.40-5.20Z M28.04-9.52L27.04-9.52L27.04 0L21.36 0L21.36-25.44L31.84-25.44Q36.88-25.44 36.88-21.04L36.88-21.04L36.88-13.92Q36.88-10.40 33.68-9.68L33.68-9.68L38.16 0L32.04 0L28.04-9.52ZM30.12-21.24L27.04-21.24L27.04-13.56L30.12-13.56Q30.68-13.56 30.92-13.78Q31.16-14 31.16-14.52L31.16-14.52L31.16-20.24Q31.16-21.24 30.12-21.24L30.12-21.24Z M55.96-21.04L55.96-16.52L50.20-16.52L50.20-20.52Q50.20-21.52 49.16-21.52L49.16-21.52L47.52-21.52Q46.44-21.52 46.44-20.52L46.44-20.52L46.44-4.92Q46.44-4.36 46.68-4.14Q46.92-3.92 47.52-3.92L47.52-3.92L49.16-3.92Q49.72-3.92 49.96-4.14Q50.20-4.36 50.20-4.92L50.20-4.92L50.20-8.80L55.96-8.80L55.96-4.40Q55.96 0 50.88 0L50.88 0L45.76 0Q40.72 0 40.72-4.40L40.72-4.40L40.72-21.04Q40.72-25.44 45.76-25.44L45.76-25.44L50.88-25.44Q55.96-25.44 55.96-21.04L55.96-21.04Z M77.08 0L71.32 0L70.44-4.60L64.64-4.60L63.76 0L58.12 0L63.88-25.44L71.16-25.44L77.08 0ZM67.52-19.52L65.44-8.76L69.60-8.76L67.52-19.52Z"/></g>
</svg>
</g></svg></svg>