<svg version="1.1" preserveAspectRatio="none" xmlns="http://www.w3.org/2000/svg" width="500" height="500" viewBox="0 0 500 500"><rect width="100%" height="100%" fill="#010506" fill-opacity="1"/><svg viewBox="164.8061 530.5338 541.3298 179.4" width="333" height="110.35823263378444" x="83.5px" y="194.8209px" xmlns="http://www.w3.org/2000/svg" xmlns:xlink="http://www.w3.org/1999/xlink" preserveAspectRatio="none"><defs></defs><style>.background {fill:#010506;fill-opacity:1;}.companyName {fill:#EEF8F7;fill-opacity:1;}.icon1 {fill:#E35F21;fill-opacity:1;}.icon2 {fill:#EEF8F7;fill-opacity:1;}.icon3 {fill:#FAAB05;fill-opacity:1;}.icon3-str {stroke:#FAAB05;stroke-opacity:1;}.shapeStroke-str {stroke:#E35F21;stroke-opacity:1;}.text {fill:#EEF8F7;fill-opacity:1;}</style><g opacity="1" transform="rotate(0 164.8061 530.5338)">
<svg width="179.4" height="179.4" x="164.8061" y="530.5338" version="1.1" preserveAspectRatio="none" viewBox="0 0 179.4 179.4">
  <defs><rect x="0" y="0" width="179.4" height="179.4" rx="150px" ry="150px" id="id-3WKIowxM31697810598261"></rect></defs><use class="icon1 shapeStroke-str" style="stroke-width:0;" xlink:href="#id-3WKIowxM31697810598261"></use>
</svg>
</g><g opacity="1" transform="rotate(0 191.7161 565.8158)">
<svg width="125.58" height="108.836" x="191.7161" y="565.8158" version="1.1" preserveAspectRatio="none" viewBox="4 5.099999904632568 24 20.799999237060547">
  <g transform="matrix(1 0 0 1 0 0)" class="background"><path d="M16,5.1L4,25.9h24L16,5.1z M6,24.9L16,7.6l7.3,12.6l-2.7,4.7H6z"></path></g>
</svg>
</g><g opacity="1" transform="rotate(0 364.2061 667.2338)">
<svg width="317.4516" height="22" x="364.2061" y="667.2338" version="1.1" preserveAspectRatio="none" viewBox="0.76 -30.64 592.1999999999999 41.040000000000006">
  <g transform="matrix(1 0 0 1 0 0)" class="text"><path id="id-6izo4zJp26" d="M18.80-28.20L22.96-28.20L13.72-10.68L13.72 0L10.04 0L10.04-10.68L0.76-28.20L5-28.20L11.92-14.56L18.80-28.20Z M40.60-22.24Q43.76-22.24 46.26-20.88Q48.76-19.52 50.18-16.96Q51.60-14.40 51.60-10.96L51.60-10.96Q51.60-7.52 50.18-4.98Q48.76-2.44 46.26-1.08Q43.76 0.28 40.60 0.28L40.60 0.28Q37.44 0.28 34.94-1.08Q32.44-2.44 31-4.98Q29.56-7.52 29.56-10.96L29.56-10.96Q29.56-14.40 31-16.96Q32.44-19.52 34.94-20.88Q37.44-22.24 40.60-22.24L40.60-22.24ZM40.60-19.04Q38.64-19.04 36.98-18.16Q35.32-17.28 34.30-15.46Q33.28-13.64 33.28-10.96L33.28-10.96Q33.28-8.32 34.30-6.50Q35.32-4.68 36.98-3.80Q38.64-2.92 40.60-2.92L40.60-2.92Q42.56-2.92 44.22-3.80Q45.88-4.68 46.90-6.50Q47.92-8.32 47.92-10.96L47.92-10.96Q47.92-13.64 46.90-15.46Q45.88-17.28 44.22-18.16Q42.56-19.04 40.60-19.04L40.60-19.04Z M76.24-21.96L79.88-21.96L79.88 0L76.24 0L76.24-5.16Q75.40-2.48 73.26-1.06Q71.12 0.36 68.28 0.36L68.28 0.36Q64.48 0.36 62.12-2.10Q59.76-4.56 59.76-9.16L59.76-9.16L59.76-21.96L63.40-21.96L63.40-9.52Q63.40-6.24 65.08-4.46Q66.76-2.68 69.64-2.68L69.64-2.68Q72.64-2.68 74.44-4.62Q76.24-6.56 76.24-10.28L76.24-10.28L76.24-21.96Z M93.36-17.52Q94.44-19.80 96.52-21.06Q98.60-22.32 101.48-22.32L101.48-22.32L101.48-18.36L100.36-18.36Q97.28-18.36 95.32-16.78Q93.36-15.20 93.36-11.56L93.36-11.56L93.36 0L89.72 0L89.72-21.96L93.36-21.96L93.36-17.52Z M120.80-28.20L124.80-28.20L133.40-4.04L142.12-28.20L146.08-28.20L135.72 0L131.12 0L120.80-28.20Z M153.12-28.40Q153.12-29.40 153.80-30.02Q154.48-30.64 155.60-30.64L155.60-30.64Q156.72-30.64 157.40-30.02Q158.08-29.40 158.08-28.40L158.08-28.40Q158.08-27.40 157.40-26.78Q156.72-26.16 155.60-26.16L155.60-26.16Q154.48-26.16 153.80-26.78Q153.12-27.40 153.12-28.40L153.12-28.40ZM153.76-21.96L157.40-21.96L157.40 0L153.76 0L153.76-21.96Z M174.12-22.24Q177.84-22.24 180.10-20.30Q182.36-18.36 182.84-15.08L182.84-15.08L179.36-15.08Q179.12-17.04 177.74-18.30Q176.36-19.56 174.04-19.56L174.04-19.56Q172.08-19.56 170.98-18.62Q169.88-17.68 169.88-16.08L169.88-16.08Q169.88-14.88 170.62-14.14Q171.36-13.40 172.46-13.02Q173.56-12.64 175.48-12.20L175.48-12.20Q177.92-11.64 179.42-11.06Q180.92-10.48 181.98-9.20Q183.04-7.92 183.04-5.76L183.04-5.76Q183.04-3.08 181.02-1.40Q179 0.28 175.64 0.28L175.64 0.28Q171.72 0.28 169.24-1.60Q166.76-3.48 166.32-6.84L166.32-6.84L169.84-6.84Q170.04-4.84 171.58-3.60Q173.12-2.36 175.64-2.36L175.64-2.36Q177.52-2.36 178.58-3.32Q179.64-4.28 179.64-5.84L179.64-5.84Q179.64-7.12 178.88-7.88Q178.12-8.64 177-9.04Q175.88-9.44 173.92-9.88L173.92-9.88Q171.48-10.44 170.02-11Q168.56-11.56 167.54-12.78Q166.52-14 166.52-16.08L166.52-16.08Q166.52-18.84 168.56-20.54Q170.60-22.24 174.12-22.24L174.12-22.24Z M191.28-28.40Q191.28-29.40 191.96-30.02Q192.64-30.64 193.76-30.64L193.76-30.64Q194.88-30.64 195.56-30.02Q196.24-29.40 196.24-28.40L196.24-28.40Q196.24-27.40 195.56-26.78Q194.88-26.16 193.76-26.16L193.76-26.16Q192.64-26.16 191.96-26.78Q191.28-27.40 191.28-28.40L191.28-28.40ZM191.92-21.96L195.56-21.96L195.56 0L191.92 0L191.92-21.96Z M215.36-22.24Q218.52-22.24 221.02-20.88Q223.52-19.52 224.94-16.96Q226.36-14.40 226.36-10.96L226.36-10.96Q226.36-7.52 224.94-4.98Q223.52-2.44 221.02-1.08Q218.52 0.28 215.36 0.28L215.36 0.28Q212.20 0.28 209.70-1.08Q207.20-2.44 205.76-4.98Q204.32-7.52 204.32-10.96L204.32-10.96Q204.32-14.40 205.76-16.96Q207.20-19.52 209.70-20.88Q212.20-22.24 215.36-22.24L215.36-22.24ZM215.36-19.04Q213.40-19.04 211.74-18.16Q210.08-17.28 209.06-15.46Q208.04-13.64 208.04-10.96L208.04-10.96Q208.04-8.32 209.06-6.50Q210.08-4.68 211.74-3.80Q213.40-2.92 215.36-2.92L215.36-2.92Q217.32-2.92 218.98-3.80Q220.64-4.68 221.66-6.50Q222.68-8.32 222.68-10.96L222.68-10.96Q222.68-13.64 221.66-15.46Q220.64-17.28 218.98-18.16Q217.32-19.04 215.36-19.04L215.36-19.04Z M246.68-22.32Q250.52-22.32 252.88-19.86Q255.24-17.40 255.24-12.76L255.24-12.76L255.24 0L251.60 0L251.60-12.44Q251.60-15.72 249.92-17.48Q248.24-19.24 245.36-19.24L245.36-19.24Q242.36-19.24 240.56-17.30Q238.76-15.36 238.76-11.64L238.76-11.64L238.76 0L235.12 0L235.12-21.96L238.76-21.96L238.76-16.76Q239.60-19.44 241.74-20.88Q243.88-22.32 246.68-22.32L246.68-22.32Z M266.96-2.68Q267.52-0.92 267.52 0.60L267.52 0.60Q267.52 2.68 266.48 3.94Q265.44 5.20 263.36 5.20L263.36 5.20L263.36 3.64Q264.36 3.64 264.82 3.10Q265.28 2.56 265.28 1.40L265.28 1.40L265.28 1.04L263.24 1.04L263.24-2.68L266.96-2.68Z M302.64-28.56Q306.56-28.56 309.70-26.72Q312.84-24.88 314.64-21.58Q316.44-18.28 316.44-14.12L316.44-14.12Q316.44-9.96 314.64-6.66Q312.84-3.36 309.70-1.52Q306.56 0.32 302.64 0.32L302.64 0.32Q298.72 0.32 295.54-1.52Q292.36-3.36 290.56-6.66Q288.76-9.96 288.76-14.12L288.76-14.12Q288.76-18.28 290.56-21.58Q292.36-24.88 295.54-26.72Q298.72-28.56 302.64-28.56L302.64-28.56ZM302.64-25.16Q299.72-25.16 297.42-23.82Q295.12-22.48 293.82-19.98Q292.52-17.48 292.52-14.12L292.52-14.12Q292.52-10.80 293.82-8.28Q295.12-5.76 297.42-4.42Q299.72-3.08 302.64-3.08L302.64-3.08Q305.52-3.08 307.82-4.44Q310.12-5.80 311.42-8.30Q312.72-10.80 312.72-14.12L312.72-14.12Q312.72-17.48 311.42-19.98Q310.12-22.48 307.82-23.82Q305.52-25.16 302.64-25.16L302.64-25.16Z M341.24-21.96L344.88-21.96L344.88 0L341.24 0L341.24-5.16Q340.40-2.48 338.26-1.06Q336.12 0.36 333.28 0.36L333.28 0.36Q329.48 0.36 327.12-2.10Q324.76-4.56 324.76-9.16L324.76-9.16L324.76-21.96L328.40-21.96L328.40-9.52Q328.40-6.24 330.08-4.46Q331.76-2.68 334.64-2.68L334.64-2.68Q337.64-2.68 339.44-4.62Q341.24-6.56 341.24-10.28L341.24-10.28L341.24-21.96Z M358.36-17.52Q359.44-19.80 361.52-21.06Q363.60-22.32 366.48-22.32L366.48-22.32L366.48-18.36L365.36-18.36Q362.28-18.36 360.32-16.78Q358.36-15.20 358.36-11.56L358.36-11.56L358.36 0L354.72 0L354.72-21.96L358.36-21.96L358.36-17.52Z M403.52-25.24L391.60-25.24L391.60-15.60L402.32-15.60L402.32-12.80L391.60-12.80L391.60-2.96L403.52-2.96L403.52 0L387.96 0L387.96-28.20L403.52-28.20L403.52-25.24Z M429 0L424.84 0L419.12-8.40L413.96 0L409.92 0L417.12-11.32L409.88-21.96L414.04-21.96L419.60-13.80L424.68-21.96L428.72-21.96L421.56-10.92L429 0Z M448.52-22.24Q451.44-22.24 453.72-20.88Q456.00-19.52 457.30-16.96Q458.60-14.40 458.60-10.96L458.60-10.96Q458.60-7.52 457.30-4.98Q456.00-2.44 453.72-1.08Q451.44 0.28 448.52 0.28L448.52 0.28Q445.32 0.28 443.10-1.34Q440.88-2.96 440.04-5.60L440.04-5.60L440.04 10.40L436.40 10.40L436.40-21.96L440.04-21.96L440.04-16.36Q440.88-19 443.10-20.62Q445.32-22.24 448.52-22.24L448.52-22.24ZM447.48-19Q445.36-19 443.64-18.02Q441.92-17.04 440.96-15.20Q440.00-13.36 440.00-10.96L440.00-10.96Q440.00-8.56 440.96-6.74Q441.92-4.92 443.64-3.92Q445.36-2.92 447.48-2.92L447.48-2.92Q450.88-2.92 452.90-5.06Q454.92-7.20 454.92-10.96L454.92-10.96Q454.92-14.72 452.90-16.86Q450.88-19 447.48-19L447.48-19Z M487.56-12.20Q487.56-11.04 487.40-10.20L487.40-10.20L469.84-10.20Q469.96-6.44 471.98-4.56Q474.00-2.68 476.92-2.68L476.92-2.68Q479.56-2.68 481.34-4.02Q483.12-5.36 483.52-7.60L483.52-7.60L487.40-7.60Q487.00-5.32 485.62-3.52Q484.24-1.72 482.04-0.72Q479.84 0.28 477.08 0.28L477.08 0.28Q473.92 0.28 471.48-1.08Q469.04-2.44 467.66-4.98Q466.28-7.52 466.28-10.96L466.28-10.96Q466.28-14.40 467.66-16.96Q469.04-19.52 471.48-20.88Q473.92-22.24 477.08-22.24L477.08-22.24Q480.28-22.24 482.66-20.88Q485.04-19.52 486.30-17.24Q487.56-14.96 487.56-12.20L487.56-12.20ZM483.88-11.96Q484.00-14.40 483.08-16.04Q482.16-17.68 480.56-18.48Q478.96-19.28 477.08-19.28L477.08-19.28Q474.08-19.28 472.04-17.42Q470.00-15.56 469.84-11.96L469.84-11.96L483.88-11.96Z M499.96-17.52Q501.04-19.80 503.12-21.06Q505.20-22.32 508.08-22.32L508.08-22.32L508.08-18.36L506.96-18.36Q503.88-18.36 501.92-16.78Q499.96-15.20 499.96-11.56L499.96-11.56L499.96 0L496.32 0L496.32-21.96L499.96-21.96L499.96-17.52Z M523.92-3.20L526.16-3.20L526.16 0L523.44 0Q520.08 0 518.42-1.60Q516.76-3.20 516.76-6.96L516.76-6.96L516.76-18.80L513.48-18.80L513.48-21.96L516.76-21.96L516.76-27.44L520.44-27.44L520.44-21.96L526.12-21.96L526.12-18.80L520.44-18.80L520.44-6.88Q520.44-4.76 521.22-3.98Q522-3.20 523.92-3.20L523.92-3.20Z M533.96-28.40Q533.96-29.40 534.64-30.02Q535.32-30.64 536.44-30.64L536.44-30.64Q537.56-30.64 538.24-30.02Q538.92-29.40 538.92-28.40L538.92-28.40Q538.92-27.40 538.24-26.78Q537.56-26.16 536.44-26.16L536.44-26.16Q535.32-26.16 534.64-26.78Q533.96-27.40 533.96-28.40L533.96-28.40ZM534.60-21.96L538.24-21.96L538.24 0L534.60 0L534.60-21.96Z M554.96-22.24Q558.68-22.24 560.94-20.30Q563.20-18.36 563.68-15.08L563.68-15.08L560.20-15.08Q559.96-17.04 558.58-18.30Q557.20-19.56 554.88-19.56L554.88-19.56Q552.92-19.56 551.82-18.62Q550.72-17.68 550.72-16.08L550.72-16.08Q550.72-14.88 551.46-14.14Q552.20-13.40 553.30-13.02Q554.40-12.64 556.32-12.20L556.32-12.20Q558.76-11.64 560.26-11.06Q561.76-10.48 562.82-9.20Q563.88-7.92 563.88-5.76L563.88-5.76Q563.88-3.08 561.86-1.40Q559.84 0.28 556.48 0.28L556.48 0.28Q552.56 0.28 550.08-1.60Q547.60-3.48 547.16-6.84L547.16-6.84L550.68-6.84Q550.88-4.84 552.42-3.60Q553.96-2.36 556.48-2.36L556.48-2.36Q558.36-2.36 559.42-3.32Q560.48-4.28 560.48-5.84L560.48-5.84Q560.48-7.12 559.72-7.88Q558.96-8.64 557.84-9.04Q556.72-9.44 554.76-9.88L554.76-9.88Q552.32-10.44 550.86-11Q549.40-11.56 548.38-12.78Q547.36-14 547.36-16.08L547.36-16.08Q547.36-18.84 549.40-20.54Q551.44-22.24 554.96-22.24L554.96-22.24Z M592.96-12.20Q592.96-11.04 592.80-10.20L592.80-10.20L575.24-10.20Q575.36-6.44 577.38-4.56Q579.40-2.68 582.32-2.68L582.32-2.68Q584.96-2.68 586.74-4.02Q588.52-5.36 588.92-7.60L588.92-7.60L592.80-7.60Q592.40-5.32 591.02-3.52Q589.64-1.72 587.44-0.72Q585.24 0.28 582.48 0.28L582.48 0.28Q579.32 0.28 576.88-1.08Q574.44-2.44 573.06-4.98Q571.68-7.52 571.68-10.96L571.68-10.96Q571.68-14.40 573.06-16.96Q574.44-19.52 576.88-20.88Q579.32-22.24 582.48-22.24L582.48-22.24Q585.68-22.24 588.06-20.88Q590.44-19.52 591.70-17.24Q592.96-14.96 592.96-12.20L592.96-12.20ZM589.28-11.96Q589.40-14.40 588.48-16.04Q587.56-17.68 585.96-18.48Q584.36-19.28 582.48-19.28L582.48-19.28Q579.48-19.28 577.44-17.42Q575.40-15.56 575.24-11.96L575.24-11.96L589.28-11.96Z"/></g>
</svg>
</g><g opacity="1" transform="rotate(0 364.2061 551.2338)">
<svg width="341.9298" height="100" x="364.2061" y="551.2338" version="1.1" preserveAspectRatio="none" viewBox="1.52 -28.72 99.16000000000001 29">
  <g transform="matrix(1 0 0 1 0 0)" class="companyName"><path id="id-D6z1nYkh4" d="M15.80-28.72Q19.80-28.72 23.06-26.86Q26.32-25 28.20-21.70Q30.08-18.40 30.08-14.24L30.08-14.24Q30.08-10.08 28.18-6.76Q26.28-3.44 23.02-1.58Q19.76 0.28 15.80 0.28L15.80 0.28Q11.84 0.28 8.58-1.58Q5.32-3.44 3.42-6.76Q1.52-10.08 1.52-14.24L1.52-14.24Q1.52-18.40 3.42-21.70Q5.32-25 8.58-26.86Q11.84-28.72 15.80-28.72L15.80-28.72ZM15.80-22.36Q12.44-22.36 10.46-20.18Q8.48-18 8.48-14.24L8.48-14.24Q8.48-10.52 10.46-8.32Q12.44-6.12 15.80-6.12L15.80-6.12Q19.12-6.12 21.12-8.32Q23.12-10.52 23.12-14.24L23.12-14.24Q23.12-17.96 21.14-20.16Q19.16-22.36 15.80-22.36L15.80-22.36Z M41.56-18.12Q42.84-20.16 44.86-21.36Q46.88-22.56 49.24-22.56L49.24-22.56L49.24-15.24L47.28-15.24Q44.56-15.24 43.06-14.08Q41.56-12.92 41.56-10.16L41.56-10.16L41.56 0L34.72 0L34.72-22.32L41.56-22.32L41.56-18.12Z M63-22.60Q67.32-22.60 70.24-20.22Q73.16-17.84 73.92-13.68L73.92-13.68L66.68-13.68Q66.36-15.12 65.36-15.92Q64.36-16.72 62.84-16.72L62.84-16.72Q61.04-16.72 59.88-15.30Q58.72-13.88 58.72-11.16L58.72-11.16Q58.72-8.44 59.88-7.02Q61.04-5.60 62.84-5.60L62.84-5.60Q64.36-5.60 65.36-6.40Q66.36-7.20 66.68-8.64L66.68-8.64L73.92-8.64Q73.16-4.48 70.24-2.10Q67.32 0.28 63 0.28L63 0.28Q59.72 0.28 57.18-1.10Q54.64-2.48 53.20-5.08Q51.76-7.68 51.76-11.16L51.76-11.16Q51.76-14.68 53.18-17.26Q54.60-19.84 57.16-21.22Q59.72-22.60 63-22.60L63-22.60Z M86.76-22.60Q89.32-22.60 91.16-21.44Q93-20.28 93.88-18.28L93.88-18.28L93.88-22.32L100.68-22.32L100.68 0L93.88 0L93.88-4.04Q93-2.04 91.16-0.88Q89.32 0.28 86.76 0.28L86.76 0.28Q84 0.28 81.82-1.10Q79.64-2.48 78.38-5.08Q77.12-7.68 77.12-11.16L77.12-11.16Q77.12-14.68 78.38-17.26Q79.64-19.84 81.82-21.22Q84-22.60 86.76-22.60L86.76-22.60ZM88.96-16.60Q86.76-16.60 85.42-15.16Q84.08-13.72 84.08-11.16L84.08-11.16Q84.08-8.60 85.42-7.16Q86.76-5.72 88.96-5.72L88.96-5.72Q91.12-5.72 92.50-7.20Q93.88-8.68 93.88-11.16L93.88-11.16Q93.88-13.68 92.50-15.14Q91.12-16.60 88.96-16.60L88.96-16.60Z"/></g>
</svg>
</g></svg></svg>