<svg version="1.1" preserveAspectRatio="none" xmlns="http://www.w3.org/2000/svg" width="500" height="500" viewBox="0 0 500 500"><rect width="100%" height="100%" fill="#101010" fill-opacity="1"/><svg viewBox="66.225 144 367.55 212" width="333" height="192.07182696231803" x="83.5px" y="153.9641px" xmlns="http://www.w3.org/2000/svg" xmlns:xlink="http://www.w3.org/1999/xlink" preserveAspectRatio="none"><defs></defs><style>.icon1 {fill:#EBEBEB;fill-opacity:1;}.icon2 {fill:#D4D4D4;fill-opacity:1;}.icon3 {fill:#A0A0A0;fill-opacity:1;}.icon3-str {stroke:#A0A0A0;stroke-opacity:1;}</style><g opacity="1" transform="rotate(0 66.225 338)">
<svg width="367.55" height="18" x="66.225" y="338" version="1.1" preserveAspectRatio="none" viewBox="1.28 -28.32 648.52 31.759999999999998">
  <g transform="matrix(1 0 0 1 0 0)" class="icon3"><path id="id-6izo4zJp26" d="M7.32-0.04Q6.92-0.04 6.92-0.44L6.92-0.44L6.92-11.88L6.88-12.08L1.32-27.56L1.28-27.72Q1.28-28 1.64-28L1.64-28L4.84-28Q5.20-28 5.32-27.68L5.32-27.68L8.72-16.64Q8.76-16.56 8.84-16.56Q8.92-16.56 8.96-16.64L8.96-16.64L12.36-27.68Q12.48-28 12.84-28L12.84-28L16.04-28Q16.48-28 16.36-27.56L16.36-27.56L10.80-12.08L10.76-11.88L10.76-0.44Q10.76-0.04 10.36-0.04L10.36-0.04L7.32-0.04Z M36.28 0.32Q33 0.32 31-1.68Q29-3.68 29-7L29-7L29-20.96Q29-24.28 31-26.30Q33-28.32 36.28-28.32L36.28-28.32Q39.60-28.32 41.62-26.30Q43.64-24.28 43.64-20.96L43.64-20.96L43.64-7Q43.64-3.68 41.62-1.68Q39.60 0.32 36.28 0.32L36.28 0.32ZM36.28-3Q37.88-3 38.84-4.06Q39.80-5.12 39.80-6.84L39.80-6.84L39.80-21.16Q39.80-22.88 38.84-23.94Q37.88-25 36.28-25L36.28-25Q34.72-25 33.78-23.94Q32.84-22.88 32.84-21.16L32.84-21.16L32.84-6.84Q32.84-5.12 33.78-4.06Q34.72-3 36.28-3L36.28-3Z M65.08 0.32Q61.80 0.32 59.82-1.86Q57.84-4.04 57.84-7.60L57.84-7.60L57.84-27.60Q57.84-28 58.24-28L58.24-28L61.28-28Q61.68-28 61.68-27.60L61.68-27.60L61.68-7.20Q61.68-5.32 62.62-4.16Q63.56-3 65.08-3L65.08-3Q66.64-3 67.58-4.16Q68.52-5.32 68.52-7.20L68.52-7.20L68.52-27.60Q68.52-28 68.92-28L68.92-28L71.96-28Q72.36-28 72.36-27.60L72.36-27.60L72.36-7.60Q72.36-4.04 70.36-1.86Q68.36 0.32 65.08 0.32L65.08 0.32Z M98.24 0Q97.88 0 97.76-0.32L97.76-0.32L94.04-12.32Q94-12.44 93.88-12.44L93.88-12.44L91.12-12.44Q90.96-12.44 90.96-12.28L90.96-12.28L90.96-0.40Q90.96 0 90.56 0L90.56 0L87.52 0Q87.12 0 87.12-0.40L87.12-0.40L87.12-27.64Q87.12-28.04 87.52-28.04L87.52-28.04L94.68-28.04Q96.72-28.04 98.28-27.04Q99.84-26.04 100.70-24.22Q101.56-22.40 101.56-20.08L101.56-20.08Q101.56-17.56 100.50-15.70Q99.44-13.84 97.64-13.04L97.64-13.04Q97.52-12.92 97.56-12.80L97.56-12.80L101.68-0.44L101.72-0.28Q101.72 0 101.36 0L101.36 0L98.24 0ZM91.12-24.72Q90.96-24.72 90.96-24.56L90.96-24.56L90.96-15.60Q90.96-15.44 91.12-15.44L91.12-15.44L94.08-15.44Q95.72-15.44 96.72-16.70Q97.72-17.96 97.72-20.04L97.72-20.04Q97.72-22.20 96.72-23.46Q95.72-24.72 94.08-24.72L94.08-24.72L91.12-24.72Z M138.20 0Q137.84 0 137.76-0.36L137.76-0.36L132-27.56L132-27.64Q132-28 132.36-28L132.36-28L135.68-28Q136.08-28 136.12-27.64L136.12-27.64L139.92-6.88Q139.96-6.80 140-6.80Q140.04-6.80 140.08-6.88L140.08-6.88L143.80-27.64Q143.88-28 144.24-28L144.24-28L147.44-28Q147.88-28 147.80-27.56L147.80-27.56L142.04-0.36Q142 0 141.60 0L141.60 0L138.20 0Z M161.92 0Q161.52 0 161.52-0.40L161.52-0.40L161.52-27.60Q161.52-28 161.92-28L161.92-28L164.96-28Q165.36-28 165.36-27.60L165.36-27.60L165.36-0.40Q165.36 0 164.96 0L164.96 0L161.92 0Z M186.68 0.32Q183.52 0.32 181.58-1.66Q179.64-3.64 179.64-6.84L179.64-6.84L179.64-7.92Q179.64-8.32 180.04-8.32L180.04-8.32L183-8.32Q183.40-8.32 183.40-7.92L183.40-7.92L183.40-7.04Q183.40-5.20 184.32-4.10Q185.24-3 186.68-3L186.68-3Q188.12-3 189.06-4.06Q190-5.12 190-6.84L190-6.84Q190-8 189.50-8.88Q189-9.76 188.18-10.46Q187.36-11.16 185.52-12.52L185.52-12.52Q183.48-14.04 182.32-15.12Q181.16-16.20 180.36-17.72Q179.56-19.24 179.56-21.28L179.56-21.28Q179.56-24.52 181.48-26.42Q183.40-28.32 186.48-28.32L186.48-28.32Q189.68-28.32 191.62-26.28Q193.56-24.24 193.56-20.92L193.56-20.92L193.56-19.92Q193.56-19.52 193.16-19.52L193.16-19.52L190.20-19.52Q189.80-19.52 189.80-19.92L189.80-19.92L189.80-21Q189.80-22.80 188.88-23.90Q187.96-25 186.48-25L186.48-25Q185.08-25 184.22-24.02Q183.36-23.04 183.36-21.28L183.36-21.28Q183.36-19.68 184.24-18.58Q185.12-17.48 187.60-15.64L187.60-15.64Q190.04-13.84 191.26-12.72Q192.48-11.60 193.14-10.26Q193.80-8.92 193.80-7.08L193.80-7.08Q193.80-3.72 191.82-1.70Q189.84 0.32 186.68 0.32L186.68 0.32Z M208.08 0Q207.68 0 207.68-0.40L207.68-0.40L207.68-27.60Q207.68-28 208.08-28L208.08-28L211.12-28Q211.52-28 211.52-27.60L211.52-27.60L211.52-0.40Q211.52 0 211.12 0L211.12 0L208.08 0Z M233.20 0.32Q229.92 0.32 227.92-1.68Q225.92-3.68 225.92-7L225.92-7L225.92-20.96Q225.92-24.28 227.92-26.30Q229.92-28.32 233.20-28.32L233.20-28.32Q236.52-28.32 238.54-26.30Q240.56-24.28 240.56-20.96L240.56-20.96L240.56-7Q240.56-3.68 238.54-1.68Q236.52 0.32 233.20 0.32L233.20 0.32ZM233.20-3Q234.80-3 235.76-4.06Q236.72-5.12 236.72-6.84L236.72-6.84L236.72-21.16Q236.72-22.88 235.76-23.94Q234.80-25 233.20-25L233.20-25Q231.64-25 230.70-23.94Q229.76-22.88 229.76-21.16L229.76-21.16L229.76-6.84Q229.76-5.12 230.70-4.06Q231.64-3 233.20-3L233.20-3Z M255.40 0Q255 0 255-0.40L255-0.40L255-27.60Q255-28 255.40-28L255.40-28L258.48-28Q258.80-28 258.92-27.68L258.92-27.68L266.04-10.04Q266.08-9.92 266.16-9.94Q266.24-9.96 266.24-10.08L266.24-10.08L266.24-27.60Q266.24-28 266.64-28L266.64-28L269.64-28Q270.04-28 270.04-27.60L270.04-27.60L270.04-0.40Q270.04 0 269.64 0L269.64 0L266.52 0Q266.20 0 266.08-0.32L266.08-0.32L258.96-17.96Q258.92-18.08 258.84-18.08Q258.76-18.08 258.76-17.96L258.76-17.96L258.80-0.40Q258.80 0 258.40 0L258.40 0L255.40 0Z M284.32 3.44Q284.12 3.44 284 3.30Q283.88 3.16 283.92 3L283.92 3L285.08-5.88Q285.12-6.24 285.48-6.24L285.48-6.24L288.12-6.24Q288.56-6.24 288.48-5.80L288.48-5.80L286.56 3.08Q286.52 3.44 286.12 3.44L286.12 3.44L284.32 3.44Z M327.28 0.32Q324 0.32 322-1.68Q320-3.68 320-7L320-7L320-20.96Q320-24.28 322-26.30Q324-28.32 327.28-28.32L327.28-28.32Q330.60-28.32 332.62-26.30Q334.64-24.28 334.64-20.96L334.64-20.96L334.64-7Q334.64-3.68 332.62-1.68Q330.60 0.32 327.28 0.32L327.28 0.32ZM327.28-3Q328.88-3 329.84-4.06Q330.80-5.12 330.80-6.84L330.80-6.84L330.80-21.16Q330.80-22.88 329.84-23.94Q328.88-25 327.28-25L327.28-25Q325.72-25 324.78-23.94Q323.84-22.88 323.84-21.16L323.84-21.16L323.84-6.84Q323.84-5.12 324.78-4.06Q325.72-3 327.28-3L327.28-3Z M356.08 0.32Q352.80 0.32 350.82-1.86Q348.84-4.04 348.84-7.60L348.84-7.60L348.84-27.60Q348.84-28 349.24-28L349.24-28L352.28-28Q352.68-28 352.68-27.60L352.68-27.60L352.68-7.20Q352.68-5.32 353.62-4.16Q354.56-3 356.08-3L356.08-3Q357.64-3 358.58-4.16Q359.52-5.32 359.52-7.20L359.52-7.20L359.52-27.60Q359.52-28 359.92-28L359.92-28L362.96-28Q363.36-28 363.36-27.60L363.36-27.60L363.36-7.60Q363.36-4.04 361.36-1.86Q359.36 0.32 356.08 0.32L356.08 0.32Z M389.24 0Q388.88 0 388.76-0.32L388.76-0.32L385.04-12.32Q385-12.44 384.88-12.44L384.88-12.44L382.12-12.44Q381.96-12.44 381.96-12.28L381.96-12.28L381.96-0.40Q381.96 0 381.56 0L381.56 0L378.52 0Q378.12 0 378.12-0.40L378.12-0.40L378.12-27.64Q378.12-28.04 378.52-28.04L378.52-28.04L385.68-28.04Q387.72-28.04 389.28-27.04Q390.84-26.04 391.70-24.22Q392.56-22.40 392.56-20.08L392.56-20.08Q392.56-17.56 391.50-15.70Q390.44-13.84 388.64-13.04L388.64-13.04Q388.52-12.92 388.56-12.80L388.56-12.80L392.68-0.44L392.72-0.28Q392.72 0 392.36 0L392.36 0L389.24 0ZM382.12-24.72Q381.96-24.72 381.96-24.56L381.96-24.56L381.96-15.60Q381.96-15.44 382.12-15.44L382.12-15.44L385.08-15.44Q386.72-15.44 387.72-16.70Q388.72-17.96 388.72-20.04L388.72-20.04Q388.72-22.20 387.72-23.46Q386.72-24.72 385.08-24.72L385.08-24.72L382.12-24.72Z M437.64-25.08Q437.64-24.68 437.24-24.68L437.24-24.68L428.24-24.68Q428.08-24.68 428.08-24.52L428.08-24.52L428.08-15.84Q428.08-15.68 428.24-15.68L428.24-15.68L433.76-15.68Q434.16-15.68 434.16-15.28L434.16-15.28L434.16-12.76Q434.16-12.36 433.76-12.36L433.76-12.36L428.24-12.36Q428.08-12.36 428.08-12.20L428.08-12.20L428.08-3.48Q428.08-3.32 428.24-3.32L428.24-3.32L437.24-3.32Q437.64-3.32 437.64-2.92L437.64-2.92L437.64-0.40Q437.64 0 437.24 0L437.24 0L424.64 0Q424.24 0 424.24-0.40L424.24-0.40L424.24-27.60Q424.24-28 424.64-28L424.64-28L437.24-28Q437.64-28 437.64-27.60L437.64-27.60L437.64-25.08Z M450.72 0Q450.52 0 450.42-0.14Q450.32-0.28 450.40-0.48L450.40-0.48L455.96-13.88Q456.04-14 455.96-14.12L455.96-14.12L450.40-27.52L450.36-27.68Q450.36-28 450.72-28L450.72-28L453.84-28Q454.16-28 454.28-27.68L454.28-27.68L457.92-18.04Q457.96-17.92 458.04-17.92Q458.12-17.92 458.16-18.04L458.16-18.04L461.76-27.68Q461.88-28 462.20-28L462.20-28L465.32-28Q465.52-28 465.62-27.86Q465.72-27.72 465.64-27.52L465.64-27.52L460.08-14.08Q460.04-13.96 460.08-13.84L460.08-13.84L465.64-0.48L465.68-0.32Q465.68 0 465.32 0L465.32 0L462.24 0Q461.92 0 461.80-0.32L461.80-0.32L458.16-9.92Q458.12-10.04 458.04-10.04Q457.96-10.04 457.92-9.92L457.92-9.92L454.28-0.32Q454.16 0 453.84 0L453.84 0L450.72 0Z M487.00-28.04Q490.08-28.04 491.98-25.82Q493.88-23.60 493.88-20L493.88-20Q493.88-16.48 492.04-14.32Q490.20-12.16 487.20-12.16L487.20-12.16L483.44-12.16Q483.28-12.16 483.28-12L483.28-12L483.28-0.40Q483.28 0 482.88 0L482.88 0L479.84 0Q479.44 0 479.44-0.40L479.44-0.40L479.44-27.64Q479.44-28.04 479.84-28.04L479.84-28.04L487.00-28.04ZM486.40-15.24Q488.04-15.24 489.04-16.50Q490.04-17.76 490.04-19.92L490.04-19.92Q490.04-22.12 489.04-23.42Q488.04-24.72 486.40-24.72L486.40-24.72L483.44-24.72Q483.28-24.72 483.28-24.56L483.28-24.56L483.28-15.40Q483.28-15.24 483.44-15.24L483.44-15.24L486.40-15.24Z M520.92-25.08Q520.92-24.68 520.52-24.68L520.52-24.68L511.52-24.68Q511.36-24.68 511.36-24.52L511.36-24.52L511.36-15.84Q511.36-15.68 511.52-15.68L511.52-15.68L517.04-15.68Q517.44-15.68 517.44-15.28L517.44-15.28L517.44-12.76Q517.44-12.36 517.04-12.36L517.04-12.36L511.52-12.36Q511.36-12.36 511.36-12.20L511.36-12.20L511.36-3.48Q511.36-3.32 511.52-3.32L511.52-3.32L520.52-3.32Q520.92-3.32 520.92-2.92L520.92-2.92L520.92-0.40Q520.92 0 520.52 0L520.52 0L507.92 0Q507.52 0 507.52-0.40L507.52-0.40L507.52-27.60Q507.52-28 507.92-28L507.92-28L520.52-28Q520.92-28 520.92-27.60L520.92-27.60L520.92-25.08Z M545.92 0Q545.56 0 545.44-0.32L545.44-0.32L541.72-12.32Q541.68-12.44 541.56-12.44L541.56-12.44L538.80-12.44Q538.64-12.44 538.64-12.28L538.64-12.28L538.64-0.40Q538.64 0 538.24 0L538.24 0L535.20 0Q534.80 0 534.80-0.40L534.80-0.40L534.80-27.64Q534.80-28.04 535.20-28.04L535.20-28.04L542.36-28.04Q544.40-28.04 545.96-27.04Q547.52-26.04 548.38-24.22Q549.24-22.40 549.24-20.08L549.24-20.08Q549.24-17.56 548.18-15.70Q547.12-13.84 545.32-13.04L545.32-13.04Q545.20-12.92 545.24-12.80L545.24-12.80L549.36-0.44L549.40-0.28Q549.40 0 549.04 0L549.04 0L545.92 0ZM538.80-24.72Q538.64-24.72 538.64-24.56L538.64-24.56L538.64-15.60Q538.64-15.44 538.80-15.44L538.80-15.44L541.76-15.44Q543.40-15.44 544.40-16.70Q545.40-17.96 545.40-20.04L545.40-20.04Q545.40-22.20 544.40-23.46Q543.40-24.72 541.76-24.72L541.76-24.72L538.80-24.72Z M576.40-28Q576.80-28 576.80-27.60L576.80-27.60L576.80-25.08Q576.80-24.68 576.40-24.68L576.40-24.68L571.16-24.68Q571.00-24.68 571.00-24.52L571.00-24.52L571.00-0.40Q571.00 0 570.60 0L570.60 0L567.56 0Q567.16 0 567.16-0.40L567.16-0.40L567.16-24.52Q567.16-24.68 567.00-24.68L567.00-24.68L562.04-24.68Q561.64-24.68 561.64-25.08L561.64-25.08L561.64-27.60Q561.64-28 562.04-28L562.04-28L576.40-28Z M590.88 0Q590.48 0 590.48-0.40L590.48-0.40L590.48-27.60Q590.48-28 590.88-28L590.88-28L593.92-28Q594.32-28 594.32-27.60L594.32-27.60L594.32-0.40Q594.32 0 593.92 0L593.92 0L590.88 0Z M615.64 0.32Q612.48 0.32 610.54-1.66Q608.60-3.64 608.60-6.84L608.60-6.84L608.60-7.92Q608.60-8.32 609.00-8.32L609.00-8.32L611.96-8.32Q612.36-8.32 612.36-7.92L612.36-7.92L612.36-7.04Q612.36-5.20 613.28-4.10Q614.20-3 615.64-3L615.64-3Q617.08-3 618.02-4.06Q618.96-5.12 618.96-6.84L618.96-6.84Q618.96-8 618.46-8.88Q617.96-9.76 617.14-10.46Q616.32-11.16 614.48-12.52L614.48-12.52Q612.44-14.04 611.28-15.12Q610.12-16.20 609.32-17.72Q608.52-19.24 608.52-21.28L608.52-21.28Q608.52-24.52 610.44-26.42Q612.36-28.32 615.44-28.32L615.44-28.32Q618.64-28.32 620.58-26.28Q622.52-24.24 622.52-20.92L622.52-20.92L622.52-19.92Q622.52-19.52 622.12-19.52L622.12-19.52L619.16-19.52Q618.76-19.52 618.76-19.92L618.76-19.92L618.76-21Q618.76-22.80 617.84-23.90Q616.92-25 615.44-25L615.44-25Q614.04-25 613.18-24.02Q612.32-23.04 612.32-21.28L612.32-21.28Q612.32-19.68 613.20-18.58Q614.08-17.48 616.56-15.64L616.56-15.64Q619.00-13.84 620.22-12.72Q621.44-11.60 622.10-10.26Q622.76-8.92 622.76-7.08L622.76-7.08Q622.76-3.72 620.78-1.70Q618.80 0.32 615.64 0.32L615.64 0.32Z M649.80-25.08Q649.80-24.68 649.40-24.68L649.40-24.68L640.40-24.68Q640.24-24.68 640.24-24.52L640.24-24.52L640.24-15.84Q640.24-15.68 640.40-15.68L640.40-15.68L645.92-15.68Q646.32-15.68 646.32-15.28L646.32-15.28L646.32-12.76Q646.32-12.36 645.92-12.36L645.92-12.36L640.40-12.36Q640.24-12.36 640.24-12.20L640.24-12.20L640.24-3.48Q640.24-3.32 640.40-3.32L640.40-3.32L649.40-3.32Q649.80-3.32 649.80-2.92L649.80-2.92L649.80-0.40Q649.80 0 649.40 0L649.40 0L636.80 0Q636.40 0 636.40-0.40L636.40-0.40L636.40-27.60Q636.40-28 636.80-28L636.80-28L649.40-28Q649.80-28 649.80-27.60L649.80-27.60L649.80-25.08Z"/></g>
</svg>
</g><g opacity="1" transform="rotate(0 214.4285 144)">
<svg width="71.1431" height="84" x="214.4285" y="144" version="1.1" preserveAspectRatio="none" viewBox="32.458580017089844 19.999998092651367 135.3414306640625 159.79998779296875">
  <g transform="matrix(-1 0 0 1 200.2585906982422 0)"><g><path d="M167.5 109.2v-.5l-40.6-70c-.2-.3-.5-.5-.8-.5H94L75.4 20.3s-.1 0-.1-.1l-.1-.1c-.1 0-.2-.1-.3-.1h-.5c-.1 0-.1 0-.2.1L44.4 38.3c-.1.1-.2.1-.2.2-.2.2-.2.3-.2.4L32.5 89.7v.4c-.1.2 0 .5.1.7l41.2 70.4c0 .1.1.1.1.2.1.1.3.2.4.2H110l15.3 17.9c.1.1.2.2.3.2h.1c.1 0 .2.1.4.1h.3c.1 0 .1 0 .2-.1h.1l29.8-18.2.1-.1c.1 0 .1-.1.2-.1l.1-.1c0-.1.1-.1.1-.2v-.1l10.8-51.8c-.3.2-.3.2-.3.1zM155 159.9h-16.8l26.2-45.2-9.4 45.2zm-2.6 1.9l-23.7 14.4 8.4-14.4h15.3zM99 146.2L36.2 91l126.7 18.5L99 146.2zm-24 13.4L36.6 93.9l60.6 53.3L75 159.6zm-29.5-119l12.2 7L35.6 85l9.9-44.4zM60.4 47l4.1-6.9h28.8l67.5 64.8L60.4 47zm100.8 60.3L35.5 88.9l23.9-40.3 101.8 58.7zM58.7 46l-10.2-5.9h13.7L58.7 46zm-10.4-7.8l23.6-14.4-8.5 14.4H48.3zm116.1 72.7l-28.4 49h-25.1l-10.5-12.3 64-36.7zm-39-70.8l36.9 63.6L96 40.1h29.4zm-59.8-1.9l9.3-15.7 16.4 15.7H65.6zm12.8 121.7l20.3-11.3 9.7 11.3h-30zm56.5 1.9l-9 15.6-13.3-15.6h22.3z" data-color="1" class="icon1"></path></g></g>
</svg>
</g><g opacity="1" transform="rotate(0 164.875 254)">
<svg width="170.25" height="60" x="164.875" y="254" version="1.1" preserveAspectRatio="none" viewBox="1.68 -28.32 81.24 28.64">
  <g transform="matrix(1 0 0 1 0 0)" class="icon1"><path id="id-D6z1nYkh4" d="M9.32 0.32Q5.88 0.32 3.78-1.76Q1.68-3.84 1.68-7.28L1.68-7.28L1.68-20.72Q1.68-24.16 3.78-26.24Q5.88-28.32 9.32-28.32L9.32-28.32Q12.76-28.32 14.88-26.24Q17-24.16 17-20.72L17-20.72L17-7.28Q17-3.84 14.88-1.76Q12.76 0.32 9.32 0.32L9.32 0.32ZM9.32-3.68Q10.68-3.68 11.52-4.62Q12.36-5.56 12.36-7.08L12.36-7.08L12.36-20.92Q12.36-22.44 11.52-23.38Q10.68-24.32 9.32-24.32L9.32-24.32Q7.96-24.32 7.14-23.38Q6.32-22.44 6.32-20.92L6.32-20.92L6.32-7.08Q6.32-5.56 7.14-4.62Q7.96-3.68 9.32-3.68L9.32-3.68Z M35.12 0Q34.72 0 34.60-0.40L34.60-0.40L31.16-11.92Q31.08-12.08 30.96-12.08L30.96-12.08L28.88-12.08Q28.68-12.08 28.68-11.88L28.68-11.88L28.68-0.48Q28.68-0.28 28.54-0.14Q28.40 0 28.20 0L28.20 0L24.52 0Q24.32 0 24.18-0.14Q24.04-0.28 24.04-0.48L24.04-0.48L24.04-27.56Q24.04-27.76 24.18-27.90Q24.32-28.04 24.52-28.04L24.52-28.04L32.04-28.04Q34.16-28.04 35.78-27.02Q37.40-26 38.30-24.14Q39.20-22.28 39.20-19.88L39.20-19.88Q39.20-17.40 38.24-15.58Q37.28-13.76 35.56-12.84L35.56-12.84Q35.40-12.80 35.44-12.60L35.44-12.60L39.36-0.56Q39.40-0.48 39.40-0.36L39.40-0.36Q39.40 0 38.96 0L38.96 0L35.12 0ZM28.88-24.04Q28.68-24.04 28.68-23.84L28.68-23.84L28.68-15.88Q28.68-15.68 28.88-15.68L28.88-15.68L31.32-15.68Q32.76-15.68 33.66-16.80Q34.56-17.92 34.56-19.80L34.56-19.80Q34.56-21.76 33.66-22.90Q32.76-24.04 31.32-24.04L31.32-24.04L28.88-24.04Z M52.72 0.32Q49.32 0.32 47.26-1.74Q45.20-3.80 45.20-7.20L45.20-7.20L45.20-20.84Q45.20-24.28 47.26-26.30Q49.32-28.32 52.72-28.32L52.72-28.32Q56.16-28.32 58.24-26.30Q60.32-24.28 60.32-20.84L60.32-20.84L60.32-20.36Q60.32-20.16 60.18-20Q60.04-19.84 59.84-19.84L59.84-19.84L56.12-19.68Q55.64-19.68 55.64-20.16L55.64-20.16L55.64-21.16Q55.64-22.56 54.84-23.44Q54.04-24.32 52.72-24.32L52.72-24.32Q51.44-24.32 50.64-23.44Q49.84-22.56 49.84-21.16L49.84-21.16L49.84-6.84Q49.84-5.44 50.64-4.56Q51.44-3.68 52.72-3.68L52.72-3.68Q54.04-3.68 54.84-4.56Q55.64-5.44 55.64-6.84L55.64-6.84L55.64-7.84Q55.64-8.04 55.78-8.18Q55.92-8.32 56.12-8.32L56.12-8.32L59.84-8.16Q60.04-8.16 60.18-8.02Q60.32-7.88 60.32-7.68L60.32-7.68L60.32-7.20Q60.32-3.80 58.24-1.74Q56.16 0.32 52.72 0.32L52.72 0.32Z M78.76 0Q78.28 0 78.24-0.44L78.24-0.44L77.48-4.64Q77.48-4.84 77.24-4.84L77.24-4.84L71.44-4.84Q71.20-4.84 71.20-4.68L71.20-4.68L70.40-0.44Q70.36 0 69.88 0L69.88 0L66.20 0Q65.68 0 65.80-0.52L65.80-0.52L71.68-27.56Q71.76-28 72.20-28L72.20-28L76.48-28Q76.92-28 77-27.56L77-27.56L82.92-0.52L82.92-0.36Q82.92 0 82.48 0L82.48 0L78.76 0ZM72-8.68Q71.96-8.48 72.20-8.48L72.20-8.48L76.56-8.48Q76.80-8.48 76.76-8.68L76.76-8.68L74.56-20.76Q74.52-20.88 74.44-20.88Q74.36-20.88 74.32-20.76L74.32-20.76L72-8.68Z"/></g>
</svg>
</g></svg></svg>