<svg version="1.1" preserveAspectRatio="none" xmlns="http://www.w3.org/2000/svg" width="500" height="500" viewBox="0 0 500 500"><rect width="100%" height="100%" fill="#121212" fill-opacity="1"/><svg viewBox="1119.5605 989.1732 463.6628 155.2" width="333" height="111.46376202705932" x="83.5px" y="194.2681px" xmlns="http://www.w3.org/2000/svg" xmlns:xlink="http://www.w3.org/1999/xlink" preserveAspectRatio="none"><defs></defs><style>.a6izo4zJpcolor {fill:#F5F5F5;fill-opacity:1;}.companyName {fill:#F5F5F5;fill-opacity:1;}.icon3 {fill:#00DCFB;fill-opacity:1;}.icon3-str {stroke:#00DCFB;stroke-opacity:1;}.shapeStroke-str {stroke:#F5F5F5;stroke-opacity:1;}</style><g opacity="1" transform="rotate(0 1119.5605 1097.1732)">
<svg width="463.6628" height="6" x="1119.5605" y="1097.1732" version="1.1" preserveAspectRatio="none" viewBox="0 0 463.6628 6">
  <defs><rect x="0" y="0" width="463.6628" height="6" rx="4%" ry="4%" id="id-UPl23ini1697810715762"></rect></defs><use class="companyName shapeStroke-str" style="stroke-width:0;" xlink:href="#id-UPl23ini1697810715762"></use>
</svg>
</g><g opacity="1" transform="rotate(0 1119.5605 1119.1732)">
<svg width="463.6628" height="25.2" x="1119.5605" y="1119.1732" version="1.1" preserveAspectRatio="none" viewBox="1.08 -28.56 672.68 36.56">
  <g transform="matrix(1 0 0 1 0 0)" class="a6izo4zJpcolor"><path id="id-6izo4zJp26" d="M10.56 0L10.56-9.84L9.84-9.84L1.08-28L4.84-28L12-12.72L12.48-12.72L19.64-28L23.40-28L14.64-9.84L13.92-9.84L13.92 0L10.56 0Z M48.28-10.16L48.28-9.68Q48.28-7.20 47.46-5.30Q46.64-3.40 45.28-2.10Q43.92-0.80 42.10-0.12Q40.28 0.56 38.32 0.56L38.32 0.56Q36.32 0.56 34.52-0.12Q32.72-0.80 31.36-2.10Q30-3.40 29.18-5.30Q28.36-7.20 28.36-9.68L28.36-9.68L28.36-10.16Q28.36-12.60 29.18-14.50Q30-16.40 31.38-17.72Q32.76-19.04 34.56-19.72Q36.36-20.40 38.32-20.40L38.32-20.40Q40.28-20.40 42.08-19.72Q43.88-19.04 45.26-17.72Q46.64-16.40 47.46-14.50Q48.28-12.60 48.28-10.16L48.28-10.16ZM38.32-2.40L38.32-2.40Q39.76-2.40 40.98-2.90Q42.20-3.40 43.12-4.36Q44.04-5.32 44.56-6.66Q45.08-8 45.08-9.68L45.08-9.68L45.08-10.16Q45.08-11.76 44.56-13.10Q44.04-14.44 43.12-15.40Q42.20-16.36 40.96-16.90Q39.72-17.44 38.32-17.44L38.32-17.44Q36.92-17.44 35.68-16.90Q34.44-16.36 33.52-15.40Q32.60-14.44 32.08-13.10Q31.56-11.76 31.56-10.16L31.56-10.16L31.56-9.68Q31.56-8 32.08-6.66Q32.60-5.32 33.52-4.36Q34.44-3.40 35.66-2.90Q36.88-2.40 38.32-2.40Z M69.80-9.52L69.80-19.84L72.92-19.84L72.92 0L69.80 0L69.80-3.60L69.32-3.60Q68.36-1.68 66.80-0.56Q65.24 0.56 62.84 0.56L62.84 0.56Q61.20 0.56 59.82 0.02Q58.44-0.52 57.46-1.60Q56.48-2.68 55.94-4.28Q55.40-5.88 55.40-8L55.40-8L55.40-19.84L58.52-19.84L58.52-8.40Q58.52-5.28 59.80-3.84Q61.08-2.40 63.72-2.40L63.72-2.40Q66.56-2.40 68.18-4.34Q69.80-6.28 69.80-9.52L69.80-9.52Z M80.60-16.96L80.60-19.84L87.80-19.84L87.80-17.20L88.28-17.20Q89.04-18.84 90.44-19.62Q91.84-20.40 93.64-20.40L93.64-20.40Q96.64-20.40 98.48-18.44Q100.32-16.48 100.44-12.72L100.44-12.72L97.16-12.24Q97.16-15 95.84-16.22Q94.52-17.44 92.60-17.44L92.60-17.44Q91.36-17.44 90.46-16.96Q89.56-16.48 88.96-15.64Q88.36-14.80 88.08-13.68Q87.80-12.56 87.80-11.28L87.80-11.28L87.80-2.88L92.84-2.88L92.84 0L80.12 0L80.12-2.88L84.68-2.88L84.68-16.96L80.60-16.96Z M139.40 0L131.48-28L135.08-28L142.40-1.44L142.88-1.44L150.20-28L153.80-28L145.88 0L139.40 0Z M166.12-25.76L166.12-25.76Q166.12-26.92 166.94-27.74Q167.76-28.56 168.92-28.56L168.92-28.56Q170.08-28.56 170.90-27.74Q171.72-26.92 171.72-25.76L171.72-25.76Q171.72-24.60 170.90-23.78Q170.08-22.96 168.92-22.96L168.92-22.96Q167.76-22.96 166.94-23.78Q166.12-24.60 166.12-25.76ZM160.44 0L160.44-2.88L167.40-2.88L167.40-16.96L161.16-16.96L161.16-19.84L170.52-19.84L170.52-2.88L177.00-2.88L177.00 0L160.44 0Z M190.16-14.72L190.16-14.72Q190.16-13.28 191.38-12.52Q192.60-11.76 195.84-11.52L195.84-11.52Q199.32-11.24 201.14-9.86Q202.96-8.48 202.96-5.84L202.96-5.84L202.96-5.60Q202.96-4.16 202.38-3.02Q201.80-1.88 200.78-1.08Q199.76-0.28 198.30 0.14Q196.84 0.56 195.12 0.56L195.12 0.56Q192.80 0.56 191.14-0.06Q189.48-0.68 188.38-1.70Q187.28-2.72 186.72-4.02Q186.16-5.32 186.08-6.64L186.08-6.64L189.04-7.36Q189.24-5.08 190.80-3.70Q192.36-2.32 194.96-2.32L194.96-2.32Q197.16-2.32 198.50-3.18Q199.84-4.04 199.84-5.60L199.84-5.60Q199.84-7.28 198.52-8Q197.20-8.72 194.24-8.92L194.24-8.92Q190.80-9.16 188.96-10.52Q187.12-11.88 187.12-14.48L187.12-14.48L187.12-14.72Q187.12-16.12 187.72-17.18Q188.32-18.24 189.34-18.96Q190.36-19.68 191.64-20.04Q192.92-20.40 194.32-20.40L194.32-20.40Q196.28-20.40 197.76-19.86Q199.24-19.32 200.24-18.46Q201.24-17.60 201.78-16.48Q202.32-15.36 202.48-14.24L202.48-14.24L199.52-13.52Q199.32-15.44 197.98-16.52Q196.64-17.60 194.48-17.60L194.48-17.60Q193.64-17.60 192.86-17.42Q192.08-17.24 191.48-16.88Q190.88-16.52 190.52-15.98Q190.16-15.44 190.16-14.72Z M218.28-25.76L218.28-25.76Q218.28-26.92 219.10-27.74Q219.92-28.56 221.08-28.56L221.08-28.56Q222.24-28.56 223.06-27.74Q223.88-26.92 223.88-25.76L223.88-25.76Q223.88-24.60 223.06-23.78Q222.24-22.96 221.08-22.96L221.08-22.96Q219.92-22.96 219.10-23.78Q218.28-24.60 218.28-25.76ZM212.60 0L212.60-2.88L219.56-2.88L219.56-16.96L213.32-16.96L213.32-19.84L222.68-19.84L222.68-2.88L229.16-2.88L229.16 0L212.60 0Z M256.92-10.16L256.92-9.68Q256.92-7.20 256.10-5.30Q255.28-3.40 253.92-2.10Q252.56-0.80 250.74-0.12Q248.92 0.56 246.96 0.56L246.96 0.56Q244.96 0.56 243.16-0.12Q241.36-0.80 240.00-2.10Q238.64-3.40 237.82-5.30Q237.00-7.20 237.00-9.68L237.00-9.68L237.00-10.16Q237.00-12.60 237.82-14.50Q238.64-16.40 240.02-17.72Q241.40-19.04 243.20-19.72Q245.00-20.40 246.96-20.40L246.96-20.40Q248.92-20.40 250.72-19.72Q252.52-19.04 253.90-17.72Q255.28-16.40 256.10-14.50Q256.92-12.60 256.92-10.16L256.92-10.16ZM246.96-2.40L246.96-2.40Q248.40-2.40 249.62-2.90Q250.84-3.40 251.76-4.36Q252.68-5.32 253.20-6.66Q253.72-8 253.72-9.68L253.72-9.68L253.72-10.16Q253.72-11.76 253.20-13.10Q252.68-14.44 251.76-15.40Q250.84-16.36 249.60-16.90Q248.36-17.44 246.96-17.44L246.96-17.44Q245.56-17.44 244.32-16.90Q243.08-16.36 242.16-15.40Q241.24-14.44 240.72-13.10Q240.20-11.76 240.20-10.16L240.20-10.16L240.20-9.68Q240.20-8 240.72-6.66Q241.24-5.32 242.16-4.36Q243.08-3.40 244.30-2.90Q245.52-2.40 246.96-2.40Z M267.40-10.32L267.40 0L264.28 0L264.28-19.84L267.40-19.84L267.40-16.48L267.88-16.48Q269.72-20.40 274.28-20.40L274.28-20.40Q277.72-20.40 279.76-18.26Q281.80-16.12 281.80-11.84L281.80-11.84L281.80 0L278.68 0L278.68-11.20Q278.68-14.32 277.28-15.88Q275.88-17.44 273.48-17.44L273.48-17.44Q270.64-17.44 269.02-15.50Q267.40-13.56 267.40-10.32L267.40-10.32Z M296.32-2.24L296.32-2.24Q296.32-3.40 297.14-4.22Q297.96-5.04 299.12-5.04L299.12-5.04Q300.28-5.04 301.10-4.22Q301.92-3.40 301.92-2.24L301.92-2.24L301.92 1.68Q301.92 3.04 301.06 3.92Q300.20 4.80 298.84 4.80L298.84 4.80L296.80 4.80L296.80 2.64L298.68 2.64Q299.76 2.64 299.76 1.44L299.76 1.44L299.76 0.44Q299.44 0.56 299.08 0.56L299.08 0.56Q297.96 0.56 297.14-0.26Q296.32-1.08 296.32-2.24Z M341.44-10.88L341.44-17.12Q341.44-22.56 344.04-25.56Q346.64-28.56 351.28-28.56L351.28-28.56Q355.92-28.56 358.52-25.56Q361.12-22.56 361.12-17.12L361.12-17.12L361.12-10.88Q361.12-5.28 358.52-2.36Q355.92 0.56 351.28 0.56L351.28 0.56Q346.64 0.56 344.04-2.36Q341.44-5.28 341.44-10.88L341.44-10.88ZM351.28-2.56L351.28-2.56Q354.52-2.56 356.14-4.78Q357.76-7 357.76-11.12L357.76-11.12L357.76-16.88Q357.76-20.72 356.14-23.08Q354.52-25.44 351.28-25.44L351.28-25.44Q348.04-25.44 346.42-23.08Q344.80-20.72 344.80-16.88L344.80-16.88L344.80-11.12Q344.80-7 346.42-4.78Q348.04-2.56 351.28-2.56Z M382.76-9.52L382.76-19.84L385.88-19.84L385.88 0L382.76 0L382.76-3.60L382.28-3.60Q381.32-1.68 379.76-0.56Q378.20 0.56 375.80 0.56L375.80 0.56Q374.16 0.56 372.78 0.02Q371.40-0.52 370.42-1.60Q369.44-2.68 368.90-4.28Q368.36-5.88 368.36-8L368.36-8L368.36-19.84L371.48-19.84L371.48-8.40Q371.48-5.28 372.76-3.84Q374.04-2.40 376.68-2.40L376.68-2.40Q379.52-2.40 381.14-4.34Q382.76-6.28 382.76-9.52L382.76-9.52Z M393.56-16.96L393.56-19.84L400.76-19.84L400.76-17.20L401.24-17.20Q402.00-18.84 403.40-19.62Q404.80-20.40 406.60-20.40L406.60-20.40Q409.60-20.40 411.44-18.44Q413.28-16.48 413.40-12.72L413.40-12.72L410.12-12.24Q410.12-15 408.80-16.22Q407.48-17.44 405.56-17.44L405.56-17.44Q404.32-17.44 403.42-16.96Q402.52-16.48 401.92-15.64Q401.32-14.80 401.04-13.68Q400.76-12.56 400.76-11.28L400.76-11.28L400.76-2.88L405.80-2.88L405.80 0L393.08 0L393.08-2.88L397.64-2.88L397.64-16.96L393.56-16.96Z M447.12 0L447.12-28L464.08-28L464.08-24.88L450.48-24.88L450.48-15.60L463.84-15.60L463.84-12.48L450.48-12.48L450.48-3.12L464.32-3.12L464.32 0L447.12 0Z M482.04-11.60L487.04-19.84L490.60-19.84L484.76-10.40L484.76-9.92L491.08 0L487.44 0L482.04-8.72L481.32-8.72L475.92 0L472.28 0L478.60-9.92L478.60-10.40L472.76-19.84L476.32-19.84L481.32-11.60L482.04-11.60Z M501.40-3.04L501.40 8L498.28 8L498.28-19.84L501.40-19.84L501.40-16.72L501.88-16.72Q502.92-18.52 504.76-19.46Q506.60-20.40 508.76-20.40L508.76-20.40Q510.60-20.40 512.24-19.72Q513.88-19.04 515.14-17.76Q516.40-16.48 517.14-14.60Q517.88-12.72 517.88-10.32L517.88-10.32L517.88-9.52Q517.88-7.08 517.16-5.20Q516.44-3.32 515.18-2.04Q513.92-0.76 512.24-0.10Q510.56 0.56 508.68 0.56L508.68 0.56Q507.72 0.56 506.72 0.34Q505.72 0.12 504.82-0.34Q503.92-0.80 503.16-1.46Q502.40-2.12 501.88-3.04L501.88-3.04L501.40-3.04ZM508.04-2.40L508.04-2.40Q509.48-2.40 510.68-2.90Q511.88-3.40 512.78-4.32Q513.68-5.24 514.18-6.56Q514.68-7.88 514.68-9.52L514.68-9.52L514.68-10.32Q514.68-11.92 514.18-13.22Q513.68-14.52 512.78-15.46Q511.88-16.40 510.66-16.92Q509.44-17.44 508.04-17.44L508.04-17.44Q506.64-17.44 505.44-16.90Q504.24-16.36 503.34-15.40Q502.44-14.44 501.92-13.10Q501.40-11.76 501.40-10.16L501.40-10.16L501.40-9.68Q501.40-8.04 501.92-6.70Q502.44-5.36 503.34-4.40Q504.24-3.44 505.44-2.92Q506.64-2.40 508.04-2.40Z M543.36-8.96L527.36-8.96Q527.48-6 529.20-4.20Q530.92-2.40 534.00-2.40L534.00-2.40Q535.40-2.40 536.44-2.72Q537.48-3.04 538.22-3.60Q538.96-4.16 539.42-4.90Q539.88-5.64 540.16-6.48L540.16-6.48L543.12-5.68Q542.28-2.92 540.02-1.18Q537.76 0.56 533.92 0.56L533.92 0.56Q531.80 0.56 530.02-0.18Q528.24-0.92 526.96-2.28Q525.68-3.64 524.96-5.52Q524.24-7.40 524.24-9.68L524.24-9.68L524.24-10.64Q524.24-12.72 524.98-14.52Q525.72-16.32 527.04-17.62Q528.36-18.92 530.14-19.66Q531.92-20.40 534.00-20.40L534.00-20.40Q536.44-20.40 538.22-19.50Q540.00-18.60 541.14-17.28Q542.28-15.96 542.82-14.40Q543.36-12.84 543.36-11.52L543.36-11.52L543.36-8.96ZM534.00-17.44L534.00-17.44Q532.68-17.44 531.54-17.02Q530.40-16.60 529.54-15.84Q528.68-15.08 528.14-14.06Q527.60-13.04 527.44-11.84L527.44-11.84L540.24-11.84Q540.16-13.12 539.62-14.16Q539.08-15.20 538.22-15.92Q537.36-16.64 536.26-17.04Q535.16-17.44 534.00-17.44Z M550.04-16.96L550.04-19.84L557.24-19.84L557.24-17.20L557.72-17.20Q558.48-18.84 559.88-19.62Q561.28-20.40 563.08-20.40L563.08-20.40Q566.08-20.40 567.92-18.44Q569.76-16.48 569.88-12.72L569.88-12.72L566.60-12.24Q566.60-15 565.28-16.22Q563.96-17.44 562.04-17.44L562.04-17.44Q560.80-17.44 559.90-16.96Q559.00-16.48 558.40-15.64Q557.80-14.80 557.52-13.68Q557.24-12.56 557.24-11.28L557.24-11.28L557.24-2.88L562.28-2.88L562.28 0L549.56 0L549.56-2.88L554.12-2.88L554.12-16.96L550.04-16.96Z M576.56-16.96L576.56-19.84L582.80-19.84L582.80-28L585.92-28L585.92-19.84L593.60-19.84L593.60-16.96L585.92-16.96L585.92-4.08Q585.92-2.88 587.00-2.88L587.00-2.88L592.64-2.88L592.64 0L585.88 0Q584.52 0 583.66-0.88Q582.80-1.76 582.80-3.12L582.80-3.12L582.80-16.96L576.56-16.96Z M609.48-25.76L609.48-25.76Q609.48-26.92 610.30-27.74Q611.12-28.56 612.28-28.56L612.28-28.56Q613.44-28.56 614.26-27.74Q615.08-26.92 615.08-25.76L615.08-25.76Q615.08-24.60 614.26-23.78Q613.44-22.96 612.28-22.96L612.28-22.96Q611.12-22.96 610.30-23.78Q609.48-24.60 609.48-25.76ZM603.80 0L603.80-2.88L610.76-2.88L610.76-16.96L604.52-16.96L604.52-19.84L613.88-19.84L613.88-2.88L620.36-2.88L620.36 0L603.80 0Z M633.52-14.72L633.52-14.72Q633.52-13.28 634.74-12.52Q635.96-11.76 639.20-11.52L639.20-11.52Q642.68-11.24 644.50-9.86Q646.32-8.48 646.32-5.84L646.32-5.84L646.32-5.60Q646.32-4.16 645.74-3.02Q645.16-1.88 644.14-1.08Q643.12-0.28 641.66 0.14Q640.20 0.56 638.48 0.56L638.48 0.56Q636.16 0.56 634.50-0.06Q632.84-0.68 631.74-1.70Q630.64-2.72 630.08-4.02Q629.52-5.32 629.44-6.64L629.44-6.64L632.40-7.36Q632.60-5.08 634.16-3.70Q635.72-2.32 638.32-2.32L638.32-2.32Q640.52-2.32 641.86-3.18Q643.20-4.04 643.20-5.60L643.20-5.60Q643.20-7.28 641.88-8Q640.56-8.72 637.60-8.92L637.60-8.92Q634.16-9.16 632.32-10.52Q630.48-11.88 630.48-14.48L630.48-14.48L630.48-14.72Q630.48-16.12 631.08-17.18Q631.68-18.24 632.70-18.96Q633.72-19.68 635.00-20.04Q636.28-20.40 637.68-20.40L637.68-20.40Q639.64-20.40 641.12-19.86Q642.60-19.32 643.60-18.46Q644.60-17.60 645.14-16.48Q645.68-15.36 645.84-14.24L645.84-14.24L642.88-13.52Q642.68-15.44 641.34-16.52Q640.00-17.60 637.84-17.60L637.84-17.60Q637.00-17.60 636.22-17.42Q635.44-17.24 634.84-16.88Q634.24-16.52 633.88-15.98Q633.52-15.44 633.52-14.72Z M673.76-8.96L657.76-8.96Q657.88-6 659.60-4.20Q661.32-2.40 664.40-2.40L664.40-2.40Q665.80-2.40 666.84-2.72Q667.88-3.04 668.62-3.60Q669.36-4.16 669.82-4.90Q670.28-5.64 670.56-6.48L670.56-6.48L673.52-5.68Q672.68-2.92 670.42-1.18Q668.16 0.56 664.32 0.56L664.32 0.56Q662.20 0.56 660.42-0.18Q658.64-0.92 657.36-2.28Q656.08-3.64 655.36-5.52Q654.64-7.40 654.64-9.68L654.64-9.68L654.64-10.64Q654.64-12.72 655.38-14.52Q656.12-16.32 657.44-17.62Q658.76-18.92 660.54-19.66Q662.32-20.40 664.40-20.40L664.40-20.40Q666.84-20.40 668.62-19.50Q670.40-18.60 671.54-17.28Q672.68-15.96 673.22-14.40Q673.76-12.84 673.76-11.52L673.76-11.52L673.76-8.96ZM664.40-17.44L664.40-17.44Q663.08-17.44 661.94-17.02Q660.80-16.60 659.94-15.84Q659.08-15.08 658.54-14.06Q658.00-13.04 657.84-11.84L657.84-11.84L670.64-11.84Q670.56-13.12 670.02-14.16Q669.48-15.20 668.62-15.92Q667.76-16.64 666.66-17.04Q665.56-17.44 664.40-17.44Z"/></g>
</svg>
</g><g opacity="1" transform="rotate(0 1159.3509 989.1732)">
<svg width="384.0819" height="90" x="1159.3509" y="989.1732" version="1.1" preserveAspectRatio="none" viewBox="1.2 -28.8 123.76 29">
  <g transform="matrix(1 0 0 1 0 0)" class="companyName"><path id="id-D6z1nYkh4" d="M24.92 0.20L17.24 0.20Q9.60 0.20 5.40-3.46Q1.20-7.12 1.20-14.32L1.20-14.32Q1.20-21.48 5.40-25.14Q9.60-28.80 17.52-28.80L17.52-28.80L24.72-28.80Q32.64-28.80 36.84-25.14Q41.04-21.48 41.04-14.32L41.04-14.32Q41.04-7.12 36.84-3.46Q32.64 0.20 24.92 0.20L24.92 0.20ZM24.28-23.60L17.96-23.60Q13.52-23.60 11.04-22Q8.56-20.40 7.92-16.92L7.92-16.92L34.32-16.92Q33.68-20.40 31.20-22Q28.72-23.60 24.28-23.60L24.28-23.60ZM18.08-5L18.08-5L24.28-5Q28.76-5 31.22-6.60Q33.68-8.20 34.32-11.72L34.32-11.72L7.92-11.72Q8.56-8.20 11.04-6.60Q13.52-5 18.08-5Z M50.32 0L44.44 0L44.44-20.60L60.20-20.60Q63.68-20.60 65.32-18.86Q66.96-17.12 66.96-14.28L66.96-14.28L66.96-10L61.08-10L61.08-13.56Q61.08-15.96 58.68-15.96L58.68-15.96L50.32-15.96L50.32 0Z M95.32 0.20L81.52 0.20Q76.16 0.20 73.16-2.46Q70.16-5.12 70.16-10.28L70.16-10.28Q70.16-15.48 73.16-18.14Q76.16-20.80 81.52-20.80L81.52-20.80L94.92-20.80L94.92-16.20L81.52-16.20Q78.92-16.20 77.54-14.76Q76.16-13.32 76.16-10.28L76.16-10.28Q76.16-7.28 77.54-5.84Q78.92-4.40 81.52-4.40L81.52-4.40L95.32-4.40L95.32 0.20Z M124.96 0L103.80 0Q100.56 0 98.84-1.64Q97.12-3.28 97.12-6.32L97.12-6.32Q97.12-9.32 98.84-10.96Q100.56-12.60 103.80-12.60L103.80-12.60L119.16-12.60L119.16-13.56Q119.16-16 116.76-16L116.76-16L99.80-16L99.80-20.60L118.28-20.60Q121.92-20.60 123.44-18.94Q124.96-17.28 124.96-14.28L124.96-14.28L124.96 0ZM104.84-4.60L104.84-4.60L119.16-4.60L119.16-8L104.84-8Q104.08-8 103.66-7.54Q103.24-7.08 103.24-6.32L103.24-6.32Q103.24-5.56 103.66-5.08Q104.08-4.60 104.84-4.60Z"/></g>
</svg>
</g><g opacity="1" transform="rotate(0 1119.5605 1097.1732)">
<svg width="84.498" height="6" x="1119.5605" y="1097.1732" version="1.1" preserveAspectRatio="none" viewBox="0 0 84.498 6">
  <defs><rect x="0" y="0" width="84.498" height="6" rx="0px" ry="0px" id="id-o0jQam8yd1697810715762"></rect></defs><use class="icon3 shapeStroke-str" style="stroke-width:0;" xlink:href="#id-o0jQam8yd1697810715762"></use>
</svg>
</g></svg></svg>